SplineFontDB: 1.0
FontName: Baghdad
FullName: Baghdad
FamilyName: Baghdad
Weight: Regular
Version: 000.002
ItalicAngle: 0
UnderlinePosition: -350
UnderlineWidth: 37
Ascent: 800
Descent: 200
ScriptLang: 2
 1 latn 1 dflt 
 1 DFLT 1 dflt 
Encoding: custom
UnicodeInterp: none
DisplaySize: -24
AntiAlias: 1
FitToEm: 1
WinInfo: 0 40 16
BeginPrivate: 10
lenIV 1 4
BlueValues 24 [-26 0 100 132 209 782 ]
OtherBlues 12 [-225 -191 ]
StdHW 5 [100]
StdVW 4 [40]
StemSnapH 9 [89 100 ]
StemSnapV 190 [33 40 53 ] systemdict /internaldict known
{ 1183615869 systemdict /internaldict get exec
/StemSnapLength 2 copy known { get 3 lt } { pop pop true } ifelse }
{ true } ifelse {pop [33 40]} if
BlueScale 8 0.014625
BlueShift 1 7
ForceBold 5 false
EndPrivate
BeginChars: 372 372
StartChar: exclam
Encoding: 33 33 154
Width: 265
Flags: MW
HStem: -1 100<122.5 143.5> 481 20<169 169>
VStem: 82 102<37.5 58.5>
Fore
133 99 m 0
 154 99 184 69 184 48 c 0
 184 27 154 -1 133 -1 c 0
 112 -1 82 27 82 48 c 0
 82 69 112 99 133 99 c 0
169 501 m 1
 166 476 165 468 159 431 c 0
 154 399 148 321 148 307 c 2
 148 154 l 1
 122 140 l 1
 115 163 111 178 107 203 c 0
 100 239 99 272 99 284 c 2
 99 433 l 1
 169 501 l 1
EndSplineSet
EndChar
StartChar: quotedbl
Encoding: 34 34 155
Width: 281
Flags: MW
HStem: 399 20 540 20<90 102 194 206.5>
VStem: 71 154<524 537>
Fore
85 399 m 1
 85 399 82 473 71 524 c 1
 71 550 84 560 96 560 c 0
 108 560 121 550 121 524 c 1
 110 473 107 399 107 399 c 1
 85 399 l 1
189 399 m 1
 189 399 187 473 176 524 c 1
 176 550 188 560 200 560 c 0
 213 560 225 550 225 524 c 1
 214 473 211 399 211 399 c 1
 189 399 l 1
EndSplineSet
EndChar
StartChar: numbersign
Encoding: 35 35 156
Width: 510
Flags: MW
HStem: 132 33<67 159 203 305 344 443> 318 33<103 204 246 350 387 483> 500 20<254 285 285 285 396 427 427 427>
VStem: 58 434
Fore
254 520 m 1
 285 520 l 1
 246 351 l 1
 357 351 l 1
 396 520 l 1
 427 520 l 1
 387 351 l 1
 492 351 l 1
 483 318 l 1
 381 318 l 1
 344 165 l 1
 453 165 l 1
 443 132 l 1
 335 132 l 1
 295 -44 l 1
 265 -44 l 1
 305 132 l 1
 193 132 l 1
 154 -38 l 1
 122 -38 l 1
 159 132 l 1
 58 132 l 1
 67 165 l 1
 173 165 l 1
 204 318 l 1
 93 318 l 1
 103 351 l 1
 214 351 l 1
 254 520 l 1
239 318 m 1
 203 165 l 1
 314 165 l 1
 350 318 l 1
 239 318 l 1
EndSplineSet
EndChar
StartChar: dollar
Encoding: 36 36 207
Width: 833
Flags: MW
HStem: -225 99<130 203.5> 214 85 438 20<519 519>
VStem: 10 39<-47.5 -38>
Fore
461 401 m 1
 519 458 l 1
 576 401 l 1
 519 343 l 1
 461 401 l 1
443 96 m 1
 443 96 632 299 746 299 c 0
 754 299 763 299 770 296 c 0
 809 284 829 255 829 222 c 0
 829 159 764 75 663 33 c 1
 564 -4 388 -4 388 -4 c 1
 388 -18 364 -225 160 -225 c 0
 44 -225 10 -154 10 -80 c 0
 10 4 52 91 69 91 c 1
 69 77 49 27 49 -21 c 0
 49 -74 75 -126 185 -126 c 0
 222 -126 314 -117 353 -59 c 1
 353 -29 351 -10 343 19 c 0
 336 47 325 66 310 89 c 1
 337 165 l 1
 337 160 357 141 369 117 c 0
 373 110 387 96 443 96 c 1
479 96 m 1
 479 96 502 95 535 95 c 0
 604 95 719 103 763 158 c 1
 763 180 726 210 664 214 c 1
 619 214 481 107 479 96 c 1
EndSplineSet
EndChar
StartChar: percent
Encoding: 37 37 158
Width: 658
Flags: MW
HStem: 595 20<519 567 567 567>
VStem: 88 479
Fore
519 615 m 1
 567 615 l 1
 139 -163 l 1
 88 -163 l 1
 519 615 l 1
492 -3 m 0
 519 -4 531 -26 531 -45 c 0
 531 -53 529 -60 525 -67 c 0
 517 -78 505 -85 492 -85 c 0
 481 -85 471 -81 461 -73 c 0
 454 -67 451 -58 451 -48 c 0
 451 -26 466 -3 492 -3 c 0
160 524 m 0
 188 523 202 499 202 477 c 0
 202 469 200 460 195 454 c 0
 187 443 173 436 160 436 c 0
 150 436 137 442 129 453 c 0
 123 461 119 471 119 481 c 0
 119 503 134 524 160 524 c 0
EndSplineSet
EndChar
StartChar: ampersand
Encoding: 38 38 159
Width: 477
Flags: MW
HStem: 0 52<126 150> 493 20<127.5 182>
VStem: 59 59<395 401.5> 240 59<395 396>
Fore
446 40 m 1
 406 0 l 1
 311 95 l 1
 309 95 247 3 159 0 c 1
 52 0 29 43 29 93 c 0
 29 107 30 122 33 137 c 0
 41 182 140 266 140 266 c 1
 104 302 l 2
 99 307 60 339 59 381 c 0
 59 422 73 513 182 513 c 1
 261 510 299 454 299 395 c 1
 281 291 222 263 221 263 c 1
 306 177 l 1
 413 285 l 1
 453 246 l 1
 347 139 l 1
 446 40 l 1
181 299 m 1
 182 299 240 337 240 396 c 1
 237 444 218 454 181 457 c 1
 150 457 118 435 118 395 c 0
 119 355 143 340 144 337 c 1
 181 299 l 1
178 225 m 1
 174 225 102 155 88 123 c 0
 85 118 84 111 84 104 c 0
 84 78 102 52 150 52 c 1
 204 58 267 134 267 136 c 1
 178 225 l 1
EndSplineSet
EndChar
StartChar: quoteright
Encoding: 39 8217 236
Width: 621
Flags: MW
HStem: -10 90<239 274> 300 20<564 564>
VStem: 8 605
Fore
241 -250 m 1
 292 -199 l 1
 343 -250 l 1
 292 -300 l 1
 241 -250 l 1
239 -195 m 1
 188 -144 l 1
 239 -93 l 1
 340 -195 l 1
 391 -144 l 1
 340 -93 l 1
 239 -195 l 1
74 266 m 1
 74 252 52 217 52 184 c 0
 52 177 53 170 56 163 c 0
 85 95 204 80 274 80 c 0
 466 82 557 133 573 141 c 1
 573 147 565 173 557 187 c 0
 550 199 540 209 529 217 c 1
 564 320 l 1
 568 313 613 274 613 204 c 0
 613 171 604 132 575 85 c 0
 543 34 373 -10 233 -10 c 0
 156 -10 89 3 56 34 c 1
 21 69 8 106 8 140 c 0
 8 209 59 266 74 266 c 1
EndSplineSet
EndChar
StartChar: parenleft
Encoding: 40 40 161
Width: 379
Flags: MW
HStem: 571 20<151 151>
VStem: 214 55<168 229>
Fore
213 270 m 0
 204 376 177 449 111 538 c 1
 151 591 l 1
 206 523 266 433 269 254 c 1
 269 82 191 -23 159 -64 c 1
 140 -45 l 1
 159 -12 214 73 214 221 c 0
 214 237 214 254 213 270 c 0
EndSplineSet
EndChar
StartChar: parenright
Encoding: 41 41 162
Width: 381
Flags: W
Fore
168 257 m 0
 177 151 204 78 270 -11 c 1
 230 -64 l 1
 175 4 115 94 112 273 c 1
 112 445 190 550 222 591 c 1
 241 572 l 1
 222 539 167 454 167 306 c 0
 167 290 167 273 168 257 c 0
EndSplineSet
EndChar
StartChar: asterisk
Encoding: 42 42 185
Width: 417
Flags: MW
HStem: 324 20<182.5 212>
VStem: 156 84<-51.5 -19>
Fore
198 344 m 0
 226 344 233 324 233 296 c 0
 233 265 222 225 222 202 c 0
 222 191 225 184 230 182 c 1
 255 182 309 258 354 258 c 0
 365 258 376 254 385 241 c 0
 392 232 396 224 396 215 c 0
 396 166 265 145 261 126 c 1
 261 106 390 97 390 40 c 0
 390 34 390 29 387 23 c 0
 380 4 368 -4 354 -4 c 0
 313 -4 251 70 230 70 c 0
 229 69 228 66 228 62 c 0
 228 43 240 -1 240 -37 c 0
 240 -67 232 -93 200 -93 c 0
 167 -93 156 -67 156 -36 c 0
 156 0 167 41 167 62 c 0
 167 67 167 71 166 73 c 1
 144 73 96 -3 51 -3 c 0
 40 -3 30 0 21 10 c 1
 14 16 11 22 11 29 c 0
 11 70 137 112 137 130 c 1
 133 160 14 155 14 215 c 0
 14 222 15 230 19 240 c 0
 26 255 34 261 45 261 c 0
 86 261 150 182 173 182 c 1
 174 184 174 187 174 192 c 0
 174 213 156 261 156 298 c 0
 156 324 167 344 198 344 c 0
162 129 m 0
 162 108 182 89 203 89 c 1
 222 91 239 107 239 126 c 0
 239 147 221 167 200 167 c 0
 181 167 162 148 162 129 c 0
EndSplineSet
EndChar
StartChar: plus
Encoding: 43 43 164
Width: 480
Flags: MW
HStem: 210 41<58 218 259 420> 392 20<218 259 259 259>
VStem: 218 41<49 210 251 412>
Fore
218 412 m 1
 259 412 l 1
 259 251 l 1
 420 251 l 1
 420 210 l 1
 259 210 l 1
 259 49 l 1
 218 49 l 1
 218 210 l 1
 58 210 l 1
 58 251 l 1
 218 251 l 1
 218 412 l 1
EndSplineSet
EndChar
StartChar: comma
Encoding: 44 44 165
Width: 324
Flags: MW
HStem: 0 20 195 20<152 152>
VStem: 82 58
Fore
102 25 m 0
 82 56 82 51 82 99 c 1
 84 140 107 191 152 215 c 1
 163 209 l 1
 152 192 145 176 141 156 c 1
 140 137 140 121 140 102 c 1
 162 91 l 1
 185 56 l 1
 156 16 l 1
 155 16 148 0 134 0 c 0
 126 0 115 5 102 25 c 0
EndSplineSet
EndChar
StartChar: hyphen
Encoding: 45 45 166
Width: 480
Flags: MW
HStem: 206 49<63 425>
VStem: 63 362<206 255>
Fore
425 255 m 1
 425 206 l 1
 63 206 l 1
 63 255 l 1
 425 255 l 1
EndSplineSet
EndChar
StartChar: period
Encoding: 46 46 167
Width: 321
Flags: MW
HStem: -1 101<150 170.5>
VStem: 108 103<39 59.5>
Fore
160 100 m 0
 181 100 211 70 211 49 c 0
 211 29 181 -1 160 -1 c 0
 140 -1 108 29 108 49 c 0
 108 70 140 100 160 100 c 0
EndSplineSet
EndChar
StartChar: slash
Encoding: 47 47 168
Width: 480
Flags: MW
HStem: 556 20<370 370>
VStem: 91 326
Fore
370 576 m 1
 417 557 l 1
 137 -115 l 1
 91 -97 l 1
 370 576 l 1
EndSplineSet
EndChar
StartChar: zero
Encoding: 48 48 169
Width: 480
Flags: MW
HStem: 115 100<238 258.5>
VStem: 202 93<155.5 176.5>
Fore
248 215 m 0
 269 215 295 187 295 166 c 0
 295 145 269 115 248 115 c 0
 228 115 202 145 202 166 c 0
 202 187 228 215 248 215 c 0
EndSplineSet
EndChar
StartChar: one
Encoding: 49 49 170
Width: 480
Flags: MW
HStem: -3 20 560 20<169 169>
VStem: 136 188
Fore
169 580 m 1
 200 538 259 432 292 335 c 0
 316 267 324 206 324 152 c 0
 324 82 310 27 305 -3 c 1
 305 -3 267 177 236 251 c 0
 204 328 181 373 136 443 c 1
 169 580 l 1
EndSplineSet
EndChar
StartChar: two
Encoding: 50 50 171
Width: 480
Flags: MW
HStem: 0 20 568 20<134 134>
VStem: 102 281
Fore
102 446 m 1
 134 588 l 1
 170 527 l 1
 188 495 218 479 255 477 c 1
 344 477 354 583 369 584 c 0
 376 584 383 551 383 514 c 0
 383 484 379 451 366 428 c 0
 343 384 265 365 248 365 c 1
 269 309 276 272 281 211 c 0
 283 196 284 181 284 167 c 0
 284 115 273 64 251 0 c 1
 251 3 226 159 199 250 c 0
 165 362 102 446 102 446 c 1
EndSplineSet
EndChar
StartChar: three
Encoding: 51 51 172
Width: 480
Flags: MW
HStem: -1 20 357 122<326.5 350.5> 570 20<108 108>
VStem: 69 384
Fore
184 -1 m 0
 169 0 176 129 147 225 c 0
 119 313 106 364 69 446 c 1
 108 590 l 1
 154 497 l 1
 169 473 193 460 221 460 c 0
 226 460 233 461 240 462 c 0
 285 472 283 571 298 571 c 0
 318 569 288 479 364 479 c 0
 425 479 417 571 439 571 c 0
 447 571 453 553 453 527 c 0
 453 480 436 409 392 376 c 0
 374 362 358 357 343 357 c 0
 310 357 291 384 289 384 c 1
 278 373 267 364 254 355 c 0
 239 344 226 337 209 332 c 1
 218 292 226 251 226 200 c 0
 226 121 210 -1 184 -1 c 0
EndSplineSet
EndChar
StartChar: four
Encoding: 52 52 173
Width: 480
Flags: MW
HStem: 0 20 516 20<306 306>
VStem: 106 306
Fore
306 536 m 1
 278 439 l 1
 254 438 236 429 217 414 c 0
 203 403 192 391 185 374 c 1
 187 374 272 322 272 288 c 1
 263 225 187 169 187 134 c 1
 195 112 215 110 239 110 c 0
 252 110 266 110 280 110 c 0
 343 110 399 125 412 130 c 1
 406 95 347 8 217 0 c 1
 169 0 106 27 106 86 c 1
 108 102 188 226 195 226 c 1
 195 226 110 265 110 307 c 0
 110 359 233 491 257 505 c 2
 306 536 l 1
EndSplineSet
EndChar
StartChar: five
Encoding: 53 53 174
Width: 480
Flags: MW
HStem: 21 127<217 247.5> 449 20<220 244>
VStem: 115 40<194 226> 322 42<208 236>
Fore
244 469 m 0
 298 468 364 333 364 217 c 0
 364 199 362 182 359 166 c 0
 344 93 298 21 217 21 c 1
 144 26 118 77 115 163 c 1
 115 311 196 469 244 469 c 0
166 169 m 0
 178 156 203 148 229 148 c 0
 266 148 305 162 318 192 c 0
 321 198 322 204 322 211 c 0
 322 261 262 333 232 333 c 1
 209 329 155 252 155 200 c 0
 155 188 159 177 166 169 c 0
EndSplineSet
EndChar
StartChar: six
Encoding: 54 54 175
Width: 480
Flags: MW
HStem: 0 20 372 130<162 188.5> 538 20<69 69>
VStem: 63 344
Fore
69 558 m 1
 69 558 89 523 108 512 c 0
 121 505 139 502 158 502 c 0
 219 502 300 528 300 528 c 1
 300 528 311 353 348 237 c 0
 366 180 407 136 407 136 c 1
 373 0 l 1
 328 73 316 77 283 203 c 0
 266 265 254 387 254 388 c 1
 254 388 218 372 169 372 c 0
 155 372 141 373 128 376 c 0
 75 385 63 458 63 509 c 0
 63 535 66 554 69 558 c 1
EndSplineSet
EndChar
StartChar: seven
Encoding: 55 55 176
Width: 480
Flags: MW
HStem: -7 20 566 20<73 73 416 416>
VStem: 53 379
Fore
236 -7 m 1
 236 -7 196 154 156 251 c 0
 128 322 99 361 53 421 c 1
 73 586 l 1
 77 580 129 524 154 465 c 0
 193 368 239 217 239 217 c 1
 239 218 281 351 313 431 c 0
 342 502 387 551 416 586 c 1
 432 436 l 1
 388 377 358 337 328 269 c 0
 281 167 236 -7 236 -7 c 1
EndSplineSet
EndChar
StartChar: eight
Encoding: 56 56 177
Width: 480
Flags: W
Fore
250 591 m 1
 250 591 290 430 330 333 c 0
 358 262 387 223 433 163 c 1
 413 -2 l 1
 409 4 357 60 332 119 c 0
 293 216 247 367 247 367 c 1
 247 366 205 233 173 153 c 0
 144 82 99 33 70 -2 c 1
 54 148 l 1
 98 207 128 247 158 315 c 0
 205 417 250 591 250 591 c 1
EndSplineSet
EndChar
StartChar: nine
Encoding: 57 57 178
Width: 480
Flags: MW
HStem: 0 20 460 120<190 217>
VStem: 92 307
Fore
322 302 m 0
 347 200 399 136 399 136 c 1
 372 0 l 1
 328 74 314 77 281 203 c 0
 265 265 261 281 261 281 c 1
 261 281 240 258 192 258 c 0
 182 258 170 259 158 262 c 0
 108 272 92 313 92 361 c 0
 92 391 99 424 107 453 c 0
 125 514 159 580 221 580 c 1
 292 575 295 418 322 302 c 0
147 403 m 0
 147 383 182 369 211 368 c 0
 222 368 233 370 239 377 c 1
 239 377 239 460 195 460 c 0
 170 460 147 414 147 403 c 0
EndSplineSet
EndChar
StartChar: colon
Encoding: 58 58 179
Width: 321
Flags: MW
HStem: -1 101<150 170.5> 210 101<150 170.5>
VStem: 108 103<39 59.5 250.5 271>
Fore
160 100 m 0
 181 100 211 70 211 49 c 0
 211 29 181 -1 160 -1 c 0
 140 -1 108 29 108 49 c 0
 108 70 140 100 160 100 c 0
160 311 m 0
 181 311 211 281 211 261 c 0
 211 240 181 210 160 210 c 0
 140 210 108 240 108 261 c 0
 108 281 140 311 160 311 c 0
EndSplineSet
EndChar
StartChar: semicolon
Encoding: 59 59 180
Width: 324
Flags: MW
HStem: -1 100<153 173.5> 387 20<191 191>
VStem: 112 102<37.5 58.5>
Fore
163 99 m 0
 184 99 214 69 214 48 c 0
 214 27 184 -1 163 -1 c 0
 143 -1 112 27 112 48 c 0
 112 69 143 99 163 99 c 0
140 217 m 1
 121 248 121 243 121 291 c 0
 122 332 145 383 191 407 c 1
 202 401 l 1
 191 384 184 368 180 348 c 0
 178 329 178 313 178 294 c 1
 200 283 l 1
 224 248 l 1
 195 209 l 1
 193 209 187 192 173 192 c 0
 165 192 154 198 140 217 c 1
EndSplineSet
EndChar
StartChar: less
Encoding: 60 60 181
Width: 376
Flags: MW
HStem: 416 20<69 102 102 102>
VStem: 69 238
Fore
307 230 m 1
 102 25 l 1
 69 25 l 1
 274 230 l 1
 69 436 l 1
 102 436 l 1
 307 230 l 1
EndSplineSet
EndChar
StartChar: equal
Encoding: 61 61 182
Width: 480
Flags: MW
HStem: 139 49<32 460> 273 49<32 460>
VStem: 32 428<139 188 273 322>
Fore
460 322 m 1
 460 273 l 1
 32 273 l 1
 32 322 l 1
 460 322 l 1
460 188 m 1
 460 139 l 1
 32 139 l 1
 32 188 l 1
 460 188 l 1
EndSplineSet
EndChar
StartChar: greater
Encoding: 62 62 183
Width: 376
Flags: W
Fore
69 230 m 1
 274 25 l 1
 307 25 l 1
 102 230 l 1
 307 436 l 1
 274 436 l 1
 69 230 l 1
EndSplineSet
EndChar
StartChar: question
Encoding: 63 63 184
Width: 391
Flags: MW
HStem: -1 100<164 184.5> 463 20<149.5 180.5>
VStem: 71 54<357 379.5>
Fore
174 99 m 0
 195 99 225 69 225 48 c 0
 225 27 195 -1 174 -1 c 0
 154 -1 123 27 123 48 c 0
 123 69 154 99 174 99 c 0
159 160 m 1
 159 160 181 171 181 202 c 0
 181 209 180 218 176 229 c 0
 166 257 71 313 71 390 c 0
 71 409 77 431 93 453 c 0
 108 476 136 483 163 483 c 0
 198 483 235 471 250 460 c 1
 224 392 l 1
 224 392 191 414 162 414 c 1
 139 409 125 391 125 368 c 0
 125 346 137 320 167 296 c 0
 203 267 213 237 213 210 c 0
 213 171 191 141 191 141 c 1
 159 160 l 1
EndSplineSet
EndChar
StartChar: at
Encoding: 64 64 198
Width: 431
Flags: MW
HStem: -361 88<328 339> 182 99<326.5 361> 283 20<96.5 168.5>
VStem: 8 39<-137 -76.5>
Fore
30 165 m 1
 30 180 34 303 159 303 c 0
 178 303 199 300 224 294 c 0
 259 284 303 281 339 281 c 0
 383 281 417 285 417 285 c 1
 373 182 l 1
 280 182 78 158 51 -37 c 0
 48 -53 47 -69 47 -84 c 0
 47 -262 219 -273 328 -273 c 0
 343 -273 355 -273 368 -273 c 2
 488 -273 l 1
 488 -288 l 1
 339 -361 l 2
 337 -361 326 -361 310 -361 c 0
 239 -361 55 -350 25 -236 c 0
 14 -195 8 -155 8 -119 c 0
 8 82 154 195 159 198 c 1
 144 210 126 217 108 217 c 0
 102 217 96 215 89 214 c 0
 62 209 30 165 30 165 c 1
EndSplineSet
EndChar
StartChar: A
Encoding: 65 65 192
Width: 195
Flags: MW
HStem: 0 20 585 20<173 173>
VStem: 123 57
Fore
117 529 m 1
 173 605 l 1
 174 431 l 1
 174 384 180 299 180 213 c 0
 180 191 180 169 178 147 c 1
 174 21 130 0 130 0 c 1
 130 0 130 99 123 280 c 0
 118 402 117 529 117 529 c 1
EndSplineSet
EndChar
StartChar: B
Encoding: 66 66 193
Width: 621
Flags: MW
HStem: -215 20 -10 90<239 274> 300 20<564 564>
VStem: 8 605
Fore
214 -158 m 1
 272 -100 l 1
 329 -158 l 1
 272 -215 l 1
 214 -158 l 1
74 266 m 1
 74 252 52 217 52 184 c 0
 52 177 53 170 56 163 c 0
 85 95 204 80 274 80 c 0
 466 82 557 133 573 141 c 1
 573 147 565 173 557 187 c 0
 550 199 540 209 529 217 c 1
 564 320 l 1
 568 313 613 274 613 204 c 0
 613 171 604 132 575 85 c 0
 543 34 373 -10 233 -10 c 0
 156 -10 89 3 56 34 c 1
 21 69 8 106 8 140 c 0
 8 209 59 266 74 266 c 1
EndSplineSet
EndChar
StartChar: C
Encoding: 67 67 206
Width: 833
Flags: MW
HStem: -225 99<130 203.5> 214 85
VStem: 10 39<-47.5 -38>
Fore
443 96 m 1
 443 96 632 299 746 299 c 0
 754 299 763 299 770 296 c 0
 809 284 829 255 829 222 c 0
 829 159 764 75 663 33 c 1
 564 -4 388 -4 388 -4 c 1
 388 -18 364 -225 160 -225 c 0
 44 -225 10 -154 10 -80 c 0
 10 4 52 91 69 91 c 1
 69 77 49 27 49 -21 c 0
 49 -74 75 -126 185 -126 c 0
 222 -126 314 -117 353 -59 c 1
 353 -29 351 -10 343 19 c 0
 336 47 325 66 310 89 c 1
 337 165 l 1
 337 160 357 141 369 117 c 0
 373 110 387 96 443 96 c 1
479 96 m 1
 479 96 502 95 535 95 c 0
 604 95 719 103 763 158 c 1
 763 180 726 210 664 214 c 1
 619 214 481 107 479 96 c 1
EndSplineSet
EndChar
StartChar: D
Encoding: 68 68 200
Width: 344
Flags: MW
HStem: -21 101<190 208> 326 20<187 187>
VStem: 177 154
Fore
331 106 m 1
 325 34 283 -21 203 -21 c 0
 177 -21 147 -15 114 -3 c 1
 111 -3 111 11 111 27 c 0
 111 55 114 92 119 104 c 1
 126 96 132 88 141 85 c 0
 152 81 165 80 180 80 c 0
 236 80 310 100 310 107 c 0
 310 134 267 217 181 222 c 0
 178 222 177 244 177 269 c 0
 177 298 178 331 181 337 c 1
 187 346 l 1
 221 342 331 270 331 106 c 1
EndSplineSet
EndChar
StartChar: E
Encoding: 69 69 201
Width: 344
Flags: MW
HStem: -21 101<190 208> 531 20<214 214>
VStem: 177 154
Fore
156 494 m 1
 214 551 l 1
 272 494 l 1
 214 442 l 1
 156 494 l 1
331 106 m 1
 325 34 283 -21 203 -21 c 0
 177 -21 147 -15 114 -3 c 1
 111 -3 111 11 111 27 c 0
 111 55 114 92 119 104 c 1
 126 96 132 88 141 85 c 0
 152 81 165 80 180 80 c 0
 236 80 310 100 310 107 c 0
 310 134 267 217 181 222 c 0
 178 222 177 244 177 269 c 0
 177 298 178 331 181 337 c 1
 187 346 l 1
 221 342 331 270 331 106 c 1
EndSplineSet
EndChar
StartChar: F
Encoding: 70 70 218
Width: 621
Flags: MW
HStem: -10 90<239 274> 519 20<519 519>
VStem: 466 150<214.5 257.5>
Fore
498 255 m 1
 502 243 517 235 532 235 c 0
 546 235 560 241 564 257 c 1
 564 276 542 295 531 296 c 0
 516 296 498 265 498 255 c 1
56 34 m 1
 21 69 8 106 8 140 c 0
 8 209 59 266 74 266 c 1
 74 252 52 217 52 184 c 0
 52 177 53 170 56 163 c 0
 85 95 204 80 274 80 c 0
 466 82 569 140 584 148 c 1
 586 177 l 1
 580 202 l 1
 580 202 554 174 527 174 c 0
 483 176 466 199 466 230 c 0
 466 285 514 359 545 366 c 1
 576 366 616 306 616 226 c 0
 616 182 605 134 575 85 c 0
 543 34 373 -10 232 -10 c 0
 156 -10 89 3 56 34 c 1
461 481 m 1
 519 539 l 1
 576 481 l 1
 519 424 l 1
 461 481 l 1
EndSplineSet
EndChar
StartChar: G
Encoding: 71 71 211
Width: 409
Flags: MW
HStem: -398 96<266 285> 507 20<122 122>
VStem: 29 37
Fore
64 469 m 1
 122 527 l 1
 180 469 l 1
 122 412 l 1
 64 469 l 1
224 274 m 1
 165 274 139 269 107 254 c 0
 78 240 58 224 38 199 c 1
 48 178 60 165 78 151 c 0
 110 126 139 118 180 118 c 1
 321 222 l 1
 316 137 l 1
 163 23 l 2
 100 -23 66 -106 66 -160 c 0
 67 -283 185 -302 266 -302 c 2
 519 -302 l 1
 519 -311 l 1
 320 -395 l 1
 309 -396 294 -398 276 -398 c 0
 185 -398 29 -368 29 -162 c 1
 32 -77 85 22 95 33 c 1
 95 33 27 73 15 104 c 0
 12 110 11 123 11 140 c 0
 11 203 32 322 112 322 c 0
 144 321 195 310 224 274 c 1
EndSplineSet
EndChar
StartChar: H
Encoding: 72 72 224
Width: 233
Flags: MW
HStem: -1 87<112 133> 296 20
VStem: 49 172
Fore
84 207 m 1
 84 207 84 252 85 263 c 0
 89 281 102 309 106 316 c 1
 108 306 111 295 117 287 c 0
 133 263 221 243 221 147 c 0
 221 139 219 130 218 121 c 0
 210 59 160 -1 112 -1 c 0
 63 1 49 34 49 74 c 0
 49 133 84 207 84 207 c 1
108 193 m 1
 92 187 81 162 81 136 c 0
 81 123 84 112 89 102 c 0
 95 91 106 86 118 86 c 0
 148 86 189 111 189 126 c 0
 189 133 128 193 108 193 c 1
EndSplineSet
EndChar
StartChar: I
Encoding: 73 73 227
Width: 513
Flags: MW
HStem: -192 99<192 245> 232 92<439 448>
VStem: 10 42<-1.5 19>
Fore
193 -247 m 1
 281 -335 l 1
 325 -291 l 1
 281 -247 l 1
 193 -335 l 1
 150 -291 l 1
 193 -247 l 1
468 209 m 1
 461 218 454 232 442 232 c 0
 395 232 310 148 310 123 c 1
 318 70 460 110 483 41 c 0
 486 34 487 27 487 19 c 0
 487 -71 317 -192 173 -192 c 1
 49 -187 12 -107 10 -14 c 0
 10 52 59 147 71 147 c 1
 71 133 52 81 52 29 c 0
 52 -32 78 -92 192 -93 c 0
 302 -93 439 -18 439 -3 c 1
 436 22 285 -18 277 66 c 1
 277 181 403 324 475 324 c 1
 494 320 501 307 501 294 c 0
 501 283 497 270 492 261 c 1
 468 209 l 1
EndSplineSet
EndChar
StartChar: J
Encoding: 74 74 197
Width: 431
Flags: MW
HStem: -361 88<328 339> 182 99<326.5 361> 283 20<96.5 168.5>
VStem: 8 39<-137 -76.5>
Fore
182 -62 m 1
 240 -4 l 1
 298 -62 l 1
 240 -119 l 1
 182 -62 l 1
30 165 m 1
 30 180 34 303 159 303 c 0
 178 303 199 300 224 294 c 0
 259 284 303 281 339 281 c 0
 383 281 417 285 417 285 c 1
 373 182 l 1
 280 182 78 158 51 -37 c 0
 48 -53 47 -69 47 -84 c 0
 47 -262 219 -273 328 -273 c 0
 343 -273 355 -273 368 -273 c 2
 488 -273 l 1
 488 -288 l 1
 339 -361 l 2
 337 -361 326 -361 310 -361 c 0
 239 -361 55 -350 25 -236 c 0
 14 -195 8 -155 8 -119 c 0
 8 82 154 195 159 198 c 1
 144 210 126 217 108 217 c 0
 102 217 96 215 89 214 c 0
 62 209 30 165 30 165 c 1
EndSplineSet
EndChar
StartChar: K
Encoding: 75 75 220
Width: 521
Flags: MW
HStem: -23 92<173 238.5> 567 20<488 488>
VStem: 8 47 447 47
Fore
300 390 m 1
 309 383 321 369 321 358 c 0
 321 355 320 353 318 351 c 2
 291 324 l 1
 287 331 276 335 267 336 c 0
 261 336 241 311 241 296 c 0
 243 272 307 278 313 257 c 0
 314 251 316 244 316 239 c 0
 316 213 302 182 270 171 c 0
 259 167 250 166 240 166 c 0
 219 166 202 176 187 202 c 1
 187 198 202 195 221 195 c 0
 248 195 281 202 291 224 c 1
 291 237 232 225 209 248 c 0
 207 250 206 252 206 255 c 0
 206 285 269 390 300 390 c 1
483 126 m 1
 475 93 310 -23 167 -23 c 0
 129 -23 91 -15 59 7 c 0
 22 33 8 69 8 106 c 0
 8 182 64 259 71 259 c 1
 71 246 55 195 55 154 c 0
 55 136 58 119 69 110 c 0
 102 81 148 69 198 69 c 0
 313 69 444 129 447 159 c 1
 439 519 l 1
 488 587 l 1
 494 214 l 1
 494 162 483 126 483 126 c 1
EndSplineSet
EndChar
StartChar: L
Encoding: 76 76 221
Width: 357
Flags: MW
HStem: -10 106<143.5 145> 717 20<292 292>
VStem: 11 37
Fore
280 734 m 1
 292 737 l 1
 292 700 292 686 296 678 c 0
 306 660 322 649 343 647 c 1
 328 561 l 1
 313 561 l 1
 340 331 l 1
 342 321 344 292 344 257 c 0
 344 156 318 -4 145 -10 c 1
 40 -10 11 56 11 126 c 0
 11 199 44 277 59 284 c 1
 59 269 48 226 48 188 c 0
 48 167 52 148 63 134 c 1
 88 107 125 96 162 96 c 0
 225 96 291 126 303 158 c 1
 272 595 l 1
 244 628 l 1
 280 734 l 1
EndSplineSet
EndChar
StartChar: M
Encoding: 77 77 222
Width: 288
Flags: MW
HStem: 7 178<128 152>
VStem: 7 267
Fore
228 0 m 1
 228 0 170 7 134 7 c 0
 99 7 74 4 40 0 c 1
 55 -354 l 1
 36 -405 l 1
 7 -69 l 1
 7 -44 19 4 45 29 c 0
 81 63 119 67 156 67 c 1
 147 88 128 102 104 104 c 0
 85 104 70 102 55 91 c 1
 58 136 99 180 128 185 c 1
 195 185 274 100 274 100 c 1
 228 0 l 1
EndSplineSet
EndChar
StartChar: N
Encoding: 78 78 223
Width: 376
Flags: MW
HStem: -165 95<156 188.5> 364 20<155 155>
VStem: 8 40<1 9>
Fore
156 -165 m 1
 41 -163 8 -97 8 -29 c 0
 8 47 48 123 64 123 c 1
 64 110 48 66 48 25 c 0
 48 -23 71 -70 170 -70 c 0
 207 -70 303 -38 325 4 c 1
 325 36 320 55 307 84 c 0
 296 110 284 128 263 147 c 1
 298 246 l 1
 299 243 362 159 362 33 c 1
 357 -55 276 -165 156 -165 c 1
97 326 m 1
 155 384 l 1
 213 326 l 1
 155 269 l 1
 97 326 l 1
EndSplineSet
EndChar
StartChar: O
Encoding: 79 79 210
Width: 409
Flags: MW
HStem: -398 96<266 285> 302 20<72 112>
VStem: 29 37
Fore
224 274 m 1
 165 274 139 269 107 254 c 0
 78 240 58 224 38 199 c 1
 48 178 60 165 78 151 c 0
 110 126 139 118 180 118 c 1
 321 222 l 1
 316 137 l 1
 163 23 l 2
 100 -23 66 -106 66 -160 c 0
 67 -283 185 -302 266 -302 c 2
 519 -302 l 1
 519 -311 l 1
 320 -395 l 1
 309 -396 294 -398 276 -398 c 0
 185 -398 29 -368 29 -162 c 1
 32 -77 85 22 95 33 c 1
 95 33 27 73 15 104 c 0
 12 110 11 123 11 140 c 0
 11 203 32 322 112 322 c 0
 144 321 195 310 224 274 c 1
EndSplineSet
EndChar
StartChar: P
Encoding: 80 80 209
Width: 591
Flags: MW
HStem: -7 93<249 259> 200 92 614 20<263 267>
VStem: 230 40<177 453> 506 72
Fore
351 412 m 1
 409 469 l 1
 466 412 l 1
 409 354 l 1
 351 412 l 1
429 200 m 1
 331 200 235 102 232 92 c 0
 232 88 241 86 257 86 c 0
 325 86 506 115 506 158 c 1
 499 189 462 198 429 200 c 1
259 -7 m 0
 232 -7 209 -7 189 -7 c 0
 139 -7 104 -3 59 29 c 0
 30 48 12 67 -5 96 c 1
 163 84 l 1
 230 150 l 1
 230 490 l 1
 218 499 206 512 204 528 c 1
 204 550 259 634 267 634 c 1
 267 624 265 609 265 595 c 0
 265 586 266 576 272 569 c 0
 281 557 296 542 314 539 c 1
 283 453 l 1
 270 453 l 1
 270 177 l 1
 270 177 425 292 480 292 c 0
 527 292 573 248 578 217 c 1
 578 137 450 -1 259 -7 c 0
EndSplineSet
EndChar
StartChar: Q
Encoding: 81 81 219
Width: 453
Flags: MW
HStem: -169 98<132 191> 455 20<261 261 362 362>
VStem: 12 33 267 164
Fore
261 475 m 1
 362 373 l 1
 413 424 l 1
 362 475 l 1
 261 373 l 1
 210 424 l 1
 261 475 l 1
335 181 m 1
 324 181 298 160 298 143 c 0
 298 140 299 137 300 134 c 0
 307 123 321 119 335 119 c 0
 354 119 372 126 373 130 c 0
 373 139 357 178 335 181 c 1
431 58 m 1
 428 -85 263 -169 178 -169 c 0
 80 -169 12 -110 12 8 c 1
 19 100 51 156 66 156 c 1
 66 143 45 92 45 43 c 0
 45 -15 73 -71 191 -71 c 0
 302 -70 401 -11 401 22 c 2
 401 53 l 1
 395 51 376 45 353 45 c 0
 333 45 313 49 292 62 c 0
 274 73 267 92 267 115 c 0
 267 170 311 241 346 243 c 1
 403 239 431 136 431 58 c 1
EndSplineSet
EndChar
StartChar: R
Encoding: 82 82 202
Width: 317
Flags: MW
VStem: 273 32<42.5 44>
Fore
-27 -137 m 1
 45 -137 125 -123 181 -78 c 0
 228 -40 273 8 273 44 c 0
 272 73 214 121 213 121 c 1
 235 207 l 1
 236 207 303 165 305 80 c 0
 305 5 244 -178 132 -184 c 1
 52 -184 -11 -150 -27 -137 c 1
EndSplineSet
EndChar
StartChar: S
Encoding: 83 83 204
Width: 712
Flags: MW
HStem: -225 99<130 203.5> 1 107 205 20<689 689>
VStem: 10 39<-47.5 -38>
Fore
390 14 m 1
 390 0 l 2
 390 -71 346 -225 160 -225 c 0
 44 -225 10 -154 10 -80 c 0
 10 4 52 91 69 91 c 1
 69 77 49 27 49 -21 c 0
 49 -74 75 -126 185 -126 c 0
 222 -126 314 -117 353 -59 c 1
 353 -29 351 -10 343 19 c 0
 336 47 325 66 310 89 c 1
 354 167 l 1
 377 123 l 1
 384 118 401 93 455 93 c 0
 551 95 564 195 583 195 c 0
 584 195 586 188 586 181 c 0
 584 167 580 147 579 136 c 0
 579 128 613 108 669 108 c 0
 671 108 672 112 672 117 c 0
 672 132 665 159 658 165 c 1
 689 225 l 1
 697 219 701 198 701 170 c 0
 701 125 689 62 663 29 c 0
 653 16 642 12 631 12 c 0
 601 12 569 49 553 49 c 0
 551 49 549 48 547 47 c 1
 514 11 480 1 453 1 c 0
 420 1 394 14 390 14 c 1
EndSplineSet
EndChar
StartChar: T
Encoding: 84 84 195
Width: 621
Flags: MW
HStem: -10 90<239 274> 389 20<262 262 364 364>
VStem: 8 605
Fore
262 409 m 1
 364 307 l 1
 416 358 l 1
 364 409 l 1
 262 307 l 1
 210 358 l 1
 262 409 l 1
74 266 m 1
 74 252 52 217 52 184 c 0
 52 177 53 170 56 163 c 0
 85 95 204 80 274 80 c 0
 466 82 557 133 573 141 c 1
 573 147 565 173 557 187 c 0
 550 199 540 209 529 217 c 1
 564 320 l 1
 568 313 613 274 613 204 c 0
 613 171 604 132 575 85 c 0
 543 34 373 -10 233 -10 c 0
 156 -10 89 3 56 34 c 1
 21 69 8 106 8 140 c 0
 8 209 59 266 74 266 c 1
EndSplineSet
EndChar
StartChar: U
Encoding: 85 85 225
Width: 329
Flags: MW
HStem: 221 20<234 250>
VStem: 171 146<94.5 136>
Fore
-25 -115 m 1
 -25 -115 -11 -117 8 -117 c 0
 52 -117 128 -111 184 -75 c 0
 258 -27 285 26 294 43 c 1
 285 92 l 1
 277 81 250 48 218 48 c 0
 213 48 206 49 200 52 c 0
 180 62 171 82 171 107 c 0
 171 165 218 241 250 241 c 1
 292 233 317 174 317 103 c 0
 317 23 287 -70 219 -126 c 0
 193 -147 158 -155 122 -155 c 0
 64 -155 4 -136 -25 -115 c 1
228 169 m 1
 218 169 203 123 203 119 c 1
 213 108 224 104 232 104 c 0
 250 104 263 119 263 119 c 1
 263 137 252 165 228 169 c 1
EndSplineSet
EndChar
StartChar: V
Encoding: 86 86 196
Width: 621
Flags: MW
HStem: -10 90<239 274> 459 20<285 285>
VStem: 8 605
Fore
235 428 m 1
 285 479 l 1
 336 428 l 1
 285 377 l 1
 235 428 l 1
181 326 m 1
 232 377 l 1
 283 326 l 1
 232 276 l 1
 181 326 l 1
306 329 m 1
 357 380 l 1
 407 329 l 1
 357 278 l 1
 306 329 l 1
74 266 m 1
 74 252 52 217 52 184 c 0
 52 177 53 170 56 163 c 0
 85 95 204 80 274 80 c 0
 466 82 557 133 573 141 c 1
 573 147 565 173 557 187 c 0
 550 199 540 209 529 217 c 1
 564 320 l 1
 568 313 613 274 613 204 c 0
 613 171 604 132 575 85 c 0
 543 34 373 -10 233 -10 c 0
 156 -10 89 3 56 34 c 1
 21 69 8 106 8 140 c 0
 8 209 59 266 74 266 c 1
EndSplineSet
EndChar
StartChar: W
Encoding: 87 87 205
Width: 712
Flags: MW
HStem: -225 99<130 203.5> 1 107 478 20<547 547>
VStem: 10 39<-47.5 -38>
Fore
494 392 m 1
 595 291 l 1
 646 342 l 1
 595 392 l 1
 494 291 l 1
 443 342 l 1
 494 392 l 1
497 447 m 1
 547 498 l 1
 598 447 l 1
 547 396 l 1
 497 447 l 1
390 14 m 1
 390 0 l 2
 390 -71 346 -225 160 -225 c 0
 44 -225 10 -154 10 -80 c 0
 10 4 52 91 69 91 c 1
 69 77 49 27 49 -21 c 0
 49 -74 75 -126 185 -126 c 0
 222 -126 314 -117 353 -59 c 1
 353 -29 351 -10 343 19 c 0
 336 47 325 66 310 89 c 1
 354 167 l 1
 377 123 l 1
 384 118 401 93 455 93 c 0
 551 95 564 195 583 195 c 0
 584 195 586 188 586 181 c 0
 584 167 580 147 579 136 c 0
 579 128 613 108 669 108 c 0
 671 108 672 112 672 117 c 0
 672 132 665 159 658 165 c 1
 689 225 l 1
 697 219 701 198 701 170 c 0
 701 125 689 62 663 29 c 0
 653 16 642 12 631 12 c 0
 601 12 569 49 553 49 c 0
 551 49 549 48 547 47 c 1
 514 11 480 1 453 1 c 0
 420 1 394 14 390 14 c 1
EndSplineSet
EndChar
StartChar: X
Encoding: 88 88 199
Width: 431
Flags: MW
HStem: -361 88<328 339> 182 99<326.5 361> 522 20<154 154>
VStem: 8 39<-137 -76.5>
Fore
96 484 m 1
 154 542 l 1
 211 484 l 1
 154 427 l 1
 96 484 l 1
30 165 m 1
 30 180 34 303 159 303 c 0
 178 303 199 300 224 294 c 0
 259 284 303 281 339 281 c 0
 383 281 417 285 417 285 c 1
 373 182 l 1
 280 182 78 158 51 -37 c 0
 48 -53 47 -69 47 -84 c 0
 47 -262 219 -273 328 -273 c 0
 343 -273 355 -273 368 -273 c 2
 488 -273 l 1
 488 -288 l 1
 339 -361 l 2
 337 -361 326 -361 310 -361 c 0
 239 -361 55 -350 25 -236 c 0
 14 -195 8 -155 8 -119 c 0
 8 82 154 195 159 198 c 1
 144 210 126 217 108 217 c 0
 102 217 96 215 89 214 c 0
 62 209 30 165 30 165 c 1
EndSplineSet
EndChar
StartChar: Y
Encoding: 89 89 208
Width: 591
Flags: MW
HStem: -7 93<249 259> 200 92 614 20<263 267>
VStem: 230 40<177 453> 506 72
Fore
429 200 m 1
 331 200 235 102 232 92 c 0
 232 88 241 86 257 86 c 0
 325 86 506 115 506 158 c 1
 499 189 462 198 429 200 c 1
259 -7 m 0
 232 -7 209 -7 189 -7 c 0
 139 -7 104 -3 59 29 c 0
 30 48 12 67 -5 96 c 1
 163 84 l 1
 230 150 l 1
 230 490 l 1
 218 499 206 512 204 528 c 1
 204 550 259 634 267 634 c 1
 267 624 265 609 265 595 c 0
 265 586 266 576 272 569 c 0
 281 557 296 542 314 539 c 1
 283 453 l 1
 270 453 l 1
 270 177 l 1
 270 177 425 292 480 292 c 0
 527 292 573 248 578 217 c 1
 578 137 450 -1 259 -7 c 0
EndSplineSet
EndChar
StartChar: Z
Encoding: 90 90 203
Width: 317
Flags: MW
HStem: 418 20<221 221>
VStem: 273 32<42.5 44>
Fore
163 380 m 1
 221 438 l 1
 278 380 l 1
 221 322 l 1
 163 380 l 1
-27 -137 m 1
 45 -137 125 -123 181 -78 c 0
 228 -40 273 8 273 44 c 0
 272 73 214 121 213 121 c 1
 235 207 l 1
 236 207 303 165 305 80 c 0
 305 5 244 -178 132 -184 c 1
 52 -184 -11 -150 -27 -137 c 1
EndSplineSet
EndChar
StartChar: bracketleft
Encoding: 91 91 212
Width: 412
Flags: W
Fore
144 -30 m 1
 136 7 l 1
 225 21 l 1
 225 542 l 1
 136 556 l 1
 144 593 l 1
 273 574 l 1
 273 -10 l 1
 144 -30 l 1
EndSplineSet
EndChar
StartChar: backslash
Encoding: 92 92 213
Width: 472
Flags: W
Fore
125 576 m 1
 78 557 l 1
 358 -115 l 1
 404 -97 l 1
 125 576 l 1
EndSplineSet
EndChar
StartChar: bracketright
Encoding: 93 93 214
Width: 379
Flags: MW
HStem: 573 20
VStem: 137 48<21 542>
Fore
266 593 m 1
 274 556 l 1
 185 542 l 1
 185 21 l 1
 274 7 l 1
 266 -30 l 1
 137 -11 l 1
 137 573 l 1
 266 593 l 1
EndSplineSet
EndChar
StartChar: asciicircum
Encoding: 94 94 215
Width: 473
Flags: MW
HStem: 466 20 573 20<229 243 243 243>
VStem: 106 259<491 491>
Fore
106 491 m 1
 229 593 l 1
 243 593 l 1
 365 491 l 1
 346 466 l 1
 236 554 l 1
 125 466 l 1
 106 491 l 1
EndSplineSet
EndChar
StartChar: underscore
Encoding: 95 95 216
Width: 801
Flags: MW
HStem: -97 46<27 779>
VStem: 27 752<-97 -51>
Fore
27 -97 m 1
 27 -51 l 1
 779 -51 l 1
 779 -97 l 1
 27 -97 l 1
EndSplineSet
EndChar
StartChar: quoteleft
Encoding: 96 8216 59
Width: 1
Flags: MW
HStem: 560 20
VStem: -7 176
Fore
169 754 m 1
 169 717 l 1
 5 632 l 1
 5 669 l 1
 169 754 l 1
5 597 m 1
 169 682 l 1
 169 645 l 1
 5 560 l 1
 5 597 l 1
125 768 m 0
 106 768 102 772 95 772 c 0
 91 772 86 772 78 768 c 0
 63 761 70 735 37 727 c 1
 -4 727 -7 774 -7 812 c 1
 21 826 l 1
 21 801 23 786 44 786 c 0
 63 786 63 849 63 849 c 1
 92 863 l 1
 92 861 92 820 111 820 c 0
 126 820 130 852 130 883 c 1
 156 897 l 1
 156 897 159 878 159 853 c 0
 159 818 154 770 125 768 c 0
EndSplineSet
EndChar
StartChar: a
Encoding: 97 97 82
Width: 285
Flags: MW
HStem: 0 100<244 300> 566 20<155 155>
VStem: 115 40
Fore
155 310 m 2
 155 248 171 166 188 137 c 0
 196 121 224 100 244 100 c 2
 300 100 l 1
 300 0 l 1
 235 0 l 2
 221 0 180 14 163 41 c 0
 137 86 117 144 115 267 c 1
 110 536 l 1
 155 586 l 1
 155 310 l 2
EndSplineSet
EndChar
StartChar: b
Encoding: 98 98 22
Width: 236
Flags: MW
HStem: 0 100<-21 30 204 250>
VStem: -21 271<0 100>
Fore
56 -110 m 1
 114 -52 l 1
 171 -110 l 1
 114 -167 l 1
 56 -110 l 1
-21 100 m 1
 41 100 l 2
 56 100 67 102 81 106 c 0
 111 117 115 181 139 181 c 1
 139 173 139 163 139 152 c 0
 139 141 140 130 145 122 c 0
 156 104 181 100 204 100 c 2
 250 100 l 1
 250 0 l 1
 193 0 l 2
 173 0 155 15 137 30 c 0
 125 40 118 49 110 63 c 1
 104 51 93 36 80 25 c 0
 64 12 51 0 30 0 c 2
 -21 0 l 1
 -21 100 l 1
EndSplineSet
EndChar
StartChar: c
Encoding: 99 99 63
Width: 657
Flags: MW
HStem: 0 100<-21 12 623 669> 196 87
VStem: -21 690<0 100>
Fore
455 196 m 1
 359 192 240 81 240 81 c 1
 240 80 255 78 278 78 c 0
 351 78 506 91 547 148 c 1
 547 169 492 196 455 196 c 1
-21 100 m 1
 25 100 l 2
 40 100 56 100 66 107 c 0
 82 118 96 150 96 150 c 1
 97 143 110 119 122 108 c 0
 144 88 167 81 199 81 c 1
 199 82 407 277 538 283 c 1
 572 283 609 237 612 209 c 1
 612 144 536 80 536 80 c 1
 536 80 561 88 568 89 c 0
 580 93 609 100 623 100 c 2
 669 100 l 1
 669 0 l 1
 440 0 l 2
 358 0 270 -5 229 -5 c 0
 121 -5 91 55 88 56 c 1
 78 38 66 25 49 15 c 0
 37 8 27 0 12 0 c 2
 -21 0 l 1
 -21 100 l 1
EndSplineSet
EndChar
StartChar: d
Encoding: 100 100 95
Width: 396
Flags: MW
HStem: -5 105 394 20<266 266>
VStem: 55 357<25 100>
Fore
285 108 m 1
 278 77 233 -4 151 -5 c 0
 112 -5 55 -5 55 25 c 2
 55 133 l 1
 59 125 66 117 74 110 c 0
 89 96 107 91 125 91 c 0
 148 91 174 100 202 107 c 0
 232 114 251 125 276 143 c 1
 241 335 l 1
 266 414 l 1
 321 177 l 1
 322 167 326 148 340 122 c 0
 347 108 362 100 379 100 c 2
 412 100 l 1
 412 0 l 1
 361 0 l 2
 351 0 333 12 325 25 c 0
 303 56 285 108 285 108 c 1
EndSplineSet
EndChar
StartChar: e
Encoding: 101 101 96
Width: 396
Flags: MW
HStem: -5 105 568 20<252 252>
VStem: 55 357<25 100>
Fore
195 531 m 1
 252 588 l 1
 310 531 l 1
 252 473 l 1
 195 531 l 1
285 108 m 1
 278 77 233 -4 151 -5 c 0
 112 -5 55 -5 55 25 c 2
 55 133 l 1
 59 125 66 117 74 110 c 0
 89 96 107 91 125 91 c 0
 148 91 174 100 202 107 c 0
 232 114 251 125 276 143 c 1
 241 335 l 1
 266 414 l 1
 321 177 l 1
 322 167 326 148 340 122 c 0
 347 108 362 100 379 100 c 2
 412 100 l 1
 412 0 l 1
 361 0 l 2
 351 0 333 12 325 25 c 0
 303 56 285 108 285 108 c 1
EndSplineSet
EndChar
StartChar: f
Encoding: 102 102 69
Width: 303
Flags: MW
HStem: 0 100<-21 23 239 248 248 316> 515 20<163 163>
VStem: -21 337<0 100>
Fore
106 477 m 1
 163 535 l 1
 221 477 l 1
 163 420 l 1
 106 477 l 1
-21 100 m 1
 33 100 l 2
 44 100 52 100 62 102 c 0
 84 106 78 106 86 107 c 1
 85 115 77 122 77 148 c 0
 77 163 78 185 88 218 c 0
 99 254 145 332 192 332 c 1
 228 325 241 281 241 236 c 0
 241 213 239 189 232 170 c 0
 224 143 217 126 203 106 c 1
 209 104 215 102 222 102 c 0
 228 102 233 100 239 100 c 2
 316 100 l 1
 316 0 l 1
 248 0 l 2
 224 0 207 11 185 21 c 1
 167 27 160 33 140 45 c 1
 114 33 111 30 95 25 c 0
 69 15 40 0 23 0 c 2
 -21 0 l 1
 -21 100 l 1
219 178 m 1
 219 211 202 222 192 225 c 1
 160 225 125 185 123 169 c 1
 123 152 165 129 166 129 c 0
 167 129 211 145 219 178 c 1
EndSplineSet
EndChar
StartChar: g
Encoding: 103 103 68
Width: 381
Flags: MW
HStem: 0 100<-21 27> 485 20<198 198>
VStem: -21 413<0 100>
Fore
140 447 m 1
 198 505 l 1
 255 447 l 1
 198 390 l 1
 140 447 l 1
-21 100 m 1
 40 100 l 2
 69 100 163 119 163 136 c 1
 160 152 80 181 80 181 c 1
 84 226 141 287 198 287 c 0
 281 287 314 247 314 199 c 1
 307 148 263 136 262 129 c 0
 262 108 392 100 392 100 c 1
 392 0 l 1
 347 0 l 2
 314 0 292 16 265 32 c 0
 240 45 225 58 206 78 c 1
 193 64 178 51 162 41 c 0
 118 12 63 0 27 0 c 2
 -21 0 l 1
 -21 100 l 1
EndSplineSet
EndChar
StartChar: h
Encoding: 104 104 75
Width: 374
Flags: MW
HStem: 0 100<-21 43 340.5 344 344 388> 322 20<248 255>
VStem: -21 409<0 100>
Fore
145 115 m 1
 145 115 239 140 244 170 c 1
 244 206 235 236 215 236 c 1
 178 217 145 115 145 115 c 1
128 -1 m 1
 128 -3 132 -52 166 -80 c 0
 180 -91 199 -96 214 -96 c 0
 235 -96 248 -88 248 -78 c 1
 229 -7 128 -1 128 -1 c 1
-21 100 m 1
 43 100 l 1
 114 110 l 1
 114 126 199 329 248 342 c 1
 262 342 283 291 283 243 c 0
 283 229 281 215 277 203 c 0
 263 155 226 106 209 93 c 1
 229 93 243 93 262 93 c 0
 292 93 324 100 340 100 c 2
 388 100 l 1
 388 0 l 1
 344 0 l 2
 337 0 320 4 303 5 c 0
 284 8 267 8 258 8 c 1
 262 5 269 -21 269 -55 c 0
 269 -97 258 -151 218 -177 c 0
 213 -181 206 -182 199 -182 c 0
 169 -182 136 -148 111 -93 c 0
 103 -74 89 -14 89 0 c 1
 -21 0 l 1
 -21 100 l 1
EndSplineSet
EndChar
StartChar: i
Encoding: 105 105 76
Width: 302
Flags: MW
HStem: 0 100<-21 63 246 331>
VStem: -21 352<0 100>
Fore
106 -77 m 1
 193 -165 l 1
 237 -121 l 1
 193 -77 l 1
 106 -165 l 1
 62 -121 l 1
 106 -77 l 1
-21 100 m 1
 74 100 l 2
 89 100 100 102 114 106 c 0
 144 115 151 176 176 176 c 1
 176 169 171 158 171 145 c 0
 171 137 173 129 178 122 c 0
 189 104 219 100 246 100 c 2
 331 100 l 1
 331 0 l 1
 235 0 l 2
 214 0 188 15 170 30 c 0
 158 40 150 49 143 63 c 1
 137 51 126 36 112 25 c 0
 97 12 84 0 63 0 c 2
 -21 0 l 1
 -21 100 l 1
EndSplineSet
EndChar
StartChar: j
Encoding: 106 106 25
Width: 512
Flags: MW
HStem: 0 100<-21 21 21 29 425.5 439 439 528> 198 87<128 130.5>
VStem: -21 549<0 100>
Fore
181 -93 m 1
 239 -36 l 1
 296 -93 l 1
 239 -151 l 1
 181 -93 l 1
-21 100 m 1
 21 100 l 2
 49 100 93 108 136 121 c 0
 167 130 188 145 213 165 c 1
 204 171 151 198 110 198 c 0
 82 198 43 170 43 170 c 1
 40 170 38 173 38 176 c 0
 38 195 60 259 97 277 c 0
 110 283 122 285 134 285 c 0
 196 285 259 226 337 226 c 0
 373 226 381 228 431 236 c 1
 416 154 l 1
 361 139 l 2
 359 139 358 137 358 134 c 0
 358 129 364 118 368 115 c 0
 381 102 395 100 418 100 c 2
 528 100 l 1
 528 0 l 1
 439 0 l 2
 412 0 368 22 357 41 c 0
 348 56 335 133 335 133 c 1
 300 123 276 117 243 103 c 0
 144 60 99 0 29 0 c 2
 -21 0 l 1
 -21 100 l 1
EndSplineSet
EndChar
StartChar: k
Encoding: 107 107 71
Width: 501
Flags: MW
HStem: 0 100<-21 41 461 512> 626 20<384 384>
VStem: 181 40<175.5 197>
Fore
-21 100 m 1
 55 100 l 2
 81 100 180 108 181 166 c 0
 181 228 25 273 14 348 c 1
 14 372 15 399 23 429 c 0
 41 494 384 646 384 646 c 1
 368 565 l 1
 354 560 225 491 160 458 c 0
 96 425 81 412 33 381 c 1
 41 377 108 339 154 311 c 0
 269 240 403 100 461 100 c 2
 512 100 l 1
 512 0 l 1
 450 0 l 2
 422 0 385 26 329 86 c 0
 288 130 222 196 221 199 c 1
 221 152 217 93 184 59 c 0
 144 16 78 0 41 0 c 2
 -21 0 l 1
 -21 100 l 1
EndSplineSet
EndChar
StartChar: l
Encoding: 108 108 72
Width: 235
Flags: MW
HStem: 0 100<-21 16 222.5 246> 581 20<111 111>
VStem: -21 267<0 100>
Fore
-21 100 m 1
 18 100 l 2
 29 100 37 103 47 107 c 0
 74 119 81 144 81 173 c 0
 80 195 77 217 77 239 c 1
 59 543 l 1
 111 601 l 1
 133 228 l 1
 133 211 140 148 152 136 c 0
 177 111 199 100 246 100 c 1
 246 0 l 1
 202 0 l 2
 187 0 156 25 143 38 c 0
 133 48 114 82 111 97 c 1
 111 97 93 53 78 34 c 0
 63 16 43 0 16 0 c 2
 -21 0 l 1
 -21 100 l 1
EndSplineSet
EndChar
StartChar: m
Encoding: 109 109 73
Width: 373
Flags: MW
HStem: -21 230
VStem: -21 402<0 100>
Fore
136 119 m 1
 136 103 195 67 218 67 c 1
 218 89 193 163 184 165 c 1
 170 165 139 144 136 119 c 1
-21 100 m 1
 -15 100 62 100 81 118 c 0
 96 133 156 209 181 209 c 0
 239 206 243 129 296 111 c 0
 326 102 348 100 381 100 c 1
 381 0 l 1
 317 0 l 1
 287 8 l 1
 258 21 l 1
 257 12 243 -21 228 -21 c 0
 174 -21 103 38 103 40 c 1
 56 0 l 1
 -21 0 l 1
 -21 100 l 1
EndSplineSet
EndChar
StartChar: n
Encoding: 110 110 74
Width: 236
Flags: MW
HStem: 0 100<-21 30 204 250> 383 20<115 115>
VStem: -21 271<0 100>
Fore
58 346 m 1
 115 403 l 1
 173 346 l 1
 115 288 l 1
 58 346 l 1
-21 100 m 1
 41 100 l 2
 56 100 67 102 81 106 c 0
 111 117 115 181 139 181 c 1
 139 173 139 163 139 152 c 0
 139 141 140 130 145 122 c 0
 156 104 181 100 204 100 c 2
 250 100 l 1
 250 0 l 1
 193 0 l 2
 173 0 155 15 137 30 c 0
 125 40 118 49 110 63 c 1
 104 51 93 36 80 25 c 0
 64 12 51 0 30 0 c 2
 -21 0 l 1
 -21 100 l 1
EndSplineSet
EndChar
StartChar: o
Encoding: 111 111 67
Width: 381
Flags: MW
HStem: 0 100<-21 27> 267 20<169.5 239.5>
VStem: -21 413<0 100>
Fore
-21 100 m 1
 40 100 l 2
 69 100 163 119 163 136 c 1
 160 152 80 181 80 181 c 1
 84 226 141 287 198 287 c 0
 281 287 314 247 314 199 c 1
 307 148 263 136 262 129 c 0
 262 108 392 100 392 100 c 1
 392 0 l 1
 347 0 l 2
 314 0 292 16 265 32 c 0
 240 45 225 58 206 78 c 1
 193 64 178 51 162 41 c 0
 118 12 63 0 27 0 c 2
 -21 0 l 1
 -21 100 l 1
EndSplineSet
EndChar
StartChar: p
Encoding: 112 112 66
Width: 468
Flags: MW
HStem: 0 100<-21 19 71 110.5 402 479> 614 20<130 134>
VStem: 97 40<207 453>
Fore
252 219 m 1
 178 211 71 100 71 100 c 1
 150 100 310 114 350 176 c 1
 350 193 299 219 252 219 c 1
-21 100 m 1
 19 100 l 1
 97 178 l 1
 97 490 l 1
 85 499 73 512 71 528 c 1
 71 550 126 634 134 634 c 1
 134 624 132 609 132 595 c 0
 132 586 133 576 139 569 c 0
 148 557 163 542 181 539 c 1
 150 453 l 1
 137 453 l 1
 137 207 l 1
 137 207 258 306 313 310 c 1
 355 310 401 284 409 254 c 0
 410 247 412 240 412 233 c 0
 412 167 331 89 331 89 c 1
 331 89 353 93 361 95 c 0
 374 97 391 100 402 100 c 2
 479 100 l 1
 479 0 l 1
 -21 0 l 1
 -21 100 l 1
204 421 m 1
 262 479 l 1
 320 421 l 1
 262 364 l 1
 204 421 l 1
EndSplineSet
EndChar
StartChar: q
Encoding: 113 113 70
Width: 303
Flags: MW
HStem: 0 100<-21 23 239 248 248 303> 494 20<112 112 214 214>
VStem: -21 324<0 100>
Fore
112 514 m 1
 214 413 l 1
 265 464 l 1
 214 514 l 1
 112 413 l 1
 62 464 l 1
 112 514 l 1
-21 100 m 1
 33 100 l 2
 44 100 52 100 62 102 c 0
 84 106 78 106 86 107 c 1
 85 115 77 122 77 148 c 0
 77 163 78 185 88 218 c 0
 99 254 145 332 192 332 c 1
 228 325 241 281 241 236 c 0
 241 213 239 189 232 170 c 0
 224 143 217 126 203 106 c 1
 209 104 215 102 222 102 c 0
 228 102 233 100 239 100 c 2
 303 100 l 1
 303 0 l 1
 248 0 l 2
 224 0 207 11 185 21 c 1
 167 27 160 33 140 45 c 1
 114 33 111 30 95 25 c 0
 69 15 40 0 23 0 c 2
 -21 0 l 1
 -21 100 l 1
219 178 m 1
 219 211 202 222 192 225 c 1
 160 225 125 185 123 169 c 1
 123 152 165 129 166 129 c 0
 167 129 211 145 219 178 c 1
EndSplineSet
EndChar
StartChar: r
Encoding: 114 114 97
Width: 328
Flags: MW
HStem: -202 20 112 20<229 229>
VStem: -23 360
Fore
229 132 m 1
 240 118 254 107 273 103 c 0
 292 100 298 100 309 100 c 2
 337 100 l 1
 337 0 l 1
 287 0 l 1
 287 0 243 -181 132 -202 c 1
 110 -202 12 -181 -23 -125 c 1
 -23 -125 27 -139 67 -139 c 0
 77 -139 86 -139 93 -136 c 0
 170 -114 241 -38 255 -3 c 1
 210 64 l 1
 229 132 l 1
EndSplineSet
EndChar
StartChar: s
Encoding: 115 115 28
Width: 554
Flags: MW
HStem: -3 103
VStem: -21 589<0 100>
Fore
-21 100 m 1
 58 100 l 2
 67 100 104 103 115 119 c 0
 128 139 137 174 150 174 c 1
 170 167 126 104 230 99 c 1
 343 99 331 192 355 192 c 1
 355 166 350 126 346 118 c 1
 359 106 369 102 385 99 c 1
 449 99 454 184 472 188 c 1
 479 188 481 178 481 166 c 0
 481 152 479 136 476 128 c 1
 476 118 497 100 514 100 c 2
 568 100 l 1
 568 0 l 1
 498 0 l 2
 476 0 450 30 438 30 c 0
 436 30 435 29 433 27 c 0
 418 5 402 -1 388 -1 c 0
 358 -1 331 29 314 29 c 0
 311 29 309 27 306 26 c 1
 280 4 255 -3 233 -3 c 0
 184 -3 145 33 121 33 c 1
 99 15 82 0 53 0 c 2
 -21 0 l 1
 -21 100 l 1
EndSplineSet
EndChar
StartChar: t
Encoding: 116 116 23
Width: 302
Flags: MW
HStem: 0 100<-21 63 246 331> 335 20<110 110 211 211>
VStem: -21 352<0 100>
Fore
110 355 m 1
 211 254 l 1
 262 305 l 1
 211 355 l 1
 110 254 l 1
 59 305 l 1
 110 355 l 1
-21 100 m 1
 74 100 l 2
 89 100 100 102 114 106 c 0
 144 115 151 176 176 176 c 1
 176 169 171 158 171 145 c 0
 171 137 173 129 178 122 c 0
 189 104 219 100 246 100 c 2
 331 100 l 1
 331 0 l 1
 235 0 l 2
 214 0 188 15 170 30 c 0
 158 40 150 49 143 63 c 1
 137 51 126 36 112 25 c 0
 97 12 84 0 63 0 c 2
 -21 0 l 1
 -21 100 l 1
EndSplineSet
EndChar
StartChar: u
Encoding: 117 117 114
Width: 383
Flags: MW
HStem: -191 63 0 100<322 402>
VStem: 173 229<44 80>
Fore
-27 -119 m 1
 -27 -119 15 -128 64 -128 c 0
 106 -128 154 -122 185 -102 c 0
 229 -74 255 -51 280 -5 c 1
 267 -5 209 -3 188 14 c 0
 177 23 173 36 173 52 c 0
 173 108 233 195 257 195 c 0
 294 193 322 100 322 100 c 1
 402 100 l 1
 402 0 l 1
 314 0 l 1
 314 -36 237 -189 130 -191 c 0
 40 -191 -3 -151 -27 -119 c 1
237 121 m 1
 228 121 214 97 214 81 c 1
 217 67 236 66 277 66 c 1
 277 81 263 115 237 121 c 1
EndSplineSet
EndChar
StartChar: v
Encoding: 118 118 24
Width: 302
Flags: MW
HStem: 0 100<-21 63 246 331> 441 20<163 163>
VStem: -21 352<0 100>
Fore
110 355 m 1
 211 254 l 1
 262 305 l 1
 211 355 l 1
 110 254 l 1
 59 305 l 1
 110 355 l 1
112 410 m 1
 163 461 l 1
 214 410 l 1
 163 359 l 1
 112 410 l 1
-21 100 m 1
 74 100 l 2
 89 100 100 102 114 106 c 0
 144 115 151 176 176 176 c 1
 176 169 171 158 171 145 c 0
 171 137 173 129 178 122 c 0
 189 104 219 100 246 100 c 2
 331 100 l 1
 331 0 l 1
 235 0 l 2
 214 0 188 15 170 30 c 0
 158 40 150 49 143 63 c 1
 137 51 126 36 112 25 c 0
 97 12 84 0 63 0 c 2
 -21 0 l 1
 -21 100 l 1
EndSplineSet
EndChar
StartChar: w
Encoding: 119 119 62
Width: 554
Flags: MW
HStem: -3 103 481 20<325 325>
VStem: -21 589<0 100>
Fore
272 395 m 1
 373 294 l 1
 424 344 l 1
 373 395 l 1
 272 294 l 1
 221 344 l 1
 272 395 l 1
274 450 m 1
 325 501 l 1
 376 450 l 1
 325 399 l 1
 274 450 l 1
-21 100 m 1
 58 100 l 2
 67 100 104 103 115 119 c 0
 128 139 137 174 150 174 c 1
 170 167 126 104 230 99 c 1
 343 99 331 192 355 192 c 1
 355 166 350 126 346 118 c 1
 359 106 369 102 385 99 c 1
 449 99 454 184 472 188 c 1
 479 188 481 178 481 166 c 0
 481 152 479 136 476 128 c 1
 476 118 497 100 514 100 c 2
 568 100 l 1
 568 0 l 1
 498 0 l 2
 476 0 450 30 438 30 c 0
 436 30 435 29 433 27 c 0
 418 5 402 -1 388 -1 c 0
 358 -1 331 29 314 29 c 0
 311 29 309 27 306 26 c 1
 280 4 255 -3 233 -3 c 0
 184 -3 145 33 121 33 c 1
 99 15 82 0 53 0 c 2
 -21 0 l 1
 -21 100 l 1
EndSplineSet
EndChar
StartChar: x
Encoding: 120 120 27
Width: 512
Flags: MW
HStem: 0 100<-21 21 21 29 425.5 439 439 528> 198 87<128 130.5> 500 20<151 151>
VStem: -21 549<0 100>
Fore
93 462 m 1
 151 520 l 1
 209 462 l 1
 151 405 l 1
 93 462 l 1
-21 100 m 1
 21 100 l 2
 49 100 93 108 136 121 c 0
 167 130 188 145 213 165 c 1
 204 171 151 198 110 198 c 0
 82 198 43 170 43 170 c 1
 40 170 38 173 38 176 c 0
 38 195 60 259 97 277 c 0
 110 283 122 285 134 285 c 0
 196 285 259 226 337 226 c 0
 373 226 381 228 431 236 c 1
 416 154 l 1
 361 139 l 2
 359 139 358 137 358 134 c 0
 358 129 364 118 368 115 c 0
 381 102 395 100 418 100 c 2
 528 100 l 1
 528 0 l 1
 439 0 l 2
 412 0 368 22 357 41 c 0
 348 56 335 133 335 133 c 1
 300 123 276 117 243 103 c 0
 144 60 99 0 29 0 c 2
 -21 0 l 1
 -21 100 l 1
EndSplineSet
EndChar
StartChar: y
Encoding: 121 121 65
Width: 468
Flags: MW
HStem: 0 100<-21 19 71 110.5 402 479> 614 20<130 134>
VStem: 97 40<207 453>
Fore
252 219 m 1
 178 211 71 100 71 100 c 1
 150 100 310 114 350 176 c 1
 350 193 299 219 252 219 c 1
-21 100 m 1
 19 100 l 1
 97 178 l 1
 97 490 l 1
 85 499 73 512 71 528 c 1
 71 550 126 634 134 634 c 1
 134 624 132 609 132 595 c 0
 132 586 133 576 139 569 c 0
 148 557 163 542 181 539 c 1
 150 453 l 1
 137 453 l 1
 137 207 l 1
 137 207 258 306 313 310 c 1
 355 310 401 284 409 254 c 0
 410 247 412 240 412 233 c 0
 412 167 331 89 331 89 c 1
 331 89 353 93 361 95 c 0
 374 97 391 100 402 100 c 2
 479 100 l 1
 479 0 l 1
 -21 0 l 1
 -21 100 l 1
EndSplineSet
EndChar
StartChar: z
Encoding: 122 122 98
Width: 328
Flags: MW
HStem: -202 20 338 20<215 215>
VStem: -23 360
Fore
158 300 m 1
 215 358 l 1
 273 300 l 1
 215 243 l 1
 158 300 l 1
229 132 m 1
 240 118 254 107 273 103 c 0
 292 100 298 100 309 100 c 2
 337 100 l 1
 337 0 l 1
 287 0 l 1
 287 0 243 -181 132 -202 c 1
 110 -202 12 -181 -23 -125 c 1
 -23 -125 27 -139 67 -139 c 0
 77 -139 86 -139 93 -136 c 0
 170 -114 241 -38 255 -3 c 1
 210 64 l 1
 229 132 l 1
EndSplineSet
EndChar
StartChar: braceleft
Encoding: 123 123 243
Width: 289
Flags: MW
HStem: -259 34<66 66> 556 37<69 110.5>
VStem: 160 40<-134 67 262 460>
Fore
69 593 m 1
 189 593 200 520 200 460 c 2
 200 262 l 2
 200 199 252 166 252 165 c 0
 252 160 200 121 200 67 c 2
 200 -134 l 2
 200 -193 191 -259 66 -259 c 1
 66 -225 l 1
 145 -224 160 -202 160 -134 c 2
 160 67 l 2
 160 121 209 165 209 165 c 1
 209 167 160 204 160 262 c 2
 160 460 l 2
 160 527 154 556 67 556 c 1
 69 593 l 1
EndSplineSet
EndChar
StartChar: bar
Encoding: 124 124 244
Width: 178
Flags: MW
HStem: 567 20<73 119 119 119>
VStem: 73 46<-406 587>
Fore
73 587 m 1
 119 587 l 1
 119 -406 l 1
 73 -406 l 1
 73 587 l 1
EndSplineSet
EndChar
StartChar: braceright
Encoding: 125 125 245
Width: 289
Flags: W
Fore
220 593 m 1
 100 593 89 520 89 460 c 2
 89 262 l 2
 89 199 37 166 37 165 c 0
 37 160 89 121 89 67 c 2
 89 -134 l 2
 89 -193 98 -259 223 -259 c 1
 223 -225 l 1
 144 -224 129 -202 129 -134 c 2
 129 67 l 2
 129 121 80 165 80 165 c 1
 80 167 129 204 129 262 c 2
 129 460 l 2
 129 527 135 556 222 556 c 1
 220 593 l 1
EndSplineSet
EndChar
StartChar: asciitilde
Encoding: 126 126 64
Width: 657
Flags: MW
HStem: 0 100<-21 12 623 669> 196 87 426 20<292 292>
VStem: -21 690<0 100>
Fore
455 196 m 1
 359 192 240 81 240 81 c 1
 240 80 255 78 278 78 c 0
 351 78 506 91 547 148 c 1
 547 169 492 196 455 196 c 1
-21 100 m 1
 25 100 l 2
 40 100 56 100 66 107 c 0
 82 118 96 150 96 150 c 1
 97 143 110 119 122 108 c 0
 144 88 167 81 199 81 c 1
 199 82 407 277 538 283 c 1
 572 283 609 237 612 209 c 1
 612 144 536 80 536 80 c 1
 536 80 561 88 568 89 c 0
 580 93 609 100 623 100 c 2
 669 100 l 1
 669 0 l 1
 440 0 l 2
 358 0 270 -5 229 -5 c 0
 121 -5 91 55 88 56 c 1
 78 38 66 25 49 15 c 0
 37 8 27 0 12 0 c 2
 -21 0 l 1
 -21 100 l 1
235 388 m 1
 292 446 l 1
 350 388 l 1
 292 331 l 1
 235 388 l 1
EndSplineSet
EndChar
StartChar: exclamdown
Encoding: 161 161 119
Width: 181
Flags: MW
HStem: 0 100<-21 62> 499 20<132.5 140>
VStem: -21 221
Fore
160 476 m 1
 156 471 152 469 148 469 c 0
 139 469 132 477 121 477 c 0
 114 477 107 475 99 468 c 0
 89 460 86 454 86 449 c 0
 86 432 119 428 128 428 c 2
 200 428 l 1
 178 391 l 1
 152 391 125 391 107 383 c 0
 89 374 74 365 60 353 c 1
 55 362 l 1
 60 372 60 383 66 395 c 1
 66 406 47 427 47 444 c 0
 49 464 125 519 140 519 c 1
 154 516 167 505 167 492 c 0
 167 487 166 481 160 476 c 1
-21 100 m 1
 115 100 l 2
 123 100 128 111 130 119 c 1
 130 128 114 177 108 180 c 1
 139 259 l 1
 156 235 169 198 169 158 c 0
 169 132 163 106 152 80 c 0
 136 44 93 0 62 0 c 2
 -21 0 l 1
 -21 100 l 1
EndSplineSet
EndChar
StartChar: cent
Encoding: 162 162 136
Width: 621
Flags: MW
HStem: -15 115 246 20<66.5 74>
VStem: 8 627
Fore
225 -255 m 1
 276 -204 l 1
 326 -255 l 1
 276 -306 l 1
 225 -255 l 1
222 -200 m 1
 171 -150 l 1
 222 -99 l 1
 324 -200 l 1
 374 -150 l 1
 324 -99 l 1
 222 -200 l 1
521 77 m 1
 519 62 351 -15 209 -15 c 0
 150 -15 95 -1 56 34 c 1
 21 69 8 106 8 140 c 0
 8 209 59 266 74 266 c 1
 74 252 52 217 52 184 c 0
 52 177 53 170 56 163 c 0
 85 95 204 80 274 80 c 0
 466 82 540 182 545 188 c 1
 545 182 550 150 560 129 c 0
 567 115 582 100 595 100 c 2
 635 100 l 1
 635 0 l 1
 598 0 l 2
 582 0 557 12 542 30 c 0
 531 44 523 66 521 77 c 1
EndSplineSet
EndChar
StartChar: sterling
Encoding: 163 163 137
Width: 621
Flags: W
Fore
358 327 m 0
 328 327 299 297 298 294 c 0
 298 293 301 292 306 292 c 0
 327 292 381 301 381 314 c 1
 379 323 368 326 358 327 c 0
307 264 m 0
 298 264 291 264 285 264 c 0
 270 264 260 265 246 275 c 0
 237 281 232 286 226 295 c 1
 277 291 l 1
 298 311 l 1
 298 414 l 1
 294 417 290 421 290 426 c 0
 290 433 307 458 309 458 c 1
 309 455 308 451 308 446 c 0
 308 444 309 441 310 439 c 0
 313 435 318 430 323 429 c 1
 314 403 l 1
 310 403 l 1
 310 320 l 1
 310 320 357 355 374 355 c 0
 388 355 402 341 403 332 c 0
 403 308 364 266 307 264 c 0
521 77 m 1
 519 62 351 -15 209 -15 c 0
 150 -15 95 -1 56 34 c 1
 21 69 8 106 8 140 c 0
 8 209 59 266 74 266 c 1
 74 252 52 217 52 184 c 0
 52 177 53 170 56 163 c 0
 85 95 204 80 274 80 c 0
 466 82 540 182 545 188 c 1
 545 182 550 150 560 129 c 0
 567 115 582 100 595 100 c 2
 635 100 l 1
 635 0 l 1
 598 0 l 2
 582 0 557 12 542 30 c 0
 531 44 523 66 521 77 c 1
EndSplineSet
EndChar
StartChar: yen
Encoding: 165 165 142
Width: 396
Flags: W
Fore
285 108 m 1
 278 77 233 -4 151 -5 c 0
 112 -5 55 -5 55 25 c 2
 55 133 l 1
 59 125 66 117 74 110 c 0
 89 96 107 91 125 91 c 0
 148 91 174 100 202 107 c 0
 232 114 251 125 276 143 c 1
 241 335 l 1
 266 414 l 1
 321 177 l 1
 322 167 326 148 340 122 c 0
 347 108 362 100 379 100 c 2
 412 100 l 1
 412 0 l 1
 361 0 l 2
 351 0 333 12 325 25 c 0
 303 56 285 108 285 108 c 1
303 536 m 0
 273 536 244 506 243 503 c 0
 243 502 246 501 251 501 c 0
 272 501 326 510 326 523 c 1
 324 532 313 535 303 536 c 0
252 473 m 0
 243 473 236 473 230 473 c 0
 215 473 205 474 191 484 c 0
 182 490 177 495 171 504 c 1
 222 500 l 1
 243 520 l 1
 243 623 l 1
 239 626 235 630 235 635 c 0
 235 642 252 667 254 667 c 1
 254 664 253 660 253 655 c 0
 253 653 254 650 255 648 c 0
 258 644 263 639 268 638 c 1
 259 612 l 1
 255 612 l 1
 255 529 l 1
 255 529 302 564 319 564 c 0
 333 564 347 550 348 541 c 0
 348 517 309 475 252 473 c 0
EndSplineSet
EndChar
StartChar: florin
Encoding: 166 402 153
Width: 225
Flags: W
Fore
166 398 m 0
 136 398 107 368 106 365 c 0
 106 364 109 363 114 363 c 0
 135 363 189 372 189 385 c 1
 187 394 176 397 166 398 c 0
115 335 m 0
 106 335 99 335 93 335 c 0
 78 335 68 336 54 346 c 0
 45 352 40 357 34 366 c 1
 85 362 l 1
 106 382 l 1
 106 485 l 1
 102 488 98 492 98 497 c 0
 98 504 115 529 117 529 c 1
 117 526 116 522 116 517 c 0
 116 515 117 512 118 510 c 0
 121 506 126 501 131 500 c 1
 122 474 l 1
 118 474 l 1
 118 391 l 1
 118 391 165 426 182 426 c 0
 196 426 210 412 211 403 c 0
 211 379 172 337 115 335 c 0
-21 100 m 1
 115 100 l 2
 123 100 128 111 130 119 c 1
 130 128 114 177 108 180 c 1
 139 259 l 1
 156 235 169 198 169 158 c 0
 169 132 163 106 152 80 c 0
 136 44 93 0 62 0 c 2
 -21 0 l 1
 -21 100 l 1
EndSplineSet
EndChar
StartChar: section
Encoding: 167 167 143
Width: 328
Flags: W
Fore
229 132 m 1
 240 118 254 107 273 103 c 0
 292 100 298 100 309 100 c 2
 337 100 l 1
 337 0 l 1
 287 0 l 1
 287 0 243 -181 132 -202 c 1
 110 -202 12 -181 -23 -125 c 1
 -23 -125 27 -139 67 -139 c 0
 77 -139 86 -139 93 -136 c 0
 170 -114 241 -38 255 -3 c 1
 210 64 l 1
 229 132 l 1
253 305 m 0
 223 305 194 275 193 272 c 0
 193 271 196 270 201 270 c 0
 222 270 276 279 276 292 c 1
 274 301 263 304 253 305 c 0
202 242 m 0
 193 242 186 242 180 242 c 0
 165 242 155 243 141 253 c 0
 132 259 127 264 121 273 c 1
 172 269 l 1
 193 289 l 1
 193 392 l 1
 189 395 185 399 185 404 c 0
 185 411 202 436 204 436 c 1
 204 433 203 429 203 424 c 0
 203 422 204 419 205 417 c 0
 208 413 213 408 218 407 c 1
 209 381 l 1
 205 381 l 1
 205 298 l 1
 205 298 252 333 269 333 c 0
 283 333 297 319 298 310 c 0
 298 286 259 244 202 242 c 0
EndSplineSet
EndChar
StartChar: currency
Encoding: 168 164 120
Width: 598
Flags: MW
HStem: 0 100<-21 12> 196 87 426 20<292 292>
VStem: -21 633
Fore
235 388 m 1
 292 446 l 1
 350 388 l 1
 292 331 l 1
 235 388 l 1
455 196 m 1
 359 192 240 81 240 81 c 1
 240 80 255 78 278 78 c 0
 351 78 506 91 547 148 c 1
 547 169 492 196 455 196 c 1
-21 100 m 1
 25 100 l 2
 40 100 56 100 66 107 c 0
 82 118 96 150 96 150 c 1
 97 143 110 119 122 108 c 0
 144 88 167 81 199 81 c 1
 199 82 407 277 538 283 c 1
 572 283 609 237 612 209 c 1
 612 140 528 12 276 -7 c 0
 263 -8 252 -8 241 -8 c 0
 115 -8 91 55 88 56 c 1
 78 38 66 25 49 15 c 0
 37 8 27 0 12 0 c 2
 -21 0 l 1
 -21 100 l 1
EndSplineSet
EndChar
StartChar: quotesingle
Encoding: 169 39 160
Width: 137
Flags: MW
HStem: 438 20 547 20<73.5 84.5>
VStem: 58 41<538 547.5>
Fore
70 438 m 1
 70 438 64 497 58 538 c 1
 58 558 69 567 78 567 c 0
 91 567 99 557 99 538 c 1
 92 497 86 438 86 438 c 1
 70 438 l 1
EndSplineSet
EndChar
StartChar: quotedblleft
Encoding: 170 8220 237
Width: 621
Flags: W
Fore
363 387 m 0
 333 387 304 357 303 354 c 0
 303 353 306 352 311 352 c 0
 332 352 386 361 386 374 c 1
 384 383 373 386 363 387 c 0
312 324 m 0
 303 324 296 324 290 324 c 0
 275 324 265 325 251 335 c 0
 242 341 237 346 231 355 c 1
 282 351 l 1
 303 371 l 1
 303 474 l 1
 299 477 295 481 295 486 c 0
 295 493 312 518 314 518 c 1
 314 515 313 511 313 506 c 0
 313 504 314 501 315 499 c 0
 318 495 323 490 328 489 c 1
 319 463 l 1
 315 463 l 1
 315 380 l 1
 315 380 362 415 379 415 c 0
 393 415 407 401 408 392 c 0
 408 368 369 326 312 324 c 0
74 266 m 1
 74 252 52 217 52 184 c 0
 52 177 53 170 56 163 c 0
 85 95 204 80 274 80 c 0
 466 82 557 133 573 141 c 1
 573 147 565 173 557 187 c 0
 550 199 540 209 529 217 c 1
 564 320 l 1
 568 313 613 274 613 204 c 0
 613 171 604 132 575 85 c 0
 543 34 373 -10 233 -10 c 0
 156 -10 89 3 56 34 c 1
 21 69 8 106 8 140 c 0
 8 209 59 266 74 266 c 1
EndSplineSet
EndChar
StartChar: guillemotleft
Encoding: 171 171 61
Width: 838
Flags: MW
HStem: 0 100<193.5 198 198 343 343 379 798 849> 718 20<669 669>
VStem: -21 33 519 39<175.5 197>
Fore
343 100 m 1
 392 100 l 2
 418 100 517 108 519 166 c 1
 519 228 362 273 351 348 c 1
 351 372 353 399 361 429 c 0
 379 494 722 646 722 646 c 1
 705 565 l 1
 691 560 562 491 498 458 c 0
 433 425 418 412 370 381 c 1
 379 377 446 339 491 311 c 0
 606 240 741 100 798 100 c 2
 849 100 l 1
 849 0 l 1
 787 0 l 2
 760 0 723 26 667 86 c 0
 626 130 560 196 558 199 c 1
 558 152 554 93 521 59 c 0
 481 16 416 0 379 0 c 2
 343 0 l 1
 343 100 l 1
686 708 m 1
 318 524 l 1
 302 554 l 1
 669 738 l 1
 686 708 l 1
343 0 m 1
 343 100 l 1
 198 100 l 2
 189 100 180 99 170 99 c 0
 145 99 114 104 77 139 c 1
 66 148 63 165 63 182 c 0
 63 224 80 274 80 288 c 1
 73 288 12 203 12 126 c 0
 12 89 26 55 67 36 c 0
 110 15 139 0 187 0 c 2
 343 0 l 1
EndSplineSet
EndChar
StartChar: guilsinglleft
Encoding: 172 8249 127
Width: 340
Flags: MW
HStem: 0 100<-21 63> 663 20<332 332>
VStem: 192 44
Fore
-21 100 m 1
 66 100 l 2
 118 100 192 115 192 150 c 1
 188 246 21 239 21 344 c 0
 21 354 23 365 26 377 c 0
 52 476 351 606 377 606 c 1
 359 521 l 1
 351 521 63 383 63 362 c 1
 66 358 236 298 236 167 c 0
 236 156 235 145 232 133 c 0
 211 38 148 0 63 0 c 2
 -21 0 l 1
 -21 100 l 1
348 653 m 1
 -19 469 l 1
 -36 499 l 1
 332 683 l 1
 348 653 l 1
EndSplineSet
EndChar
StartChar: alefmadd
Encoding: 173 8250 240
Width: 753
Flags: MWO
HStem: 0 100<213 217 217 362 362 409> 718 20<689 689>
VStem: -21 53 538 44
Fore
362 100 m 1
 412 100 l 2
 464 100 538 115 538 150 c 1
 534 246 366 239 366 344 c 0
 366 354 369 365 372 377 c 0
 398 476 697 606 723 606 c 1
 705 521 l 1
 697 521 409 383 409 362 c 1
 412 358 582 298 582 167 c 0
 582 156 580 145 578 133 c 0
 557 38 494 0 409 0 c 2
 362 0 l 1
 362 100 l 1
705 708 m 1
 337 524 l 1
 321 554 l 1
 689 738 l 1
 705 708 l 1
362 0 m 1
 362 100 l 1
 217 100 l 2
 209 100 199 99 189 99 c 0
 165 99 133 104 96 139 c 1
 85 148 82 165 82 182 c 0
 82 224 99 274 99 288 c 1
 92 288 32 203 32 126 c 0
 32 89 45 55 86 36 c 0
 129 15 158 0 206 0 c 2
 362 0 l 1
EndSplineSet
EndChar
StartChar: endash
Encoding: 177 8211 239
Width: 621
Flags: MW
HStem: -10 90<239 274> 629 20<523 523>
VStem: 466 150<214.5 257.5>
Fore
498 255 m 1
 502 243 517 235 532 235 c 0
 546 235 560 241 564 257 c 1
 564 276 542 295 531 296 c 0
 516 296 498 265 498 255 c 1
56 34 m 1
 21 69 8 106 8 140 c 0
 8 209 59 266 74 266 c 1
 74 252 52 217 52 184 c 0
 52 177 53 170 56 163 c 0
 85 95 204 80 274 80 c 0
 466 82 569 140 584 148 c 1
 586 177 l 1
 580 202 l 1
 580 202 554 174 527 174 c 0
 483 176 466 199 466 230 c 0
 466 285 514 359 545 366 c 1
 576 366 616 306 616 226 c 0
 616 182 605 134 575 85 c 0
 543 34 373 -10 232 -10 c 0
 156 -10 89 3 56 34 c 1
472 598 m 1
 523 649 l 1
 573 598 l 1
 523 547 l 1
 472 598 l 1
469 543 m 1
 571 442 l 1
 621 492 l 1
 571 543 l 1
 469 442 l 1
 418 492 l 1
 469 543 l 1
EndSplineSet
EndChar
StartChar: dagger
Encoding: 178 8224 126
Width: 274
Flags: MW
HStem: 0 100<-21 71> 604 20<160 160>
VStem: 78 170
Fore
143 273 m 1
 132 273 106 250 106 230 c 0
 106 228 107 225 108 222 c 0
 115 211 129 207 143 207 c 0
 160 207 180 214 181 218 c 0
 181 226 165 270 143 273 c 1
108 519 m 1
 210 417 l 1
 261 468 l 1
 210 519 l 1
 108 417 l 1
 58 468 l 1
 108 519 l 1
-21 100 m 1
 95 100 l 2
 126 100 144 102 176 106 c 0
 196 108 209 119 224 129 c 1
 203 178 l 1
 198 173 170 150 139 150 c 0
 128 150 115 152 104 159 c 0
 85 171 78 192 78 217 c 0
 78 276 121 351 155 353 c 1
 204 348 248 225 248 156 c 0
 247 36 132 0 71 0 c 2
 -21 0 l 1
 -21 100 l 1
110 573 m 1
 160 624 l 1
 211 573 l 1
 160 523 l 1
 110 573 l 1
EndSplineSet
EndChar
StartChar: daggerdbl
Encoding: 179 8225 242
Width: 317
Flags: W
Fore
-27 -137 m 1
 45 -137 125 -123 181 -78 c 0
 228 -40 273 8 273 44 c 0
 272 73 214 121 213 121 c 1
 235 207 l 1
 236 207 303 165 305 80 c 0
 305 5 244 -178 132 -184 c 1
 52 -184 -11 -150 -27 -137 c 1
259 371 m 0
 229 371 200 341 199 338 c 0
 199 337 202 336 207 336 c 0
 228 336 282 345 282 358 c 1
 280 367 269 370 259 371 c 0
208 308 m 0
 199 308 192 308 186 308 c 0
 171 308 161 309 147 319 c 0
 138 325 133 330 127 339 c 1
 178 335 l 1
 199 355 l 1
 199 458 l 1
 195 461 191 465 191 470 c 0
 191 477 208 502 210 502 c 1
 210 499 209 495 209 490 c 0
 209 488 210 485 211 483 c 0
 214 479 219 474 224 473 c 1
 215 447 l 1
 211 447 l 1
 211 364 l 1
 211 364 258 399 275 399 c 0
 289 399 303 385 304 376 c 0
 304 352 265 310 208 308 c 0
EndSplineSet
EndChar
StartChar: periodcentered
Encoding: 180 183 144
Width: 328
Flags: MW
HStem: -202 20 404 20<210 210>
VStem: -23 360
Fore
229 132 m 1
 240 118 254 107 273 103 c 0
 292 100 298 100 309 100 c 2
 337 100 l 1
 337 0 l 1
 287 0 l 1
 287 0 243 -181 132 -202 c 1
 110 -202 12 -181 -23 -125 c 1
 -23 -125 27 -139 67 -139 c 0
 77 -139 86 -139 93 -136 c 0
 170 -114 241 -38 255 -3 c 1
 210 64 l 1
 229 132 l 1
159 373 m 1
 210 424 l 1
 261 373 l 1
 210 322 l 1
 159 373 l 1
156 318 m 1
 258 217 l 1
 309 267 l 1
 258 318 l 1
 156 217 l 1
 106 267 l 1
 156 318 l 1
EndSplineSet
EndChar
StartChar: paragraph
Encoding: 182 182 135
Width: 303
Flags: MW
HStem: 0 100<-21 23 239 248 248 303> 600 20<165 165>
VStem: -21 324<0 100>
Fore
112 514 m 1
 214 413 l 1
 265 464 l 1
 214 514 l 1
 112 413 l 1
 62 464 l 1
 112 514 l 1
-21 100 m 1
 33 100 l 2
 44 100 52 100 62 102 c 0
 84 106 78 106 86 107 c 1
 85 115 77 122 77 148 c 0
 77 163 78 185 88 218 c 0
 99 254 145 332 192 332 c 1
 228 325 241 281 241 236 c 0
 241 213 239 189 232 170 c 0
 224 143 217 126 203 106 c 1
 209 104 215 102 222 102 c 0
 228 102 233 100 239 100 c 2
 303 100 l 1
 303 0 l 1
 248 0 l 2
 224 0 207 11 185 21 c 1
 167 27 160 33 140 45 c 1
 114 33 111 30 95 25 c 0
 69 15 40 0 23 0 c 2
 -21 0 l 1
 -21 100 l 1
219 178 m 1
 219 211 202 222 192 225 c 1
 160 225 125 185 123 169 c 1
 123 152 165 129 166 129 c 0
 167 129 211 145 219 178 c 1
114 569 m 1
 165 620 l 1
 215 569 l 1
 165 519 l 1
 114 569 l 1
EndSplineSet
EndChar
StartChar: bullet
Encoding: 183 8226 118
Width: 1
Flags: W
Fore
124 609 m 0
 105 609 100 613 94 613 c 0
 89 613 85 613 77 609 c 0
 62 602 69 576 36 568 c 1
 -5 568 -8 615 -8 653 c 1
 19 667 l 1
 19 642 22 627 43 627 c 0
 62 627 62 690 62 690 c 1
 91 704 l 1
 91 702 91 661 110 661 c 0
 125 661 129 693 129 724 c 1
 155 738 l 1
 155 738 158 719 158 694 c 0
 158 658 153 610 124 609 c 0
124 815 m 1
 124 815 133 824 135 832 c 0
 138 841 141 846 141 852 c 0
 141 864 133 869 124 869 c 0
 116 869 108 864 105 856 c 1
 105 826 124 815 124 815 c 1
115 756 m 0
 86 724 4 693 2 693 c 1
 -14 723 l 1
 -14 723 27 734 27 761 c 0
 27 767 26 773 21 780 c 1
 21 780 -6 776 -13 767 c 1
 -18 789 l 1
 -18 789 12 812 34 812 c 0
 38 812 42 812 45 809 c 0
 52 805 52 756 52 754 c 1
 54 754 69 764 78 769 c 0
 86 775 96 783 101 790 c 1
 100 790 72 806 72 837 c 0
 72 853 82 875 113 900 c 1
 126 909 135 912 142 912 c 0
 160 912 166 891 166 871 c 0
 166 860 164 848 161 839 c 0
 159 827 149 805 149 805 c 1
 164 799 l 1
 150 765 l 1
 127 773 l 1
 124 768 122 764 115 756 c 0
EndSplineSet
EndChar
StartChar: quotesinglbase
Encoding: 184 8218 123
Width: 225
Flags: MW
HStem: 0 100<-21 62> 239 20<139 139>
VStem: -21 236
Fore
66 -250 m 1
 117 -199 l 1
 167 -250 l 1
 117 -300 l 1
 66 -250 l 1
63 -195 m 1
 12 -144 l 1
 63 -93 l 1
 165 -195 l 1
 215 -144 l 1
 165 -93 l 1
 63 -195 l 1
-21 100 m 1
 115 100 l 2
 123 100 128 111 130 119 c 1
 130 128 114 177 108 180 c 1
 139 259 l 1
 156 235 169 198 169 158 c 0
 169 132 163 106 152 80 c 0
 136 44 93 0 62 0 c 2
 -21 0 l 1
 -21 100 l 1
EndSplineSet
EndChar
StartChar: quotedblbase
Encoding: 185 8222 230
Width: 1
Flags: MW
VStem: -147 163<-370 -336>
Fore
16 -248 m 1
 16 -284 l 1
 -147 -370 l 1
 -147 -333 l 1
 16 -248 l 1
-147 -421 m 1
 16 -336 l 1
 16 -374 l 1
 -147 -460 l 1
 -147 -421 l 1
EndSplineSet
EndChar
StartChar: quotedblright
Encoding: 186 8221 91
Width: 1
Flags: W
Fore
136 604 m 0
 117 604 112 608 106 608 c 0
 101 608 97 608 89 604 c 0
 74 597 81 571 48 563 c 1
 7 563 4 610 4 648 c 1
 31 662 l 1
 31 637 34 622 55 622 c 0
 74 622 74 685 74 685 c 1
 103 699 l 1
 103 697 103 656 122 656 c 0
 137 656 141 688 141 719 c 1
 167 733 l 1
 167 733 170 714 170 689 c 0
 170 653 165 605 136 604 c 0
122 823 m 1
 122 823 134 836 141 855 c 0
 143 860 144 866 144 870 c 0
 144 884 136 892 126 892 c 0
 117 892 106 884 99 863 c 1
 99 834 122 823 122 823 c 1
178 785 m 1
 159 757 l 1
 126 778 l 1
 112 763 104 755 82 738 c 0
 58 719 14 697 14 697 c 1
 0 723 l 1
 1 723 37 744 55 756 c 0
 74 768 102 796 102 796 c 1
 102 796 69 823 66 837 c 1
 66 885 91 910 111 918 c 0
 121 922 129 923 137 923 c 0
 162 923 180 908 180 885 c 0
 180 880 178 874 177 869 c 0
 167 834 145 807 145 807 c 1
 178 785 l 1
EndSplineSet
EndChar
StartChar: guillemotright
Encoding: 187 187 121
Width: 499
Flags: MW
HStem: 0 100<-21 41 461 512> 685 20<343 343>
VStem: 181 40<175.5 197>
Fore
-21 100 m 1
 55 100 l 2
 81 100 180 108 181 166 c 0
 181 228 25 273 14 348 c 1
 14 372 15 399 23 429 c 0
 41 494 384 646 384 646 c 1
 368 565 l 1
 354 560 225 491 160 458 c 0
 96 425 81 412 33 381 c 1
 41 377 108 339 154 311 c 0
 269 240 403 100 461 100 c 2
 512 100 l 1
 512 0 l 1
 450 0 l 2
 422 0 385 26 329 86 c 0
 288 130 222 196 221 199 c 1
 221 152 217 93 184 59 c 0
 144 16 78 0 41 0 c 2
 -21 0 l 1
 -21 100 l 1
359 675 m 1
 -8 491 l 1
 -25 521 l 1
 343 705 l 1
 359 675 l 1
EndSplineSet
EndChar
StartChar: ellipsis
Encoding: 188 8230 241
Width: 344
Flags: W
Fore
331 106 m 1
 325 34 283 -21 203 -21 c 0
 177 -21 147 -15 114 -3 c 1
 111 -3 111 11 111 27 c 0
 111 55 114 92 119 104 c 1
 126 96 132 88 141 85 c 0
 152 81 165 80 180 80 c 0
 236 80 310 100 310 107 c 0
 310 134 267 217 181 222 c 0
 178 222 177 244 177 269 c 0
 177 298 178 331 181 337 c 1
 187 346 l 1
 221 342 331 270 331 106 c 1
259 492 m 0
 229 492 200 462 199 459 c 0
 199 458 202 457 207 457 c 0
 228 457 282 466 282 479 c 1
 280 488 269 491 259 492 c 0
208 429 m 0
 199 429 192 429 186 429 c 0
 171 429 161 430 147 440 c 0
 138 446 133 451 127 460 c 1
 178 456 l 1
 199 476 l 1
 199 579 l 1
 195 582 191 586 191 591 c 0
 191 598 208 623 210 623 c 1
 210 620 209 616 209 611 c 0
 209 609 210 606 211 604 c 0
 214 600 219 595 224 594 c 1
 215 568 l 1
 211 568 l 1
 211 485 l 1
 211 485 258 520 275 520 c 0
 289 520 303 506 304 497 c 0
 304 473 265 431 208 429 c 0
EndSplineSet
Ligature: 0 1 'liga' period period period
EndChar
StartChar: perthousand
Encoding: 189 8240 58
Width: 1
Flags: MW
HStem: 564 20
VStem: -7 187
Fore
180 686 m 1
 180 649 l 1
 16 564 l 1
 16 601 l 1
 180 686 l 1
125 709 m 0
 106 709 102 713 95 713 c 0
 91 713 86 713 78 709 c 0
 63 702 70 676 37 668 c 1
 -4 668 -7 715 -7 753 c 1
 21 767 l 1
 21 742 23 727 44 727 c 0
 63 727 63 790 63 790 c 1
 92 804 l 1
 92 802 92 761 111 761 c 0
 126 761 130 793 130 824 c 1
 156 838 l 1
 156 838 159 819 159 794 c 0
 159 759 154 711 125 709 c 0
EndSplineSet
EndChar
StartChar: questiondown
Encoding: 191 191 117
Width: 562
Flags: MW
HStem: 0 100<523 582> 385 153 609 40<126 162> 664 20<246 255>
VStem: 370 63<379 396 396 519 519 519>
Fore
7 586 m 1
 7 597 53 678 53 678 c 1
 67 669 108 649 144 649 c 0
 187 649 237 684 255 684 c 1
 255 668 185 609 139 609 c 0
 103 609 78 615 49 634 c 1
 49 634 26 586 7 586 c 1
433 587 m 1
 433 396 l 2
 433 362 446 257 464 167 c 0
 468 148 488 100 523 100 c 2
 582 100 l 1
 582 0 l 1
 514 0 l 2
 487 0 450 43 443 64 c 0
 405 191 399 342 399 343 c 1
 399 343 387 259 365 143 c 0
 331 -34 137 -43 67 -43 c 1
 99 -30 174 14 229 56 c 0
 267 85 289 111 320 150 c 1
 314 177 316 195 289 239 c 0
 247 311 159 394 141 403 c 1
 130 395 125 385 104 385 c 0
 53 387 12 428 12 481 c 0
 12 492 15 503 18 514 c 0
 23 531 33 538 47 538 c 0
 107 538 235 410 272 348 c 0
 326 257 331 218 335 176 c 1
 339 191 350 233 359 272 c 1
 369 307 370 335 370 373 c 2
 370 519 l 1
 433 587 l 1
EndSplineSet
EndChar
StartChar: grave
Encoding: 193 96 26
Width: 512
Flags: MW
HStem: 0 100<-21 21 21 29 425.5 439 439 528> 198 87<128 130.5>
VStem: -21 549<0 100>
Fore
-21 100 m 1
 21 100 l 2
 49 100 93 108 136 121 c 0
 167 130 188 145 213 165 c 1
 204 171 151 198 110 198 c 0
 82 198 43 170 43 170 c 1
 40 170 38 173 38 176 c 0
 38 195 60 259 97 277 c 0
 110 283 122 285 134 285 c 0
 196 285 259 226 337 226 c 0
 373 226 381 228 431 236 c 1
 416 154 l 1
 361 139 l 2
 359 139 358 137 358 134 c 0
 358 129 364 118 368 115 c 0
 381 102 395 100 418 100 c 2
 528 100 l 1
 528 0 l 1
 439 0 l 2
 412 0 368 22 357 41 c 0
 348 56 335 133 335 133 c 1
 300 123 276 117 243 103 c 0
 144 60 99 0 29 0 c 2
 -21 0 l 1
 -21 100 l 1
EndSplineSet
EndChar
StartChar: acute
Encoding: 194 180 233
Width: 1
Flags: MW
VStem: -38 163
Fore
125 -365 m 1
 125 -401 l 1
 -38 -487 l 1
 -38 -450 l 1
 125 -365 l 1
EndSplineSet
Ligature: 0 1 'liga' space acutecomb
EndChar
StartChar: circumflex
Encoding: 195 710 217
Width: 137
Flags: MW
HStem: 0 100<-21 148>
VStem: -21 169<0 100>
Fore
-21 100 m 1
 148 100 l 1
 148 0 l 1
 -21 0 l 1
 -21 100 l 1
EndSplineSet
EndChar
StartChar: tilde
Encoding: 196 732 157
Width: 565
Flags: MW
HStem: -280 65<299 340> 584 20<244 299 299 299>
VStem: 37 78<331.5 386> 244 55<-412 -280 -215 86 230 506 554 604> 453 96<-100.5 -58>
Fore
244 604 m 1
 299 604 l 1
 299 554 l 1
 335 554 358 554 392 549 c 0
 431 542 457 534 492 517 c 1
 492 366 l 1
 442 366 l 1
 442 422 429 453 395 479 c 0
 359 505 317 506 299 506 c 1
 299 221 l 1
 318 221 543 188 549 -27 c 1
 549 -178 383 -280 299 -280 c 1
 299 -412 l 1
 244 -412 l 1
 244 -280 l 1
 204 -280 178 -276 140 -266 c 0
 95 -255 67 -243 26 -218 c 1
 26 -49 l 1
 91 -49 l 1
 91 -49 89 -60 89 -77 c 0
 89 -102 93 -141 111 -173 c 0
 136 -214 196 -218 244 -218 c 1
 244 97 l 1
 125 108 37 207 37 326 c 0
 37 446 125 543 244 554 c 1
 244 604 l 1
115 368 m 0
 115 295 171 235 244 230 c 1
 244 508 l 1
 171 503 115 440 115 368 c 0
299 -215 m 1
 381 -215 453 -143 453 -58 c 1
 447 23 385 86 299 86 c 1
 299 -215 l 1
EndSplineSet
Ligature: 0 1 'liga' space tildecomb
EndChar
StartChar: macron
Encoding: 197 175 152
Width: 453
Flags: MW
HStem: -5 20 598 40<126 162> 654 20<245 254>
VStem: 215 195<77.5 99>
Fore
7 575 m 1
 7 586 53 667 53 667 c 1
 67 658 108 638 144 638 c 0
 187 638 236 674 254 674 c 1
 254 657 185 598 139 598 c 0
 103 598 78 604 49 623 c 1
 49 623 26 575 7 575 c 1
295 82 m 1
 376 88 l 1
 376 88 383 89 383 115 c 1
 377 139 361 165 361 165 c 1
 361 165 346 141 337 130 c 0
 322 114 322 111 295 82 c 1
385 299 m 0
 395 377 395 417 395 457 c 1
 374 469 l 1
 374 486 417 584 428 584 c 0
 431 583 431 580 431 576 c 0
 431 567 427 547 427 531 c 0
 428 523 457 501 468 499 c 1
 466 473 l 1
 440 410 l 1
 425 410 l 1
 425 396 417 313 409 265 c 0
 405 240 383 200 383 200 c 1
 383 200 405 163 407 139 c 0
 409 125 410 110 410 88 c 0
 410 67 409 43 401 11 c 0
 399 3 324 -5 270 -5 c 0
 240 -5 215 -3 215 4 c 2
 215 99 l 1
 255 89 l 1
 269 100 287 117 302 134 c 0
 320 155 337 181 344 193 c 1
 325 222 317 233 288 270 c 0
 252 317 167 406 165 407 c 1
 151 395 139 385 119 385 c 1
 84 391 45 439 45 486 c 0
 45 505 52 524 69 539 c 0
 73 543 78 545 85 545 c 0
 133 545 232 428 300 335 c 0
 326 298 366 235 366 235 c 1
 366 235 377 241 385 299 c 0
EndSplineSet
Ligature: 0 1 'liga' space uni0304
EndChar
StartChar: dieresis
Encoding: 200 168 145
Width: 451
Flags: W
Fore
162 274 m 1
 197 225 216 166 219 97 c 1
 219 29 194 -33 159 -81 c 1
 229 -53 280 29 280 97 c 1
 277 166 222 250 162 274 c 1
275 274 m 1
 311 225 330 166 333 97 c 1
 333 29 308 -33 273 -81 c 1
 343 -53 393 29 393 97 c 0
 391 166 336 250 275 274 c 1
EndSplineSet
Ligature: 0 1 'liga' space uni0308
EndChar
StartChar: cedilla
Encoding: 203 184 132
Width: 381
Flags: MW
HStem: 0 100<-21 4 372 395>
VStem: 82 98
Fore
-21 100 m 1
 18 100 l 2
 36 100 78 103 112 111 c 0
 152 122 160 144 174 144 c 0
 178 144 182 143 187 140 c 0
 191 137 192 133 192 128 c 0
 192 100 147 44 145 -4 c 0
 145 -29 145 -70 150 -70 c 0
 165 -69 184 -4 235 40 c 0
 278 77 314 100 372 100 c 2
 395 100 l 1
 395 0 l 1
 332 0 l 2
 280 0 240 -19 210 -60 c 0
 187 -91 180 -118 180 -141 c 0
 180 -171 191 -196 191 -217 c 0
 191 -228 188 -237 181 -246 c 2
 169 -261 l 2
 160 -272 148 -274 121 -274 c 1
 99 -266 85 -181 82 -119 c 1
 82 -59 100 21 104 34 c 1
 91 26 78 21 60 12 c 0
 43 4 25 0 4 0 c 2
 -21 0 l 1
 -21 100 l 1
EndSplineSet
Ligature: 0 1 'liga' space uni0327
EndChar
StartChar: emdash
Encoding: 208 8212 246
Width: 317
Flags: MW
HStem: 492 20<199 199>
VStem: 273 32<42.5 44>
Fore
-27 -137 m 1
 45 -137 125 -123 181 -78 c 0
 228 -40 273 8 273 44 c 0
 272 73 214 121 213 121 c 1
 235 207 l 1
 236 207 303 165 305 80 c 0
 305 5 244 -178 132 -184 c 1
 52 -184 -11 -150 -27 -137 c 1
148 461 m 1
 199 512 l 1
 250 461 l 1
 199 410 l 1
 148 461 l 1
145 406 m 1
 247 305 l 1
 298 355 l 1
 247 406 l 1
 145 305 l 1
 95 355 l 1
 145 406 l 1
EndSplineSet
EndChar
StartChar: AE
Encoding: 225 198 13
Width: 262
Flags: MW
HStem: 0 100<-21 71> 525 20<169 169>
VStem: 78 170
Fore
143 273 m 1
 132 273 106 250 106 230 c 0
 106 228 107 225 108 222 c 0
 115 211 129 207 143 207 c 0
 160 207 180 214 181 218 c 0
 181 226 165 270 143 273 c 1
111 487 m 1
 169 545 l 1
 226 487 l 1
 169 429 l 1
 111 487 l 1
-21 100 m 1
 95 100 l 2
 126 100 144 102 176 106 c 0
 196 108 209 119 224 129 c 1
 203 178 l 1
 198 173 170 150 139 150 c 0
 128 150 115 152 104 159 c 0
 85 171 78 192 78 217 c 0
 78 276 121 351 155 353 c 1
 204 348 248 225 248 156 c 0
 247 36 132 0 71 0 c 2
 -21 0 l 1
 -21 100 l 1
EndSplineSet
EndChar
StartChar: ordfeminine
Encoding: 227 170 138
Width: 477
Flags: MW
HStem: -381 97 0 100<365 376 376 494> 256 20<92.5 163.5>
VStem: 12 44<-153 -109.5> 270 224
Fore
494 0 m 1
 376 0 l 2
 340 0 316 16 292 43 c 0
 274 62 270 96 270 122 c 0
 270 144 273 162 273 162 c 1
 262 162 80 107 58 -84 c 0
 56 -95 56 -104 56 -115 c 0
 56 -278 219 -291 303 -291 c 1
 516 -284 l 1
 516 -298 l 1
 366 -370 l 2
 362 -372 313 -381 252 -381 c 0
 165 -380 52 -359 25 -247 c 0
 15 -207 12 -170 12 -136 c 0
 12 67 151 174 156 177 c 1
 141 184 128 188 112 188 c 0
 102 188 91 185 78 181 c 0
 52 171 22 129 22 129 c 1
 22 154 29 276 156 276 c 0
 171 276 189 273 210 269 c 0
 230 265 254 263 276 263 c 0
 335 263 391 274 391 274 c 1
 354 176 l 1
 296 167 l 1
 296 167 296 137 300 121 c 1
 311 100 348 100 365 100 c 2
 494 100 l 1
 494 0 l 1
170 -178 m 1
 221 -128 l 1
 272 -178 l 1
 221 -229 l 1
 170 -178 l 1
167 -123 m 1
 117 -73 l 1
 167 -22 l 1
 269 -123 l 1
 320 -73 l 1
 269 -22 l 1
 167 -123 l 1
EndSplineSet
EndChar
StartChar: Oslash
Encoding: 233 216 6
Width: 384
Flags: MW
HStem: 0 100<-19 32> 196 89<77 96.5> 500 20<117 117>
VStem: -21 404
Fore
59 462 m 1
 117 520 l 1
 174 462 l 1
 117 410 l 1
 59 462 l 1
-19 100 m 1
 43 100 l 2
 71 100 89 104 117 111 c 0
 145 119 165 129 189 144 c 1
 185 151 107 196 86 196 c 0
 47 196 27 170 16 170 c 1
 16 199 44 285 110 285 c 0
 155 285 217 222 269 210 c 0
 311 200 339 196 383 196 c 1
 355 102 l 1
 337 102 274 100 247 93 c 0
 202 81 67 0 32 0 c 2
 -21 0 l 1
 -19 100 l 1
EndSplineSet
EndChar
StartChar: OE
Encoding: 234 338 128
Width: 471
Flags: MW
HStem: -225 99<130 203.5> 0 100<417 484>
VStem: 10 39<-47.5 -38>
Fore
390 0 m 1
 390 -71 346 -225 160 -225 c 0
 44 -225 10 -154 10 -80 c 0
 10 4 52 91 69 91 c 1
 69 77 49 27 49 -21 c 0
 49 -74 75 -126 185 -126 c 0
 222 -126 314 -117 353 -59 c 1
 353 -29 350 -8 342 19 c 0
 332 48 321 66 300 89 c 1
 343 167 l 1
 343 163 354 136 369 121 c 0
 388 102 398 100 417 100 c 2
 484 100 l 1
 484 0 l 1
 390 0 l 1
EndSplineSet
EndChar
StartChar: ordmasculine
Encoding: 235 186 131
Width: 512
Flags: MW
HStem: 0 100<-21 21 21 29 425.5 439 439 528> 198 87<128 130.5>
VStem: -21 549<0 100>
Fore
-21 100 m 1
 21 100 l 2
 49 100 93 108 136 121 c 0
 167 130 188 145 213 165 c 1
 204 171 151 198 110 198 c 0
 82 198 43 170 43 170 c 1
 40 170 38 173 38 176 c 0
 38 195 60 259 97 277 c 0
 110 283 122 285 134 285 c 0
 196 285 259 226 337 226 c 0
 373 226 381 228 431 236 c 1
 416 154 l 1
 361 139 l 2
 359 139 358 137 358 134 c 0
 358 129 364 118 368 115 c 0
 381 102 395 100 418 100 c 2
 528 100 l 1
 528 0 l 1
 439 0 l 2
 412 0 368 22 357 41 c 0
 348 56 335 133 335 133 c 1
 300 123 276 117 243 103 c 0
 144 60 99 0 29 0 c 2
 -21 0 l 1
 -21 100 l 1
198 -217 m 1
 248 -166 l 1
 299 -217 l 1
 248 -267 l 1
 198 -217 l 1
195 -162 m 1
 150 -106 l 1
 195 -60 l 1
 296 -162 l 1
 347 -111 l 1
 296 -60 l 1
 195 -162 l 1
EndSplineSet
EndChar
StartChar: ae
Encoding: 241 230 107
Width: 683
Flags: MW
HStem: -25 125 512 20<553 553>
VStem: 595 40
Fore
495 475 m 1
 553 532 l 1
 610 475 l 1
 553 417 l 1
 495 475 l 1
523 53 m 1
 497 38 469 21 409 4 c 0
 343 -15 283 -25 229 -25 c 0
 160 -25 103 -8 62 25 c 0
 26 53 14 91 14 126 c 0
 14 196 60 263 74 263 c 1
 74 250 52 217 52 184 c 0
 52 177 53 170 56 163 c 0
 84 99 152 69 262 69 c 1
 392 73 483 106 483 106 c 1
 480 115 471 130 471 156 c 0
 471 165 472 173 473 182 c 0
 491 263 551 329 588 329 c 0
 599 329 608 325 613 316 c 0
 630 288 635 261 635 235 c 0
 635 202 626 171 616 154 c 1
 604 129 586 108 586 108 c 1
 632 100 l 1
 705 100 l 1
 705 0 l 1
 636 0 l 2
 620 0 591 8 572 18 c 0
 551 29 538 37 523 53 c 1
595 178 m 0
 594 210 573 229 553 229 c 0
 547 229 540 228 535 224 c 0
 505 206 495 188 495 174 c 0
 495 145 536 128 538 128 c 1
 538 128 595 156 595 178 c 0
EndSplineSet
EndChar
StartChar: oslash
Encoding: 249 248 94
Width: 477
Flags: MW
HStem: -381 97 0 100<365 376 376 494> 503 20<165 165>
VStem: 12 44<-153 -109.5> 270 224
Fore
107 465 m 1
 165 523 l 1
 222 465 l 1
 165 413 l 1
 107 465 l 1
494 0 m 1
 376 0 l 2
 340 0 316 16 292 43 c 0
 274 62 270 96 270 122 c 0
 270 144 273 162 273 162 c 1
 262 162 80 107 58 -84 c 0
 56 -95 56 -104 56 -115 c 0
 56 -278 219 -291 303 -291 c 1
 516 -284 l 1
 516 -298 l 1
 366 -370 l 2
 362 -372 313 -381 252 -381 c 0
 165 -380 52 -359 25 -247 c 0
 15 -207 12 -170 12 -136 c 0
 12 67 151 174 156 177 c 1
 141 184 128 188 112 188 c 0
 102 188 91 185 78 181 c 0
 52 171 22 129 22 129 c 1
 22 154 29 276 156 276 c 0
 171 276 189 273 210 269 c 0
 230 265 254 263 276 263 c 0
 335 263 391 274 391 274 c 1
 354 176 l 1
 296 167 l 1
 296 167 296 137 300 121 c 1
 311 100 348 100 365 100 c 2
 494 100 l 1
 494 0 l 1
EndSplineSet
EndChar
StartChar: oe
Encoding: 250 339 133
Width: 376
Flags: MW
HStem: -165 95<156 188.5> 226 20<298 298>
VStem: 8 40<1 9>
Fore
156 -165 m 1
 41 -163 8 -97 8 -29 c 0
 8 47 48 123 64 123 c 1
 64 110 48 66 48 25 c 0
 48 -23 71 -70 170 -70 c 0
 207 -70 303 -38 325 4 c 1
 325 36 320 55 307 84 c 0
 296 110 284 128 263 147 c 1
 298 246 l 1
 299 243 362 159 362 33 c 1
 357 -55 276 -165 156 -165 c 1
EndSplineSet
EndChar
StartChar: germandbls
Encoding: 251 223 150
Width: 481
Flags: MW
HStem: 564 20<422.5 428>
VStem: 215 195<77.5 99>
Fore
295 82 m 1
 376 88 l 1
 376 88 383 89 383 115 c 1
 377 139 361 165 361 165 c 1
 361 165 346 141 337 130 c 0
 322 114 322 111 295 82 c 1
385 299 m 0
 395 377 395 417 395 457 c 1
 374 469 l 1
 374 486 417 584 428 584 c 0
 431 583 431 580 431 576 c 0
 431 567 427 547 427 531 c 0
 428 523 457 501 468 499 c 1
 466 473 l 1
 440 410 l 1
 425 410 l 1
 425 396 417 313 409 265 c 0
 405 240 383 200 383 200 c 1
 383 200 405 163 407 139 c 0
 409 125 410 110 410 88 c 0
 410 67 409 43 401 11 c 0
 399 3 324 -5 270 -5 c 0
 240 -5 215 -3 215 4 c 2
 215 99 l 1
 255 89 l 1
 269 100 287 117 302 134 c 0
 320 155 337 181 344 193 c 1
 325 222 317 233 288 270 c 0
 252 317 167 406 165 407 c 1
 151 395 139 385 119 385 c 1
 84 391 45 439 45 486 c 0
 45 505 52 524 69 539 c 0
 73 543 78 545 85 545 c 0
 133 545 232 428 300 335 c 0
 326 298 366 235 366 235 c 1
 366 235 377 241 385 299 c 0
295 -154 m 0
 291 -159 287 -160 283 -160 c 0
 273 -160 266 -152 255 -152 c 0
 248 -152 241 -155 233 -162 c 0
 222 -170 219 -176 219 -181 c 0
 219 -198 254 -202 262 -202 c 2
 335 -202 l 1
 313 -239 l 1
 287 -239 259 -239 241 -247 c 0
 224 -255 209 -265 195 -277 c 1
 189 -267 l 1
 195 -258 195 -247 200 -235 c 1
 200 -224 181 -203 181 -185 c 1
 184 -166 259 -111 274 -111 c 1
 288 -114 300 -125 300 -137 c 0
 300 -143 299 -148 295 -154 c 0
EndSplineSet
EndChar
StartChar: Acircumflex
Encoding: 256 194 1
Width: 181
Flags: MW
HStem: 0 100<-21 62> 239 20<139 139>
VStem: -21 190
Fore
53 -104 m 1
 111 -47 l 1
 169 -104 l 1
 111 -162 l 1
 53 -104 l 1
-21 100 m 1
 115 100 l 2
 123 100 128 111 130 119 c 1
 130 128 114 177 108 180 c 1
 139 259 l 1
 156 235 169 198 169 158 c 0
 169 132 163 106 152 80 c 0
 136 44 93 0 62 0 c 2
 -21 0 l 1
 -21 100 l 1
EndSplineSet
Ligature: 0 0 'liga' A uni0302
EndChar
StartChar: Ocircumflex
Encoding: 257 212 2
Width: 230
Flags: MW
HStem: 0 100<-21 62> 409 20<74 74 176 176>
VStem: -21 247
Fore
74 429 m 1
 176 328 l 1
 226 379 l 1
 176 429 l 1
 74 328 l 1
 23 379 l 1
 74 429 l 1
-21 100 m 1
 115 100 l 2
 123 100 128 111 130 119 c 1
 130 128 114 177 108 180 c 1
 139 259 l 1
 156 235 169 198 169 158 c 0
 169 132 163 106 152 80 c 0
 136 44 93 0 62 0 c 2
 -21 0 l 1
 -21 100 l 1
EndSplineSet
Ligature: 0 0 'liga' O uni0302
EndChar
StartChar: Odieresis
Encoding: 258 214 3
Width: 241
Flags: MW
HStem: 0 100<-21 62> 529 20<129 129>
VStem: -21 249
Fore
75 443 m 1
 177 342 l 1
 228 392 l 1
 177 443 l 1
 75 342 l 1
 25 392 l 1
 75 443 l 1
78 498 m 1
 129 549 l 1
 180 498 l 1
 129 447 l 1
 78 498 l 1
-21 100 m 1
 115 100 l 2
 123 100 128 111 130 119 c 1
 130 128 114 177 108 180 c 1
 139 259 l 1
 156 235 169 198 169 158 c 0
 169 132 163 106 152 80 c 0
 136 44 93 0 62 0 c 2
 -21 0 l 1
 -21 100 l 1
EndSplineSet
Ligature: 0 0 'liga' O uni0308
EndChar
StartChar: Ecircumflex
Encoding: 259 202 4
Width: 384
Flags: MW
HStem: 0 100<-19 32> 196 89<77 96.5>
VStem: -21 404
Fore
159 -97 m 1
 210 -47 l 1
 261 -97 l 1
 210 -148 l 1
 159 -97 l 1
-19 100 m 1
 43 100 l 2
 71 100 89 104 117 111 c 0
 145 119 165 129 189 144 c 1
 185 151 107 196 86 196 c 0
 47 196 27 170 16 170 c 1
 16 199 44 285 110 285 c 0
 155 285 217 222 269 210 c 0
 311 200 339 196 383 196 c 1
 355 102 l 1
 337 102 274 100 247 93 c 0
 202 81 67 0 32 0 c 2
 -21 0 l 1
 -19 100 l 1
EndSplineSet
Ligature: 0 0 'liga' E uni0302
EndChar
StartChar: Agrave
Encoding: 260 192 5
Width: 384
Flags: MW
HStem: 0 100<-19 32> 196 89<77 96.5>
VStem: -21 404
Fore
-19 100 m 1
 43 100 l 2
 71 100 89 104 117 111 c 0
 145 119 165 129 189 144 c 1
 185 151 107 196 86 196 c 0
 47 196 27 170 16 170 c 1
 16 199 44 285 110 285 c 0
 155 285 217 222 269 210 c 0
 311 200 339 196 383 196 c 1
 355 102 l 1
 337 102 274 100 247 93 c 0
 202 81 67 0 32 0 c 2
 -21 0 l 1
 -19 100 l 1
EndSplineSet
Ligature: 0 0 'liga' A gravecomb
EndChar
StartChar: Oacute
Encoding: 261 211 7
Width: 440
Flags: MW
HStem: -1 108 204 20<422 422>
VStem: -21 456
Fore
-21 100 m 1
 26 100 l 2
 53 100 69 108 82 121 c 0
 100 137 110 180 119 180 c 1
 122 178 123 174 123 169 c 0
 123 162 122 154 122 144 c 0
 122 119 130 92 189 92 c 0
 285 93 298 193 317 193 c 0
 318 193 320 187 320 180 c 0
 318 166 314 145 313 134 c 0
 313 126 347 107 403 107 c 0
 405 107 406 111 406 115 c 0
 406 130 399 158 392 163 c 1
 422 224 l 1
 431 218 435 196 435 169 c 0
 435 123 422 60 396 27 c 0
 387 15 376 11 365 11 c 0
 335 11 303 48 287 48 c 0
 285 48 283 47 281 45 c 0
 250 11 219 -1 192 -1 c 0
 144 -1 108 34 89 34 c 1
 75 18 51 0 22 0 c 2
 -21 0 l 1
 -21 100 l 1
EndSplineSet
Ligature: 0 0 'liga' O acutecomb
EndChar
StartChar: multiply
Encoding: 262 215 8
Width: 440
Flags: MW
HStem: -1 108 477 20<281 281>
VStem: -21 456
Fore
228 391 m 1
 329 289 l 1
 380 340 l 1
 329 391 l 1
 228 289 l 1
 177 340 l 1
 228 391 l 1
230 446 m 1
 281 497 l 1
 332 446 l 1
 281 395 l 1
 230 446 l 1
-21 100 m 1
 26 100 l 2
 53 100 69 108 82 121 c 0
 100 137 110 180 119 180 c 1
 122 178 123 174 123 169 c 0
 123 162 122 154 122 144 c 0
 122 119 130 92 189 92 c 0
 285 93 298 193 317 193 c 0
 318 193 320 187 320 180 c 0
 318 166 314 145 313 134 c 0
 313 126 347 107 403 107 c 0
 405 107 406 111 406 115 c 0
 406 130 399 158 392 163 c 1
 422 224 l 1
 431 218 435 196 435 169 c 0
 435 123 422 60 396 27 c 0
 387 15 376 11 365 11 c 0
 335 11 303 48 287 48 c 0
 285 48 283 47 281 45 c 0
 250 11 219 -1 192 -1 c 0
 144 -1 108 34 89 34 c 1
 75 18 51 0 22 0 c 2
 -21 0 l 1
 -21 100 l 1
EndSplineSet
EndChar
StartChar: Ugrave
Encoding: 263 217 9
Width: 424
Flags: MW
HStem: 0 100<-21 19 71 92> 614 20<130 134>
VStem: 97 40<207 453>
Fore
252 219 m 1
 178 211 71 100 71 100 c 1
 150 100 310 114 350 176 c 1
 350 193 299 219 252 219 c 1
-21 100 m 1
 19 100 l 1
 97 178 l 1
 97 490 l 1
 85 499 73 512 71 528 c 1
 71 550 126 634 134 634 c 1
 134 624 132 609 132 595 c 0
 132 586 133 576 139 569 c 0
 148 557 163 542 181 539 c 1
 150 453 l 1
 137 453 l 1
 137 207 l 1
 137 207 258 306 313 310 c 1
 355 310 401 284 409 254 c 1
 409 184 361 89 258 43 c 0
 213 22 158 0 92 0 c 2
 -21 0 l 1
 -21 100 l 1
EndSplineSet
Ligature: 0 0 'liga' U gravecomb
EndChar
StartChar: Eth
Encoding: 264 208 10
Width: 424
Flags: MW
HStem: 0 100<-21 19 71 92> 614 20<130 134>
VStem: 97 40<207 453>
Fore
204 421 m 1
 262 479 l 1
 320 421 l 1
 262 364 l 1
 204 421 l 1
252 219 m 1
 178 211 71 100 71 100 c 1
 150 100 310 114 350 176 c 1
 350 193 299 219 252 219 c 1
-21 100 m 1
 19 100 l 1
 97 178 l 1
 97 490 l 1
 85 499 73 512 71 528 c 1
 71 550 126 634 134 634 c 1
 134 624 132 609 132 595 c 0
 132 586 133 576 139 569 c 0
 148 557 163 542 181 539 c 1
 150 453 l 1
 137 453 l 1
 137 207 l 1
 137 207 258 306 313 310 c 1
 355 310 401 284 409 254 c 1
 409 184 361 89 258 43 c 0
 213 22 158 0 92 0 c 2
 -21 0 l 1
 -21 100 l 1
EndSplineSet
EndChar
StartChar: Idieresis
Encoding: 265 207 11
Width: 401
Flags: MW
HStem: 0 100<-21 30> 315 20<186.5 245>
VStem: -21 409
Fore
-21 100 m 1
 111 100 l 1
 97 130 95 154 95 188 c 1
 100 262 156 335 217 335 c 0
 273 335 320 299 335 246 c 1
 307 261 288 266 258 266 c 0
 250 266 240 266 229 265 c 0
 188 262 139 229 132 215 c 1
 132 202 176 118 240 118 c 0
 246 118 251 119 258 121 c 2
 388 155 l 1
 359 69 l 1
 270 43 215 32 123 14 c 0
 89 8 66 0 30 0 c 2
 -21 0 l 1
 -21 100 l 1
EndSplineSet
Ligature: 0 0 'liga' I uni0308
EndChar
StartChar: Ccedilla
Encoding: 266 199 12
Width: 401
Flags: MW
HStem: 0 100<-21 30> 512 20<213 213>
VStem: -21 409
Fore
155 475 m 1
 213 532 l 1
 270 475 l 1
 213 417 l 1
 155 475 l 1
-21 100 m 1
 111 100 l 1
 97 130 95 154 95 188 c 1
 100 262 156 335 217 335 c 0
 273 335 320 299 335 246 c 1
 307 261 288 266 258 266 c 0
 250 266 240 266 229 265 c 0
 188 262 139 229 132 215 c 1
 132 202 176 118 240 118 c 0
 246 118 251 119 258 121 c 2
 388 155 l 1
 359 69 l 1
 270 43 215 32 123 14 c 0
 89 8 66 0 30 0 c 2
 -21 0 l 1
 -21 100 l 1
EndSplineSet
Ligature: 0 0 'liga' C uni0327
EndChar
StartChar: Ntilde
Encoding: 267 209 14
Width: 274
Flags: MW
HStem: 0 100<-21 71> 499 20<108 108 210 210>
VStem: 78 170
Fore
143 273 m 1
 132 273 106 250 106 230 c 0
 106 228 107 225 108 222 c 0
 115 211 129 207 143 207 c 0
 160 207 180 214 181 218 c 0
 181 226 165 270 143 273 c 1
108 519 m 1
 210 417 l 1
 261 468 l 1
 210 519 l 1
 108 417 l 1
 58 468 l 1
 108 519 l 1
-21 100 m 1
 95 100 l 2
 126 100 144 102 176 106 c 0
 196 108 209 119 224 129 c 1
 203 178 l 1
 198 173 170 150 139 150 c 0
 128 150 115 152 104 159 c 0
 85 171 78 192 78 217 c 0
 78 276 121 351 155 353 c 1
 204 348 248 225 248 156 c 0
 247 36 132 0 71 0 c 2
 -21 0 l 1
 -21 100 l 1
EndSplineSet
Ligature: 0 0 'liga' N tildecomb
EndChar
StartChar: Edieresis
Encoding: 268 203 15
Width: 340
Flags: MW
HStem: 0 100<-21 63> 586 20<364 377>
VStem: 192 44
Fore
-21 100 m 1
 66 100 l 2
 118 100 192 115 192 150 c 1
 188 246 21 239 21 344 c 0
 21 354 23 365 26 377 c 0
 52 476 351 606 377 606 c 1
 359 521 l 1
 351 521 63 383 63 362 c 1
 66 358 236 298 236 167 c 0
 236 156 235 145 232 133 c 0
 211 38 148 0 63 0 c 2
 -21 0 l 1
 -21 100 l 1
EndSplineSet
Ligature: 0 0 'liga' E uni0308
EndChar
StartChar: Igrave
Encoding: 269 204 16
Width: 181
Flags: MW
HStem: 0 100<-21 21 21 26.5> 584 20<121.5 128>
VStem: -21 191
Fore
-21 100 m 1
 21 100 l 2
 32 100 53 102 70 104 c 0
 88 107 107 117 107 117 c 1
 91 454 l 1
 91 454 60 488 60 501 c 0
 62 517 115 604 128 604 c 1
 130 601 132 598 132 594 c 0
 132 583 125 568 125 547 c 1
 132 523 169 495 170 495 c 1
 148 427 l 1
 141 417 l 1
 151 215 l 1
 151 160 144 107 128 74 c 1
 104 30 81 0 30 0 c 2
 -21 0 l 1
 -21 100 l 1
EndSplineSet
Ligature: 0 0 'liga' I gravecomb
EndChar
StartChar: Iacute
Encoding: 270 205 17
Width: 325
Flags: MW
HStem: 0 100<-21 14 14 28.5> 203 74<210 225.5>
VStem: -21 334
Fore
261 121 m 1
 261 152 241 203 210 203 c 0
 188 203 165 158 165 156 c 0
 165 148 213 112 243 112 c 0
 251 112 257 115 261 121 c 1
-21 100 m 1
 14 100 l 2
 43 100 67 100 89 118 c 0
 144 165 184 277 236 277 c 0
 263 276 313 180 313 143 c 1
 310 92 294 37 246 32 c 1
 196 32 129 82 129 82 c 1
 129 81 115 48 99 26 c 0
 86 10 60 0 34 0 c 2
 -21 0 l 1
 -21 100 l 1
EndSplineSet
Ligature: 0 0 'liga' I acutecomb
EndChar
StartChar: Icircumflex
Encoding: 271 206 18
Width: 195
Flags: MW
HStem: 0 100<-21 62> 459 20<123 123>
VStem: -21 202
Fore
66 421 m 1
 123 479 l 1
 181 421 l 1
 123 364 l 1
 66 421 l 1
-21 100 m 1
 115 100 l 2
 123 100 128 111 130 119 c 1
 130 128 114 177 108 180 c 1
 139 259 l 1
 156 235 169 198 169 158 c 0
 169 132 163 106 152 80 c 0
 136 44 93 0 62 0 c 2
 -21 0 l 1
 -21 100 l 1
EndSplineSet
Ligature: 0 0 'liga' I uni0302
EndChar
StartChar: Egrave
Encoding: 272 200 19
Width: 328
Flags: MW
HStem: 0 20 359 20<119 119>
VStem: -21 337
Fore
126 237 m 0
 114 237 74 192 74 170 c 1
 80 159 103 150 125 150 c 0
 144 150 162 156 169 173 c 1
 169 198 137 236 126 237 c 0
192 219 m 1
 198 204 199 192 199 176 c 0
 199 160 193 150 187 137 c 1
 189 132 244 118 274 118 c 0
 284 118 291 119 292 123 c 0
 292 145 207 219 192 219 c 1
-21 100 m 1
 -21 100 30 100 38 102 c 0
 47 106 52 111 55 117 c 1
 48 137 47 140 47 174 c 0
 49 213 91 266 91 266 c 1
 77 280 l 1
 75 294 l 1
 108 372 l 1
 119 379 l 1
 263 261 l 2
 281 247 313 206 314 187 c 0
 314 174 316 163 316 154 c 0
 316 100 306 73 287 55 c 0
 280 49 263 47 241 47 c 0
 192 47 122 59 122 59 c 1
 122 59 91 30 67 19 c 0
 48 10 33 0 11 0 c 2
 -21 0 l 1
 -21 100 l 1
EndSplineSet
Ligature: 0 0 'liga' E gravecomb
EndChar
StartChar: Eacute
Encoding: 273 201 20
Width: 218
Flags: MW
HStem: 0 100<-21 62> 239 20<139 139>
VStem: -21 225
Fore
73 -67 m 1
 160 -155 l 1
 204 -111 l 1
 160 -67 l 1
 73 -155 l 1
 29 -111 l 1
 73 -67 l 1
-21 100 m 1
 115 100 l 2
 123 100 128 111 130 119 c 1
 130 128 114 177 108 180 c 1
 139 259 l 1
 156 235 169 198 169 158 c 0
 169 132 163 106 152 80 c 0
 136 44 93 0 62 0 c 2
 -21 0 l 1
 -21 100 l 1
EndSplineSet
Ligature: 0 0 'liga' E acutecomb
EndChar
StartChar: plusminus
Encoding: 274 177 21
Width: 236
Flags: MW
HStem: 0 100<-21 30 204 250> 412 20<126.5 134>
VStem: -21 271<0 100>
Fore
155 390 m 0
 151 384 147 383 143 383 c 0
 133 383 126 391 115 391 c 0
 108 391 102 388 93 381 c 0
 84 373 81 368 81 362 c 0
 81 346 114 342 122 342 c 2
 195 342 l 1
 173 305 l 1
 147 305 119 305 102 296 c 0
 84 288 69 278 55 266 c 1
 49 276 l 1
 55 285 55 296 60 309 c 1
 60 320 41 340 41 358 c 1
 44 377 119 432 134 432 c 1
 148 429 162 418 162 406 c 0
 162 401 160 395 155 390 c 0
-21 100 m 1
 41 100 l 2
 56 100 67 102 81 106 c 0
 111 117 115 181 139 181 c 1
 139 173 139 163 139 152 c 0
 139 141 140 130 145 122 c 0
 156 104 181 100 204 100 c 2
 250 100 l 1
 250 0 l 1
 193 0 l 2
 173 0 155 15 137 30 c 0
 125 40 118 49 110 63 c 1
 104 51 93 36 80 25 c 0
 64 12 51 0 30 0 c 2
 -21 0 l 1
 -21 100 l 1
EndSplineSet
EndChar
StartChar: c1
Encoding: 275 -1 30
Width: 656
Flags: W
Fore
151 -95 m 1
 209 -43 l 1
 266 -100 l 1
 209 -158 l 1
 151 -95 l 1
494 0 m 1
 376 0 l 2
 340 0 316 16 292 43 c 0
 274 62 270 96 270 122 c 0
 270 144 273 162 273 162 c 1
 262 162 80 107 58 -84 c 0
 56 -95 56 -104 56 -115 c 0
 56 -278 219 -291 303 -291 c 1
 516 -284 l 1
 516 -298 l 1
 366 -370 l 2
 362 -372 313 -381 252 -381 c 0
 165 -380 52 -359 25 -247 c 0
 15 -207 12 -170 12 -136 c 0
 12 67 151 174 156 177 c 1
 141 184 128 188 112 188 c 0
 102 188 91 185 78 181 c 0
 52 171 22 129 22 129 c 1
 22 154 29 276 156 276 c 0
 171 276 189 273 210 269 c 0
 230 265 254 263 276 263 c 0
 335 263 391 274 391 274 c 1
 354 176 l 1
 296 167 l 1
 296 167 296 137 300 121 c 1
 311 100 348 100 365 100 c 2
 494 100 l 1
 494 0 l 1
543 421 m 1
 600 479 l 1
 658 421 l 1
 600 364 l 1
 543 421 l 1
456 100 m 1
 592 100 l 2
 600 100 605 111 607 119 c 1
 607 128 591 177 585 180 c 1
 616 259 l 1
 633 235 646 198 646 158 c 0
 646 132 640 106 629 80 c 0
 613 44 570 0 539 0 c 2
 456 0 l 1
 456 100 l 1
EndSplineSet
EndChar
StartChar: c2
Encoding: 276 -1 31
Width: 704
Flags: W
Fore
151 -95 m 1
 209 -43 l 1
 266 -100 l 1
 209 -158 l 1
 151 -95 l 1
494 0 m 1
 376 0 l 2
 340 0 316 16 292 43 c 0
 274 62 270 96 270 122 c 0
 270 144 273 162 273 162 c 1
 262 162 80 107 58 -84 c 0
 56 -95 56 -104 56 -115 c 0
 56 -278 219 -291 303 -291 c 1
 516 -284 l 1
 516 -298 l 1
 366 -370 l 2
 362 -372 313 -381 252 -381 c 0
 165 -380 52 -359 25 -247 c 0
 15 -207 12 -170 12 -136 c 0
 12 67 151 174 156 177 c 1
 141 184 128 188 112 188 c 0
 102 188 91 185 78 181 c 0
 52 171 22 129 22 129 c 1
 22 154 29 276 156 276 c 0
 171 276 189 273 210 269 c 0
 230 265 254 263 276 263 c 0
 335 263 391 274 391 274 c 1
 354 176 l 1
 296 167 l 1
 296 167 296 137 300 121 c 1
 311 100 348 100 365 100 c 2
 494 100 l 1
 494 0 l 1
551 429 m 1
 653 328 l 1
 703 379 l 1
 653 429 l 1
 551 328 l 1
 500 379 l 1
 551 429 l 1
456 100 m 1
 592 100 l 2
 600 100 605 111 607 119 c 1
 607 128 591 177 585 180 c 1
 616 259 l 1
 633 235 646 198 646 158 c 0
 646 132 640 106 629 80 c 0
 613 44 570 0 539 0 c 2
 456 0 l 1
 456 100 l 1
EndSplineSet
EndChar
StartChar: c3
Encoding: 277 -1 32
Width: 704
Flags: W
Fore
494 0 m 1
 376 0 l 2
 340 0 316 16 292 43 c 0
 274 62 270 96 270 122 c 0
 270 144 273 162 273 162 c 1
 262 162 80 107 58 -84 c 0
 56 -95 56 -104 56 -115 c 0
 56 -278 219 -291 303 -291 c 1
 516 -284 l 1
 516 -298 l 1
 366 -370 l 2
 362 -372 313 -381 252 -381 c 0
 165 -380 52 -359 25 -247 c 0
 15 -207 12 -170 12 -136 c 0
 12 67 151 174 156 177 c 1
 141 184 128 188 112 188 c 0
 102 188 91 185 78 181 c 0
 52 171 22 129 22 129 c 1
 22 154 29 276 156 276 c 0
 171 276 189 273 210 269 c 0
 230 265 254 263 276 263 c 0
 335 263 391 274 391 274 c 1
 354 176 l 1
 296 167 l 1
 296 167 296 137 300 121 c 1
 311 100 348 100 365 100 c 2
 494 100 l 1
 494 0 l 1
551 429 m 1
 653 328 l 1
 703 379 l 1
 653 429 l 1
 551 328 l 1
 500 379 l 1
 551 429 l 1
456 100 m 1
 592 100 l 2
 600 100 605 111 607 119 c 1
 607 128 591 177 585 180 c 1
 616 259 l 1
 633 235 646 198 646 158 c 0
 646 132 640 106 629 80 c 0
 613 44 570 0 539 0 c 2
 456 0 l 1
 456 100 l 1
EndSplineSet
EndChar
StartChar: c4
Encoding: 278 -1 33
Width: 540
Flags: MW
HStem: 0 100<-21 -21> 608 20<428 428>
VStem: -21 548
Fore
77 -128 m 1
 134 -70 l 1
 192 -128 l 1
 134 -185 l 1
 77 -128 l 1
370 571 m 1
 428 628 l 1
 486 571 l 1
 428 513 l 1
 370 571 l 1
-21 100 m 1
 -3 99 12 99 29 99 c 0
 67 99 100 104 144 111 c 1
 195 122 225 133 272 156 c 1
 52 198 l 1
 62 228 71 257 99 273 c 0
 133 294 224 294 292 332 c 0
 365 373 405 471 438 471 c 1
 466 469 483 424 483 380 c 0
 483 344 472 309 451 300 c 1
 442 300 446 369 422 381 c 1
 409 381 374 331 344 309 c 0
 309 283 284 266 243 248 c 1
 272 241 332 226 387 218 c 0
 439 211 473 206 527 204 c 1
 481 107 l 1
 446 107 428 111 405 111 c 0
 381 111 353 107 295 86 c 0
 247 70 136 -1 56 -1 c 2
 -21 0 l 1
 -21 100 l 1
EndSplineSet
EndChar
StartChar: c5
Encoding: 279 -1 34
Width: 540
Flags: MW
HStem: 0 100<-21 -21> 586 20<374 374 476 476>
VStem: -21 548
Fore
374 606 m 1
 476 505 l 1
 527 556 l 1
 476 606 l 1
 374 505 l 1
 324 556 l 1
 374 606 l 1
-21 100 m 1
 -3 99 12 99 29 99 c 0
 67 99 100 104 144 111 c 1
 195 122 225 133 272 156 c 1
 52 198 l 1
 62 228 71 257 99 273 c 0
 133 294 224 294 292 332 c 0
 365 373 405 471 438 471 c 1
 466 469 483 424 483 380 c 0
 483 344 472 309 451 300 c 1
 442 300 446 369 422 381 c 1
 409 381 374 331 344 309 c 0
 309 283 284 266 243 248 c 1
 272 241 332 226 387 218 c 0
 439 211 473 206 527 204 c 1
 481 107 l 1
 446 107 428 111 405 111 c 0
 381 111 353 107 295 86 c 0
 247 70 136 -1 56 -1 c 2
 -21 0 l 1
 -21 100 l 1
EndSplineSet
EndChar
StartChar: c6
Encoding: 280 -1 35
Width: 540
Flags: MW
HStem: 0 100<-21 -21> 586 20<374 374 476 476>
VStem: -21 548
Fore
77 -128 m 1
 134 -70 l 1
 192 -128 l 1
 134 -185 l 1
 77 -128 l 1
374 606 m 1
 476 505 l 1
 527 556 l 1
 476 606 l 1
 374 505 l 1
 324 556 l 1
 374 606 l 1
-21 100 m 1
 -3 99 12 99 29 99 c 0
 67 99 100 104 144 111 c 1
 195 122 225 133 272 156 c 1
 52 198 l 1
 62 228 71 257 99 273 c 0
 133 294 224 294 292 332 c 0
 365 373 405 471 438 471 c 1
 466 469 483 424 483 380 c 0
 483 344 472 309 451 300 c 1
 442 300 446 369 422 381 c 1
 409 381 374 331 344 309 c 0
 309 283 284 266 243 248 c 1
 272 241 332 226 387 218 c 0
 439 211 473 206 527 204 c 1
 481 107 l 1
 446 107 428 111 405 111 c 0
 381 111 353 107 295 86 c 0
 247 70 136 -1 56 -1 c 2
 -21 0 l 1
 -21 100 l 1
EndSplineSet
EndChar
StartChar: c7
Encoding: 281 -1 36
Width: 475
Flags: MW
HStem: 0 100<-21 38> 578 20<236.5 240>
VStem: 211 54<334.5 370.5>
Fore
170 -91 m 1
 228 -33 l 1
 285 -91 l 1
 228 -148 l 1
 170 -91 l 1
-21 100 m 1
 49 100 l 2
 82 100 103 102 134 108 c 0
 166 115 185 123 214 139 c 1
 41 184 l 1
 85 250 l 1
 211 261 l 1
 211 462 l 1
 206 465 180 491 180 505 c 0
 180 525 233 598 240 598 c 0
 241 597 243 595 243 593 c 0
 243 586 240 576 240 561 c 1
 251 538 288 514 288 514 c 1
 272 447 l 1
 255 447 l 1
 261 428 265 390 265 351 c 0
 265 318 262 284 255 266 c 0
 248 246 240 229 230 211 c 1
 267 199 292 188 331 184 c 0
 380 177 412 169 462 167 c 1
 420 78 l 1
 414 80 350 91 302 91 c 1
 214 75 95 0 38 0 c 2
 -21 0 l 1
 -21 100 l 1
EndSplineSet
EndChar
StartChar: c8
Encoding: 282 -1 37
Width: 475
Flags: MW
HStem: 0 100<-21 38> 578 20<236.5 240>
VStem: 211 54<334.5 370.5>
Fore
-21 100 m 1
 49 100 l 2
 82 100 103 102 134 108 c 0
 166 115 185 123 214 139 c 1
 41 184 l 1
 85 250 l 1
 211 261 l 1
 211 462 l 1
 206 465 180 491 180 505 c 0
 180 525 233 598 240 598 c 0
 241 597 243 595 243 593 c 0
 243 586 240 576 240 561 c 1
 251 538 288 514 288 514 c 1
 272 447 l 1
 255 447 l 1
 261 428 265 390 265 351 c 0
 265 318 262 284 255 266 c 0
 248 246 240 229 230 211 c 1
 267 199 292 188 331 184 c 0
 380 177 412 169 462 167 c 1
 420 78 l 1
 414 80 350 91 302 91 c 1
 214 75 95 0 38 0 c 2
 -21 0 l 1
 -21 100 l 1
EndSplineSet
EndChar
StartChar: c11
Encoding: 283 -1 38
Width: 475
Flags: MW
HStem: 0 100<-21 38> 578 20<236.5 240>
VStem: 211 54<334.5 370.5>
Fore
38 381 m 1
 96 439 l 1
 154 381 l 1
 96 324 l 1
 38 381 l 1
-21 100 m 1
 49 100 l 2
 82 100 103 102 134 108 c 0
 166 115 185 123 214 139 c 1
 41 184 l 1
 85 250 l 1
 211 261 l 1
 211 462 l 1
 206 465 180 491 180 505 c 0
 180 525 233 598 240 598 c 0
 241 597 243 595 243 593 c 0
 243 586 240 576 240 561 c 1
 251 538 288 514 288 514 c 1
 272 447 l 1
 255 447 l 1
 261 428 265 390 265 351 c 0
 265 318 262 284 255 266 c 0
 248 246 240 229 230 211 c 1
 267 199 292 188 331 184 c 0
 380 177 412 169 462 167 c 1
 420 78 l 1
 414 80 350 91 302 91 c 1
 214 75 95 0 38 0 c 2
 -21 0 l 1
 -21 100 l 1
EndSplineSet
EndChar
StartChar: c12
Encoding: 284 -1 39
Width: 252
Flags: MW
HStem: 0 100<-21 19> 595 20<108 108>
VStem: -21 254<79 89>
Fore
-21 0 m 1
 -21 100 l 1
 51 100 l 2
 60 100 97 114 102 122 c 1
 102 133 99 140 92 147 c 1
 74 483 l 1
 52 508 l 1
 108 615 l 1
 121 612 l 1
 121 612 121 560 125 546 c 1
 133 528 147 513 165 505 c 1
 134 433 l 1
 123 435 l 1
 130 273 l 1
 132 233 137 203 152 163 c 0
 162 139 228 91 233 89 c 1
 233 69 232 52 225 34 c 0
 217 15 206 1 188 -11 c 1
 188 -11 140 29 107 29 c 1
 59 25 38 0 19 0 c 2
 -21 0 l 1
EndSplineSet
EndChar
StartChar: c14
Encoding: 285 -1 40
Width: 525
Flags: W
Fore
361 0 m 1
 314 0 l 2
 294 0 280 11 262 18 c 0
 251 22 241 29 232 34 c 1
 232 5 228 -63 181 -63 c 0
 136 -63 117 45 117 48 c 1
 117 48 88 45 74 40 c 0
 62 34 51 25 43 12 c 1
 69 -337 l 1
 44 -399 l 1
 8 -15 l 1
 8 18 49 91 73 117 c 0
 95 140 163 155 165 155 c 1
 165 165 166 174 171 181 c 0
 174 185 180 188 185 189 c 1
 195 159 210 139 236 122 c 0
 261 106 283 100 313 100 c 2
 361 100 l 1
 361 0 l 1
413 421 m 1
 470 479 l 1
 528 421 l 1
 470 364 l 1
 413 421 l 1
326 100 m 1
 462 100 l 2
 470 100 475 111 477 119 c 1
 477 128 461 177 455 180 c 1
 486 259 l 1
 503 235 516 198 516 158 c 0
 516 132 510 106 499 80 c 0
 483 44 440 0 409 0 c 2
 326 0 l 1
 326 100 l 1
EndSplineSet
EndChar
StartChar: c15
Encoding: 286 -1 41
Width: 525
Flags: W
Fore
361 0 m 1
 314 0 l 2
 294 0 280 11 262 18 c 0
 251 22 241 29 232 34 c 1
 232 5 228 -63 181 -63 c 0
 136 -63 117 45 117 48 c 1
 117 48 88 45 74 40 c 0
 62 34 51 25 43 12 c 1
 69 -337 l 1
 44 -399 l 1
 8 -15 l 1
 8 18 49 91 73 117 c 0
 95 140 163 155 165 155 c 1
 165 165 166 174 171 181 c 0
 174 185 180 188 185 189 c 1
 195 159 210 139 236 122 c 0
 261 106 283 100 313 100 c 2
 361 100 l 1
 361 0 l 1
400 -104 m 1
 458 -47 l 1
 516 -104 l 1
 458 -162 l 1
 400 -104 l 1
326 100 m 1
 462 100 l 2
 470 100 475 111 477 119 c 1
 477 128 461 177 455 180 c 1
 486 259 l 1
 503 235 516 198 516 158 c 0
 516 132 510 106 499 80 c 0
 483 44 440 0 409 0 c 2
 326 0 l 1
 326 100 l 1
EndSplineSet
EndChar
StartChar: c16
Encoding: 287 -1 42
Width: 573
Flags: W
Fore
361 0 m 1
 314 0 l 2
 294 0 280 11 262 18 c 0
 251 22 241 29 232 34 c 1
 232 5 228 -63 181 -63 c 0
 136 -63 117 45 117 48 c 1
 117 48 88 45 74 40 c 0
 62 34 51 25 43 12 c 1
 69 -337 l 1
 44 -399 l 1
 8 -15 l 1
 8 18 49 91 73 117 c 0
 95 140 163 155 165 155 c 1
 165 165 166 174 171 181 c 0
 174 185 180 188 185 189 c 1
 195 159 210 139 236 122 c 0
 261 106 283 100 313 100 c 2
 361 100 l 1
 361 0 l 1
421 429 m 1
 523 328 l 1
 573 379 l 1
 523 429 l 1
 421 328 l 1
 370 379 l 1
 421 429 l 1
326 100 m 1
 462 100 l 2
 470 100 475 111 477 119 c 1
 477 128 461 177 455 180 c 1
 486 259 l 1
 503 235 516 198 516 158 c 0
 516 132 510 106 499 80 c 0
 483 44 440 0 409 0 c 2
 326 0 l 1
 326 100 l 1
EndSplineSet
EndChar
StartChar: c17
Encoding: 288 -1 43
Width: 551
Flags: W
Fore
361 0 m 1
 314 0 l 2
 294 0 280 11 262 18 c 0
 251 22 241 29 232 34 c 1
 232 5 228 -63 181 -63 c 0
 136 -63 117 45 117 48 c 1
 117 48 88 45 74 40 c 0
 62 34 51 25 43 12 c 1
 69 -337 l 1
 44 -399 l 1
 8 -15 l 1
 8 18 49 91 73 117 c 0
 95 140 163 155 165 155 c 1
 165 165 166 174 171 181 c 0
 174 185 180 188 185 189 c 1
 195 159 210 139 236 122 c 0
 261 106 283 100 313 100 c 2
 361 100 l 1
 361 0 l 1
420 -67 m 1
 507 -155 l 1
 551 -111 l 1
 507 -67 l 1
 420 -155 l 1
 376 -111 l 1
 420 -67 l 1
326 100 m 1
 462 100 l 2
 470 100 475 111 477 119 c 1
 477 128 461 177 455 180 c 1
 486 259 l 1
 503 235 516 198 516 158 c 0
 516 132 510 106 499 80 c 0
 483 44 440 0 409 0 c 2
 326 0 l 1
 326 100 l 1
EndSplineSet
EndChar
StartChar: c18
Encoding: 289 -1 44
Width: 274
Flags: MW
HStem: -11 20 555 20<173 173>
VStem: 81 36<195.5 213>
Fore
115 517 m 1
 173 575 l 1
 230 517 l 1
 173 460 l 1
 115 517 l 1
-21 100 m 1
 -16 100 26 100 53 107 c 0
 67 111 80 117 92 123 c 1
 84 145 81 165 81 213 c 1
 89 278 141 380 198 380 c 0
 209 380 221 374 233 364 c 1
 246 351 251 332 251 310 c 0
 251 285 243 258 228 237 c 1
 228 237 206 277 182 280 c 1
 148 280 125 259 117 233 c 1
 117 158 258 86 258 86 c 1
 257 64 251 49 244 30 c 0
 239 14 230 3 222 -11 c 1
 191 11 165 22 125 23 c 0
 86 23 64 0 26 0 c 2
 -21 0 l 1
 -21 100 l 1
EndSplineSet
EndChar
StartChar: c19
Encoding: 290 -1 45
Width: 274
Flags: MW
HStem: -210 20 360 20<169.5 203.5>
VStem: 81 36<195.5 213>
Fore
115 -152 m 1
 173 -95 l 1
 230 -152 l 1
 173 -210 l 1
 115 -152 l 1
-21 100 m 1
 -19 100 26 100 53 107 c 0
 67 111 80 117 92 123 c 1
 84 145 81 165 81 213 c 1
 89 278 141 380 198 380 c 0
 209 380 221 374 233 364 c 1
 246 351 251 332 251 310 c 0
 251 285 243 258 228 237 c 1
 228 237 206 277 182 280 c 1
 148 280 125 259 117 233 c 1
 117 158 258 86 258 86 c 1
 257 64 251 49 244 30 c 0
 239 14 230 3 222 -11 c 1
 191 11 165 22 125 23 c 0
 86 23 64 0 26 0 c 2
 -21 0 l 1
 -21 100 l 1
EndSplineSet
EndChar
StartChar: c20
Encoding: 291 -1 46
Width: 274
Flags: MW
HStem: -207 20 360 20<169.5 203.5>
VStem: 81 36<195.5 213>
Fore
119 -106 m 1
 221 -207 l 1
 272 -156 l 1
 221 -106 l 1
 119 -207 l 1
 69 -156 l 1
 119 -106 l 1
-21 100 m 1
 -19 100 26 100 53 107 c 0
 67 111 80 117 92 123 c 1
 84 145 81 165 81 213 c 1
 89 278 141 380 198 380 c 0
 209 380 221 374 233 364 c 1
 246 351 251 332 251 310 c 0
 251 285 243 258 228 237 c 1
 228 237 206 277 182 280 c 1
 148 280 125 259 117 233 c 1
 117 158 258 86 258 86 c 1
 257 64 251 49 244 30 c 0
 239 14 230 3 222 -11 c 1
 191 11 165 22 125 23 c 0
 86 23 64 0 26 0 c 2
 -21 0 l 1
 -21 100 l 1
EndSplineSet
EndChar
StartChar: c21
Encoding: 292 -1 47
Width: 313
Flags: MW
HStem: 0 100<-21 10 10 15> 444 20<202 202>
VStem: 49 31<192 201>
Fore
-21 100 m 1
 10 100 l 2
 21 100 30 103 40 104 c 0
 47 106 55 110 62 111 c 1
 59 117 49 156 49 195 c 0
 49 207 51 219 53 230 c 0
 74 313 170 336 170 336 c 1
 143 348 l 1
 177 422 l 1
 202 464 l 1
 265 435 l 2
 266 435 305 416 305 377 c 1
 283 255 84 276 80 236 c 1
 80 148 226 132 226 108 c 1
 192 15 l 1
 191 11 189 8 187 8 c 0
 177 8 159 36 104 36 c 1
 56 34 27 0 15 0 c 2
 -21 0 l 1
 -21 100 l 1
EndSplineSet
EndChar
StartChar: c22
Encoding: 293 -1 48
Width: 675
Flags: W
Fore
361 0 m 1
 314 0 l 2
 294 0 280 11 262 18 c 0
 251 22 241 29 232 34 c 1
 232 5 228 -63 181 -63 c 0
 136 -63 117 45 117 48 c 1
 117 48 88 45 74 40 c 0
 62 34 51 25 43 12 c 1
 69 -337 l 1
 44 -399 l 1
 8 -15 l 1
 8 18 49 91 73 117 c 0
 95 140 163 155 165 155 c 1
 165 165 166 174 171 181 c 0
 174 185 180 188 185 189 c 1
 195 159 210 139 236 122 c 0
 261 106 283 100 313 100 c 2
 361 100 l 1
 361 0 l 1
608 121 m 1
 608 152 588 203 557 203 c 0
 535 203 512 158 512 156 c 0
 512 148 560 112 590 112 c 0
 598 112 604 115 608 121 c 1
326 100 m 1
 361 100 l 2
 390 100 414 100 436 118 c 0
 491 165 531 277 583 277 c 0
 610 276 660 180 660 143 c 1
 657 92 641 37 593 32 c 1
 543 32 476 82 476 82 c 1
 476 81 462 48 446 26 c 0
 433 10 407 0 381 0 c 2
 326 0 l 1
 326 100 l 1
EndSplineSet
EndChar
StartChar: c23
Encoding: 294 -1 49
Width: 628
Flags: MW
HStem: 0 100<609 642> 500 20<464 464>
VStem: 15 52<94 96.5>
Fore
406 462 m 1
 464 520 l 1
 521 462 l 1
 464 405 l 1
 406 462 l 1
143 413 m 1
 200 471 l 1
 258 413 l 1
 200 355 l 1
 143 413 l 1
642 0 m 1
 588 0 l 2
 560 0 539 18 523 40 c 0
 510 56 495 81 492 107 c 1
 473 233 l 1
 462 218 449 206 432 195 c 0
 417 185 405 177 387 171 c 1
 387 111 374 -55 196 -80 c 0
 184 -81 171 -82 159 -82 c 0
 100 -82 47 -62 25 -5 c 0
 18 12 15 32 15 52 c 0
 15 141 71 244 95 244 c 1
 95 225 67 169 67 118 c 0
 67 70 92 26 188 21 c 1
 217 21 313 38 342 78 c 1
 344 89 344 100 344 111 c 0
 344 128 342 143 336 160 c 0
 328 187 317 203 299 222 c 1
 339 306 l 1
 387 258 l 1
 402 258 429 262 447 278 c 0
 468 296 481 339 488 339 c 1
 495 336 498 331 501 325 c 1
 524 171 l 1
 525 158 538 126 560 112 c 0
 575 103 590 100 609 100 c 2
 642 100 l 1
 642 0 l 1
EndSplineSet
EndChar
StartChar: c24
Encoding: 295 -1 50
Width: 628
Flags: MW
HStem: -213 20 0 100<609 642> 451 20<200 200>
VStem: 15 52<94 96.5>
Fore
413 -111 m 1
 514 -213 l 1
 565 -162 l 1
 514 -111 l 1
 413 -213 l 1
 362 -162 l 1
 413 -111 l 1
143 413 m 1
 200 471 l 1
 258 413 l 1
 200 355 l 1
 143 413 l 1
642 0 m 1
 588 0 l 2
 560 0 539 18 523 40 c 0
 510 56 495 81 492 107 c 1
 473 233 l 1
 462 218 449 206 432 195 c 0
 417 185 405 177 387 171 c 1
 387 111 374 -55 196 -80 c 0
 184 -81 171 -82 159 -82 c 0
 100 -82 47 -62 25 -5 c 0
 18 12 15 32 15 52 c 0
 15 141 71 244 95 244 c 1
 95 225 67 169 67 118 c 0
 67 70 92 26 188 21 c 1
 217 21 313 38 342 78 c 1
 344 89 344 100 344 111 c 0
 344 128 342 143 336 160 c 0
 328 187 317 203 299 222 c 1
 339 306 l 1
 387 258 l 1
 402 258 429 262 447 278 c 0
 468 296 481 339 488 339 c 1
 495 336 498 331 501 325 c 1
 524 171 l 1
 525 158 538 126 560 112 c 0
 575 103 590 100 609 100 c 2
 642 100 l 1
 642 0 l 1
EndSplineSet
EndChar
StartChar: c25
Encoding: 296 -1 51
Width: 628
Flags: MW
HStem: -219 20 0 100<609 642> 451 20<200 200>
VStem: 15 52<94 96.5>
Fore
406 -162 m 1
 464 -104 l 1
 521 -162 l 1
 464 -219 l 1
 406 -162 l 1
143 413 m 1
 200 471 l 1
 258 413 l 1
 200 355 l 1
 143 413 l 1
642 0 m 1
 588 0 l 2
 560 0 539 18 523 40 c 0
 510 56 495 81 492 107 c 1
 473 233 l 1
 462 218 449 206 432 195 c 0
 417 185 405 177 387 171 c 1
 387 111 374 -55 196 -80 c 0
 184 -81 171 -82 159 -82 c 0
 100 -82 47 -62 25 -5 c 0
 18 12 15 32 15 52 c 0
 15 141 71 244 95 244 c 1
 95 225 67 169 67 118 c 0
 67 70 92 26 188 21 c 1
 217 21 313 38 342 78 c 1
 344 89 344 100 344 111 c 0
 344 128 342 143 336 160 c 0
 328 187 317 203 299 222 c 1
 339 306 l 1
 387 258 l 1
 402 258 429 262 447 278 c 0
 468 296 481 339 488 339 c 1
 495 336 498 331 501 325 c 1
 524 171 l 1
 525 158 538 126 560 112 c 0
 575 103 590 100 609 100 c 2
 642 100 l 1
 642 0 l 1
EndSplineSet
EndChar
StartChar: c26
Encoding: 297 -1 52
Width: 628
Flags: MW
HStem: 0 100<609 642> 494 20<413 413 514 514>
VStem: 15 52<94 96.5>
Fore
413 514 m 1
 514 413 l 1
 565 464 l 1
 514 514 l 1
 413 418 l 1
 362 464 l 1
 413 514 l 1
143 413 m 1
 200 471 l 1
 258 413 l 1
 200 355 l 1
 143 413 l 1
642 0 m 1
 588 0 l 2
 560 0 539 18 523 40 c 0
 510 56 495 81 492 107 c 1
 473 233 l 1
 462 218 449 206 432 195 c 0
 417 185 405 177 387 171 c 1
 387 111 374 -55 196 -80 c 0
 184 -81 171 -82 159 -82 c 0
 100 -82 47 -62 25 -5 c 0
 18 12 15 32 15 52 c 0
 15 141 71 244 95 244 c 1
 95 225 67 169 67 118 c 0
 67 70 92 26 188 21 c 1
 217 21 313 38 342 78 c 1
 344 89 344 100 344 111 c 0
 344 128 342 143 336 160 c 0
 328 187 317 203 299 222 c 1
 339 306 l 1
 387 258 l 1
 402 258 429 262 447 278 c 0
 468 296 481 339 488 339 c 1
 495 336 498 331 501 325 c 1
 524 171 l 1
 525 158 538 126 560 112 c 0
 575 103 590 100 609 100 c 2
 642 100 l 1
 642 0 l 1
EndSplineSet
EndChar
StartChar: c27
Encoding: 298 -1 53
Width: 508
Flags: MW
HStem: -221 89<311 586> 0 100<322 324 324 535>
VStem: 108 516
Fore
324 0 m 2
 270 0 218 -11 191 -45 c 0
 171 -70 144 -104 144 -121 c 0
 144 -122 145 -125 147 -126 c 0
 156 -132 248 -132 311 -132 c 2
 624 -132 l 1
 586 -221 l 1
 118 -221 l 1
 108 -143 l 1
 108 -66 133 -22 174 22 c 1
 215 69 258 100 322 100 c 2
 535 100 l 1
 535 0 l 1
 324 0 l 2
EndSplineSet
EndChar
StartChar: c28
Encoding: 299 -1 54
Width: 274
Flags: MW
HStem: -11 20 549 20<119 119 221 221>
VStem: 81 36<195.5 213>
Fore
119 569 m 1
 221 468 l 1
 272 519 l 1
 221 569 l 1
 119 468 l 1
 69 519 l 1
 119 569 l 1
-21 100 m 1
 -18 100 26 100 53 107 c 0
 67 111 80 117 92 123 c 1
 84 145 81 165 81 213 c 1
 89 278 141 380 198 380 c 0
 209 380 221 374 233 364 c 1
 246 351 251 332 251 310 c 0
 251 285 243 258 228 237 c 1
 228 237 206 277 182 280 c 1
 148 280 125 259 117 233 c 1
 117 158 258 86 258 86 c 1
 257 64 251 49 244 30 c 0
 239 14 230 3 222 -11 c 1
 191 11 165 22 125 23 c 0
 86 23 64 0 26 0 c 2
 -21 0 l 1
 -21 100 l 1
EndSplineSet
EndChar
StartChar: c29
Encoding: 300 -1 55
Width: 760
Flags: MW
HStem: 0 100<-21 21 21 29 425.5 439 439 531> 198 87<129.5 130.5> 595 20<620 620>
VStem: -21 766<79 89>
Fore
-21 0 m 1
 -21 100 l 1
 21 100 l 2
 49 100 93 108 136 121 c 0
 167 130 188 145 213 165 c 1
 204 171 151 198 110 198 c 0
 82 198 43 170 43 170 c 1
 40 170 40 171 40 177 c 0
 40 198 60 261 97 277 c 1
 110 284 123 285 136 285 c 0
 196 285 258 226 337 226 c 0
 373 226 381 228 431 236 c 1
 416 154 l 1
 361 139 l 1
 359 137 358 137 358 134 c 0
 358 130 364 118 368 115 c 0
 381 102 395 100 418 100 c 2
 562 100 l 2
 572 100 609 114 613 122 c 1
 613 133 610 140 604 147 c 1
 586 483 l 1
 564 508 l 1
 620 615 l 1
 632 612 l 1
 632 612 632 560 636 546 c 1
 645 528 658 513 676 505 c 1
 646 433 l 1
 635 435 l 1
 642 273 l 1
 643 233 649 203 664 163 c 0
 674 139 739 91 745 89 c 1
 745 69 743 52 737 34 c 1
 728 15 717 1 700 -11 c 1
 700 -11 652 29 619 29 c 1
 571 25 550 0 531 0 c 2
 439 0 l 2
 412 0 368 22 357 41 c 0
 348 56 335 133 335 133 c 1
 300 123 276 117 243 103 c 0
 144 60 99 0 29 0 c 2
 -21 0 l 1
181 -93 m 1
 239 -36 l 1
 296 -93 l 1
 239 -151 l 1
 181 -93 l 1
EndSplineSet
EndChar
StartChar: c30
Encoding: 301 -1 56
Width: 760
Flags: MW
HStem: 0 100<-21 21 21 29 425.5 439 439 531> 198 87<129.5 130.5> 595 20<620 620>
VStem: -21 766<79 89>
Fore
-21 0 m 1
 -21 100 l 1
 21 100 l 2
 49 100 93 108 136 121 c 0
 167 130 188 145 213 165 c 1
 204 171 151 198 110 198 c 0
 82 198 43 170 43 170 c 1
 40 170 40 171 40 177 c 0
 40 198 60 261 97 277 c 1
 110 284 123 285 136 285 c 0
 196 285 258 226 337 226 c 0
 373 226 381 228 431 236 c 1
 416 154 l 1
 361 139 l 1
 359 137 358 137 358 134 c 0
 358 130 364 118 368 115 c 0
 381 102 395 100 418 100 c 2
 562 100 l 2
 572 100 609 114 613 122 c 1
 613 133 610 140 604 147 c 1
 586 483 l 1
 564 508 l 1
 620 615 l 1
 632 612 l 1
 632 612 632 560 636 546 c 1
 645 528 658 513 676 505 c 1
 646 433 l 1
 635 435 l 1
 642 273 l 1
 643 233 649 203 664 163 c 0
 674 139 739 91 745 89 c 1
 745 69 743 52 737 34 c 1
 728 15 717 1 700 -11 c 1
 700 -11 652 29 619 29 c 1
 571 25 550 0 531 0 c 2
 439 0 l 2
 412 0 368 22 357 41 c 0
 348 56 335 133 335 133 c 1
 300 123 276 117 243 103 c 0
 144 60 99 0 29 0 c 2
 -21 0 l 1
EndSplineSet
EndChar
StartChar: c31
Encoding: 302 -1 57
Width: 760
Flags: MW
HStem: 0 100<-21 21 21 29 425.5 439 439 531> 198 87<129.5 130.5> 595 20<620 620>
VStem: -21 766<79 89>
Fore
-21 0 m 1
 -21 100 l 1
 21 100 l 2
 49 100 93 108 136 121 c 0
 167 130 188 145 213 165 c 1
 204 171 151 198 110 198 c 0
 82 198 43 170 43 170 c 1
 40 170 40 171 40 177 c 0
 40 198 60 261 97 277 c 1
 110 284 123 285 136 285 c 0
 196 285 258 226 337 226 c 0
 373 226 381 228 431 236 c 1
 416 154 l 1
 361 139 l 1
 359 137 358 137 358 134 c 0
 358 130 364 118 368 115 c 0
 381 102 395 100 418 100 c 2
 562 100 l 2
 572 100 609 114 613 122 c 1
 613 133 610 140 604 147 c 1
 586 483 l 1
 564 508 l 1
 620 615 l 1
 632 612 l 1
 632 612 632 560 636 546 c 1
 645 528 658 513 676 505 c 1
 646 433 l 1
 635 435 l 1
 642 273 l 1
 643 233 649 203 664 163 c 0
 674 139 739 91 745 89 c 1
 745 69 743 52 737 34 c 1
 728 15 717 1 700 -11 c 1
 700 -11 652 29 619 29 c 1
 571 25 550 0 531 0 c 2
 439 0 l 2
 412 0 368 22 357 41 c 0
 348 56 335 133 335 133 c 1
 300 123 276 117 243 103 c 0
 144 60 99 0 29 0 c 2
 -21 0 l 1
93 462 m 1
 151 520 l 1
 209 462 l 1
 151 405 l 1
 93 462 l 1
EndSplineSet
EndChar
StartChar: onehalf
Encoding: 303 189 60
Width: 89
Flags: MW
HStem: 0 100<-21 89>
VStem: -21 110<0 100>
Fore
-21 100 m 1
 89 100 l 1
 89 0 l 1
 -21 0 l 1
 -21 100 l 1
EndSplineSet
Ligature: 0 1 'frac' one slash two
Ligature: 0 1 'frac' one fraction two
EndChar
StartChar: uacute
Encoding: 304 250 77
Width: 285
Flags: MW
HStem: 0 100<244 300> 653 40<126 162> 708 20<246 255>
VStem: 115 40
Fore
155 310 m 2
 155 248 171 166 188 137 c 0
 196 121 224 100 244 100 c 2
 300 100 l 1
 300 0 l 1
 235 0 l 2
 221 0 180 14 163 41 c 0
 137 86 117 144 115 267 c 1
 110 536 l 1
 155 586 l 1
 155 310 l 2
7 630 m 1
 7 641 53 722 53 722 c 1
 67 713 108 693 144 693 c 0
 187 693 237 728 255 728 c 1
 255 712 185 653 139 653 c 0
 103 653 78 658 49 678 c 1
 49 678 26 630 7 630 c 1
EndSplineSet
Ligature: 0 0 'liga' u acutecomb
EndChar
StartChar: aacute
Encoding: 305 225 78
Width: 285
Flags: MW
HStem: 0 100<244 300> 762 20<132.5 140>
VStem: 115 40
Fore
160 739 m 0
 156 734 152 733 148 733 c 0
 139 733 132 741 121 741 c 0
 114 741 107 738 99 731 c 0
 89 723 86 717 86 712 c 0
 86 695 119 691 128 691 c 2
 200 691 l 1
 178 654 l 1
 152 654 125 654 107 646 c 0
 89 638 74 628 60 616 c 1
 55 626 l 1
 60 635 60 646 66 658 c 1
 66 669 47 690 47 708 c 0
 49 727 125 782 140 782 c 1
 154 779 167 768 167 756 c 0
 167 750 166 745 160 739 c 0
155 310 m 2
 155 248 171 166 188 137 c 0
 196 121 224 100 244 100 c 2
 300 100 l 1
 300 0 l 1
 235 0 l 2
 221 0 180 14 163 41 c 0
 137 86 117 144 115 267 c 1
 110 536 l 1
 155 586 l 1
 155 310 l 2
EndSplineSet
Ligature: 0 0 'liga' a acutecomb
EndChar
StartChar: otilde
Encoding: 306 245 79
Width: 383
Flags: MW
HStem: -191 63 0 100<322 402> 435 20<242.5 250>
VStem: 173 229<44 80>
Fore
-27 -119 m 1
 -27 -119 15 -128 64 -128 c 0
 106 -128 154 -122 185 -102 c 0
 229 -74 255 -51 280 -5 c 1
 267 -5 209 -3 188 14 c 0
 177 23 173 36 173 52 c 0
 173 108 233 195 257 195 c 0
 294 193 322 100 322 100 c 1
 402 100 l 1
 402 0 l 1
 314 0 l 1
 314 -36 237 -189 130 -191 c 0
 40 -191 -3 -151 -27 -119 c 1
237 121 m 1
 228 121 214 97 214 81 c 1
 217 67 236 66 277 66 c 1
 277 81 263 115 237 121 c 1
270 413 m 1
 266 407 262 406 258 406 c 0
 248 406 241 414 230 414 c 0
 224 414 217 412 209 405 c 0
 199 396 196 391 196 385 c 0
 196 369 229 365 237 365 c 2
 310 365 l 1
 288 328 l 1
 262 328 235 328 217 320 c 0
 199 311 184 302 170 289 c 1
 165 299 l 1
 170 309 170 320 176 332 c 1
 176 343 156 364 156 381 c 1
 159 401 235 455 250 455 c 1
 263 453 277 442 277 429 c 0
 277 424 276 418 270 413 c 1
EndSplineSet
Ligature: 0 0 'liga' o tildecomb
EndChar
StartChar: ograve
Encoding: 307 242 80
Width: 285
Flags: MW
HStem: 0 100<244 300> 566 20<155 155>
VStem: 115 40
Fore
198 -111 m 0
 193 -117 189 -118 185 -118 c 0
 176 -118 169 -110 158 -110 c 0
 151 -110 144 -112 136 -119 c 0
 126 -128 123 -133 123 -139 c 0
 123 -155 156 -159 165 -159 c 2
 237 -159 l 1
 215 -196 l 1
 189 -196 162 -196 144 -204 c 0
 126 -213 111 -222 97 -235 c 1
 92 -225 l 1
 97 -215 97 -204 103 -192 c 1
 103 -181 84 -160 84 -143 c 0
 86 -123 162 -69 177 -69 c 1
 191 -71 204 -82 204 -95 c 0
 204 -100 203 -106 198 -111 c 0
155 310 m 2
 155 248 171 166 188 137 c 0
 196 121 224 100 244 100 c 2
 300 100 l 1
 300 0 l 1
 235 0 l 2
 221 0 180 14 163 41 c 0
 137 86 117 144 115 267 c 1
 110 536 l 1
 155 586 l 1
 155 310 l 2
EndSplineSet
Ligature: 0 0 'liga' o gravecomb
EndChar
StartChar: ucircumflex
Encoding: 308 251 81
Width: 538
Flags: MW
HStem: -252 79<164.5 212.5> 0 100<503 562> 345 20<76.5 84>
VStem: 7 48<-103 -75> 317 245
Fore
562 100 m 1
 562 0 l 1
 479 0 l 2
 469 0 369 -10 369 -19 c 0
 369 -47 494 -36 506 -62 c 0
 510 -70 512 -77 512 -85 c 0
 512 -158 369 -239 258 -250 c 0
 239 -252 221 -252 204 -252 c 0
 77 -252 15 -196 7 -125 c 1
 7 -25 91 73 103 73 c 1
 103 52 55 -16 55 -77 c 0
 55 -129 93 -173 236 -173 c 0
 317 -173 453 -132 453 -110 c 1
 432 -86 325 -108 317 -52 c 1
 317 44 449 100 503 100 c 2
 562 100 l 1
104 322 m 0
 100 317 96 316 92 316 c 0
 82 316 75 324 64 324 c 0
 58 324 51 321 43 314 c 0
 33 306 30 300 30 295 c 0
 30 278 63 274 71 274 c 2
 144 274 l 1
 122 237 l 1
 96 237 69 237 51 229 c 0
 33 221 18 211 4 199 c 1
 -1 209 l 1
 4 218 4 229 10 241 c 1
 10 252 -10 273 -10 291 c 1
 -7 310 69 365 84 365 c 1
 97 362 111 351 111 339 c 0
 111 333 110 328 104 322 c 0
EndSplineSet
Ligature: 0 0 'liga' u uni0302
EndChar
StartChar: acircumflex
Encoding: 309 226 83
Width: 621
Flags: MW
HStem: -209 20 -15 115 246 20<66.5 74>
VStem: 8 627
Fore
192 -151 m 1
 250 -93 l 1
 307 -151 l 1
 250 -209 l 1
 192 -151 l 1
521 77 m 1
 519 62 351 -15 209 -15 c 0
 150 -15 95 -1 56 34 c 1
 21 69 8 106 8 140 c 0
 8 209 59 266 74 266 c 1
 74 252 52 217 52 184 c 0
 52 177 53 170 56 163 c 0
 85 95 204 80 274 80 c 0
 466 82 540 182 545 188 c 1
 545 182 550 150 560 129 c 0
 567 115 582 100 595 100 c 2
 635 100 l 1
 635 0 l 1
 598 0 l 2
 582 0 557 12 542 30 c 0
 531 44 523 66 521 77 c 1
EndSplineSet
Ligature: 0 0 'liga' a uni0302
EndChar
StartChar: adieresis
Encoding: 310 228 84
Width: 328
Flags: MW
HStem: 0 133 529 20<91 91 192 192>
VStem: 12 338<53 70.5>
Fore
91 549 m 1
 192 447 l 1
 243 498 l 1
 192 549 l 1
 91 447 l 1
 40 498 l 1
 91 549 l 1
350 100 m 1
 350 0 l 1
 277 0 l 2
 251 0 233 21 218 40 c 0
 203 59 188 100 188 104 c 1
 185 97 162 58 134 45 c 0
 128 43 102 38 75 38 c 0
 48 38 21 43 12 53 c 1
 12 88 25 145 48 177 c 0
 69 204 155 248 163 250 c 1
 155 305 l 1
 182 365 l 1
 182 365 192 259 211 171 c 0
 218 136 239 100 276 100 c 2
 350 100 l 1
174 155 m 1
 166 199 l 1
 154 199 70 151 70 141 c 1
 80 136 93 133 107 133 c 0
 139 133 173 145 174 155 c 1
EndSplineSet
Ligature: 0 0 'liga' a uni0308
EndChar
StartChar: ocircumflex
Encoding: 311 244 85
Width: 621
Flags: MW
HStem: -15 115 397 20<269 269 370 370>
VStem: 8 627
Fore
269 417 m 1
 370 316 l 1
 421 366 l 1
 370 417 l 1
 269 316 l 1
 218 366 l 1
 269 417 l 1
521 77 m 1
 519 62 351 -15 209 -15 c 0
 150 -15 95 -1 56 34 c 1
 21 69 8 106 8 140 c 0
 8 209 59 266 74 266 c 1
 74 252 52 217 52 184 c 0
 52 177 53 170 56 163 c 0
 85 95 204 80 274 80 c 0
 466 82 540 182 545 188 c 1
 545 182 550 150 560 129 c 0
 567 115 582 100 595 100 c 2
 635 100 l 1
 635 0 l 1
 598 0 l 2
 582 0 557 12 542 30 c 0
 531 44 523 66 521 77 c 1
EndSplineSet
Ligature: 0 0 'liga' o uni0302
EndChar
StartChar: odieresis
Encoding: 312 246 86
Width: 621
Flags: MW
HStem: -15 115 501 20<322 322>
VStem: 8 627
Fore
269 417 m 1
 370 316 l 1
 421 366 l 1
 370 417 l 1
 269 316 l 1
 218 366 l 1
 269 417 l 1
521 77 m 1
 519 62 351 -15 209 -15 c 0
 150 -15 95 -1 56 34 c 1
 21 69 8 106 8 140 c 0
 8 209 59 266 74 266 c 1
 74 252 52 217 52 184 c 0
 52 177 53 170 56 163 c 0
 85 95 204 80 274 80 c 0
 466 82 540 182 545 188 c 1
 545 182 550 150 560 129 c 0
 567 115 582 100 595 100 c 2
 635 100 l 1
 635 0 l 1
 598 0 l 2
 582 0 557 12 542 30 c 0
 531 44 523 66 521 77 c 1
272 471 m 1
 322 521 l 1
 373 471 l 1
 322 420 l 1
 272 471 l 1
EndSplineSet
Ligature: 0 0 'liga' o uni0308
EndChar
StartChar: ecircumflex
Encoding: 313 234 87
Width: 477
Flags: MW
HStem: -381 97 0 100<365 376 376 494> 256 20<92.5 163.5>
VStem: 12 44<-153 -109.5> 270 224
Fore
151 -95 m 1
 209 -43 l 1
 266 -100 l 1
 209 -158 l 1
 151 -95 l 1
494 0 m 1
 376 0 l 2
 340 0 316 16 292 43 c 0
 274 62 270 96 270 122 c 0
 270 144 273 162 273 162 c 1
 262 162 80 107 58 -84 c 0
 56 -95 56 -104 56 -115 c 0
 56 -278 219 -291 303 -291 c 1
 516 -284 l 1
 516 -298 l 1
 366 -370 l 2
 362 -372 313 -381 252 -381 c 0
 165 -380 52 -359 25 -247 c 0
 15 -207 12 -170 12 -136 c 0
 12 67 151 174 156 177 c 1
 141 184 128 188 112 188 c 0
 102 188 91 185 78 181 c 0
 52 171 22 129 22 129 c 1
 22 154 29 276 156 276 c 0
 171 276 189 273 210 269 c 0
 230 265 254 263 276 263 c 0
 335 263 391 274 391 274 c 1
 354 176 l 1
 296 167 l 1
 296 167 296 137 300 121 c 1
 311 100 348 100 365 100 c 2
 494 100 l 1
 494 0 l 1
EndSplineSet
Ligature: 0 0 'liga' e uni0302
EndChar
StartChar: logicalnot
Encoding: 314 172 88
Width: 480
Flags: MW
VStem: 187 97
Fore
214 78 m 0
 219 86 230 91 243 91 c 0
 262 91 284 77 284 43 c 0
 284 33 281 21 277 7 c 0
 263 -37 198 -80 196 -80 c 1
 187 -62 l 1
 203 -55 214 -43 228 -29 c 0
 246 -11 243 -5 247 8 c 1
 230 14 202 23 202 48 c 0
 202 56 206 66 214 78 c 0
EndSplineSet
EndChar
StartChar: c143
Encoding: 315 -1 89
Width: 480
Flags: MW
VStem: 217 59
Fore
235 43 m 0
 239 48 246 52 254 52 c 0
 265 52 276 44 276 25 c 0
 276 18 274 8 272 -1 c 0
 262 -33 224 -53 222 -53 c 1
 217 -43 l 1
 226 -38 235 -29 241 -22 c 0
 252 -11 254 -7 254 0 c 1
 246 3 228 7 228 22 c 0
 228 27 230 34 235 43 c 0
EndSplineSet
EndChar
StartChar: Ydieresis
Encoding: 316 376 90
Width: 1
Flags: MW
HStem: 569 20
VStem: -1 175
Fore
11 731 m 1
 174 816 l 1
 174 782 l 1
 11 697 l 1
 11 731 l 1
130 610 m 0
 111 610 107 615 100 615 c 0
 96 615 92 615 84 610 c 1
 69 604 75 578 43 569 c 1
 3 569 -1 616 -1 654 c 1
 26 668 l 1
 26 643 29 628 49 628 c 0
 69 628 69 691 69 691 c 1
 97 705 l 1
 97 704 97 663 117 663 c 0
 132 663 136 694 136 726 c 1
 162 739 l 1
 162 739 165 720 165 695 c 0
 165 660 159 612 130 610 c 0
EndSplineSet
Ligature: 0 0 'liga' Y uni0308
EndChar
StartChar: Yacute
Encoding: 317 221 92
Width: 481
Flags: MW
HStem: -5 20 739 20<121.5 129>
VStem: 215 195<77.5 99>
Fore
150 716 m 0
 145 711 141 709 137 709 c 0
 128 709 121 717 110 717 c 0
 103 717 96 715 88 708 c 0
 78 700 75 694 75 689 c 0
 75 672 108 668 117 668 c 2
 189 668 l 1
 167 631 l 1
 141 631 114 631 96 623 c 0
 78 615 63 605 49 593 c 1
 44 602 l 1
 49 612 49 623 55 635 c 1
 55 646 36 667 36 684 c 0
 38 704 114 759 129 759 c 1
 143 756 156 745 156 733 c 0
 156 727 155 722 150 716 c 0
295 82 m 1
 376 88 l 1
 376 88 383 89 383 115 c 1
 377 139 361 165 361 165 c 1
 361 165 346 141 337 130 c 0
 322 114 322 111 295 82 c 1
385 299 m 0
 395 377 395 417 395 457 c 1
 374 469 l 1
 374 486 417 584 428 584 c 0
 431 583 431 580 431 576 c 0
 431 567 427 547 427 531 c 0
 428 523 457 501 468 499 c 1
 466 473 l 1
 440 410 l 1
 425 410 l 1
 425 396 417 313 409 265 c 0
 405 240 383 200 383 200 c 1
 383 200 405 163 407 139 c 0
 409 125 410 110 410 88 c 0
 410 67 409 43 401 11 c 0
 399 3 324 -5 270 -5 c 0
 240 -5 215 -3 215 4 c 2
 215 99 l 1
 255 89 l 1
 269 100 287 117 302 134 c 0
 320 155 337 181 344 193 c 1
 325 222 317 233 288 270 c 0
 252 317 167 406 165 407 c 1
 151 395 139 385 119 385 c 1
 84 391 45 439 45 486 c 0
 45 505 52 524 69 539 c 0
 73 543 78 545 85 545 c 0
 133 545 232 428 300 335 c 0
 326 298 366 235 366 235 c 1
 366 235 377 241 385 299 c 0
EndSplineSet
Ligature: 0 0 'liga' Y acutecomb
EndChar
StartChar: agrave
Encoding: 318 224 93
Width: 477
Flags: MW
HStem: -381 97 0 100<365 376 376 494> 256 20<92.5 163.5>
VStem: 12 44<-153 -109.5> 270 224
Fore
494 0 m 1
 376 0 l 2
 340 0 316 16 292 43 c 0
 274 62 270 96 270 122 c 0
 270 144 273 162 273 162 c 1
 262 162 80 107 58 -84 c 0
 56 -95 56 -104 56 -115 c 0
 56 -278 219 -291 303 -291 c 1
 516 -284 l 1
 516 -298 l 1
 366 -370 l 2
 362 -372 313 -381 252 -381 c 0
 165 -380 52 -359 25 -247 c 0
 15 -207 12 -170 12 -136 c 0
 12 67 151 174 156 177 c 1
 141 184 128 188 112 188 c 0
 102 188 91 185 78 181 c 0
 52 171 22 129 22 129 c 1
 22 154 29 276 156 276 c 0
 171 276 189 273 210 269 c 0
 230 265 254 263 276 263 c 0
 335 263 391 274 391 274 c 1
 354 176 l 1
 296 167 l 1
 296 167 296 137 300 121 c 1
 311 100 348 100 365 100 c 2
 494 100 l 1
 494 0 l 1
EndSplineSet
Ligature: 0 0 'liga' a gravecomb
EndChar
StartChar: oacute
Encoding: 319 243 99
Width: 768
Flags: MW
HStem: -225 99<130 203.5> -3 103
VStem: 10 39<-47.5 -38>
Fore
160 -225 m 0
 44 -225 10 -154 10 -80 c 0
 10 4 52 91 69 91 c 1
 69 77 49 27 49 -21 c 0
 49 -74 75 -126 185 -126 c 0
 222 -126 314 -117 353 -59 c 1
 353 -29 351 -10 343 19 c 0
 336 47 325 66 310 89 c 1
 354 167 l 1
 354 163 385 93 439 93 c 0
 561 95 543 192 569 192 c 1
 569 166 564 126 560 118 c 1
 573 106 583 102 599 99 c 1
 663 99 668 184 686 188 c 1
 693 188 695 178 695 166 c 0
 695 152 693 136 690 128 c 1
 690 118 711 100 728 100 c 2
 783 100 l 1
 783 0 l 1
 712 0 l 2
 690 0 664 30 652 30 c 0
 650 30 649 29 647 27 c 0
 632 5 616 -3 601 -3 c 0
 571 -3 545 29 527 29 c 0
 524 29 523 27 520 26 c 1
 492 4 469 -3 449 -3 c 0
 417 -3 395 14 390 14 c 1
 390 0 l 2
 390 -71 346 -225 160 -225 c 0
EndSplineSet
Ligature: 0 0 'liga' o acutecomb
EndChar
StartChar: divide
Encoding: 320 247 100
Width: 768
Flags: MW
HStem: -225 99<130 203.5> -3 103 478 20<532 532>
VStem: 10 39<-47.5 -38>
Fore
479 392 m 1
 580 291 l 1
 631 342 l 1
 580 392 l 1
 479 291 l 1
 428 342 l 1
 479 392 l 1
481 447 m 1
 532 498 l 1
 583 447 l 1
 532 396 l 1
 481 447 l 1
160 -225 m 0
 44 -225 10 -154 10 -80 c 0
 10 4 52 91 69 91 c 1
 69 77 49 27 49 -21 c 0
 49 -74 75 -126 185 -126 c 0
 222 -126 314 -117 353 -59 c 1
 353 -29 351 -10 343 19 c 0
 336 47 325 66 310 89 c 1
 354 167 l 1
 354 163 385 93 439 93 c 0
 561 95 543 192 569 192 c 1
 569 166 564 126 560 118 c 1
 573 106 583 102 599 99 c 1
 663 99 668 184 686 188 c 1
 693 188 695 178 695 166 c 0
 695 152 693 136 690 128 c 1
 690 118 711 100 728 100 c 2
 783 100 l 1
 783 0 l 1
 712 0 l 2
 690 0 664 30 652 30 c 0
 650 30 649 29 647 27 c 0
 632 5 616 -3 601 -3 c 0
 571 -3 545 29 527 29 c 0
 524 29 523 27 520 26 c 1
 492 4 469 -3 449 -3 c 0
 417 -3 395 14 390 14 c 1
 390 0 l 2
 390 -71 346 -225 160 -225 c 0
EndSplineSet
EndChar
StartChar: atilde
Encoding: 321 227 101
Width: 870
Flags: MW
HStem: -225 99<130 203.5> 0 100<808 889> 214 85
VStem: 10 39<-47.5 -38>
Fore
479 96 m 1
 479 96 502 95 535 95 c 0
 604 95 719 103 763 158 c 1
 763 180 726 210 664 214 c 1
 619 214 481 107 479 96 c 1
388 -4 m 1
 388 -18 364 -225 160 -225 c 0
 44 -225 10 -154 10 -80 c 0
 10 4 52 91 69 91 c 1
 69 77 49 27 49 -21 c 0
 49 -74 75 -126 185 -126 c 0
 222 -126 314 -117 353 -59 c 1
 353 -29 351 -10 343 19 c 0
 336 47 325 66 310 89 c 1
 337 165 l 1
 337 160 357 141 369 117 c 0
 373 110 387 96 443 96 c 1
 443 96 632 299 746 299 c 0
 754 299 763 299 770 296 c 0
 813 283 829 254 829 224 c 0
 829 200 819 176 809 158 c 0
 786 114 754 92 754 92 c 1
 808 100 l 1
 889 100 l 1
 889 0 l 1
 709 0 l 2
 653 0 569 7 564 7 c 0
 498 -3 388 -4 388 -4 c 1
EndSplineSet
Ligature: 0 0 'liga' a tildecomb
EndChar
StartChar: thorn
Encoding: 322 254 102
Width: 870
Flags: MW
HStem: -225 99<130 203.5> 0 100<808 889> 214 85 438 20<519 519>
VStem: 10 39<-47.5 -38>
Fore
479 96 m 1
 479 96 502 95 535 95 c 0
 604 95 719 103 763 158 c 1
 763 180 726 210 664 214 c 1
 619 214 481 107 479 96 c 1
388 -4 m 1
 388 -18 364 -225 160 -225 c 0
 44 -225 10 -154 10 -80 c 0
 10 4 52 91 69 91 c 1
 69 77 49 27 49 -21 c 0
 49 -74 75 -126 185 -126 c 0
 222 -126 314 -117 353 -59 c 1
 353 -29 351 -10 343 19 c 0
 336 47 325 66 310 89 c 1
 337 165 l 1
 337 160 357 141 369 117 c 0
 373 110 387 96 443 96 c 1
 443 96 632 299 746 299 c 0
 754 299 763 299 770 296 c 0
 813 283 829 254 829 224 c 0
 829 200 819 176 809 158 c 0
 786 114 754 92 754 92 c 1
 808 100 l 1
 889 100 l 1
 889 0 l 1
 709 0 l 2
 653 0 569 7 564 7 c 0
 498 -3 388 -4 388 -4 c 1
461 401 m 1
 519 458 l 1
 576 401 l 1
 519 343 l 1
 461 401 l 1
EndSplineSet
EndChar
StartChar: ugrave
Encoding: 323 249 103
Width: 626
Flags: MW
HStem: 0 100<583 641> 200 92 614 20<263 267>
VStem: 230 40<177 453> 506 72
Fore
429 200 m 1
 331 200 235 102 232 92 c 0
 232 88 241 86 257 86 c 0
 325 86 506 115 506 158 c 1
 499 189 462 198 429 200 c 1
59 29 m 0
 29 47 12 66 -5 96 c 1
 163 84 l 1
 230 150 l 1
 230 490 l 1
 218 499 206 512 204 528 c 1
 204 550 259 634 267 634 c 1
 267 624 265 609 265 595 c 0
 265 586 266 576 272 569 c 0
 281 557 296 542 314 539 c 1
 283 453 l 1
 270 453 l 1
 270 177 l 1
 270 177 425 292 480 292 c 0
 527 292 573 248 578 217 c 1
 578 151 503 86 503 86 c 1
 503 86 531 92 547 95 c 0
 560 97 575 100 583 100 c 2
 641 100 l 1
 641 0 l 1
 217 0 l 2
 171 0 107 0 59 29 c 0
EndSplineSet
Ligature: 0 0 'liga' u gravecomb
EndChar
StartChar: eth
Encoding: 324 240 104
Width: 626
Flags: MW
HStem: 0 100<583 641> 200 92 614 20<263 267>
VStem: 230 40<177 453> 506 72
Fore
429 200 m 1
 331 200 235 102 232 92 c 0
 232 88 241 86 257 86 c 0
 325 86 506 115 506 158 c 1
 499 189 462 198 429 200 c 1
59 29 m 0
 29 47 12 66 -5 96 c 1
 163 84 l 1
 230 150 l 1
 230 490 l 1
 218 499 206 512 204 528 c 1
 204 550 259 634 267 634 c 1
 267 624 265 609 265 595 c 0
 265 586 266 576 272 569 c 0
 281 557 296 542 314 539 c 1
 283 453 l 1
 270 453 l 1
 270 177 l 1
 270 177 425 292 480 292 c 0
 527 292 573 248 578 217 c 1
 578 151 503 86 503 86 c 1
 503 86 531 92 547 95 c 0
 560 97 575 100 583 100 c 2
 641 100 l 1
 641 0 l 1
 217 0 l 2
 171 0 107 0 59 29 c 0
351 412 m 1
 409 469 l 1
 466 412 l 1
 409 354 l 1
 351 412 l 1
EndSplineSet
EndChar
StartChar: idieresis
Encoding: 325 239 105
Width: 399
Flags: MW
HStem: -379 84 0 100<329 335 335 420> 254 20<127 208.5>
VStem: 11 41<-139 -136>
Fore
420 100 m 1
 420 0 l 1
 335 0 l 2
 296 0 274 19 246 43 c 0
 221 63 206 81 193 110 c 1
 178 103 52 0 52 -134 c 0
 52 -144 52 -152 53 -162 c 0
 67 -272 200 -295 309 -295 c 0
 387 -295 453 -283 453 -283 c 1
 395 -337 298 -379 210 -379 c 0
 104 -379 11 -318 11 -136 c 1
 16 12 129 132 140 137 c 1
 130 144 119 151 108 154 c 1
 95 155 69 155 67 155 c 1
 67 156 70 274 184 274 c 0
 233 274 291 265 291 209 c 1
 289 170 244 133 237 132 c 1
 247 125 258 115 270 111 c 0
 296 100 314 100 329 100 c 2
 420 100 l 1
EndSplineSet
Ligature: 0 0 'liga' i uni0308
EndChar
StartChar: ccedilla
Encoding: 326 231 106
Width: 399
Flags: MW
HStem: -379 84 0 100<329 335 335 420> 477 20<169 169>
VStem: 11 41<-139 -136>
Fore
111 439 m 1
 169 497 l 1
 226 439 l 1
 169 381 l 1
 111 439 l 1
420 100 m 1
 420 0 l 1
 335 0 l 2
 296 0 274 19 246 43 c 0
 221 63 206 81 193 110 c 1
 178 103 52 0 52 -134 c 0
 52 -144 52 -152 53 -162 c 0
 67 -272 200 -295 309 -295 c 0
 387 -295 453 -283 453 -283 c 1
 395 -337 298 -379 210 -379 c 0
 104 -379 11 -318 11 -136 c 1
 16 12 129 132 140 137 c 1
 130 144 119 151 108 154 c 1
 95 155 69 155 67 155 c 1
 67 156 70 274 184 274 c 0
 233 274 291 265 291 209 c 1
 289 170 244 133 237 132 c 1
 247 125 258 115 270 111 c 0
 296 100 314 100 329 100 c 2
 420 100 l 1
EndSplineSet
Ligature: 0 0 'liga' c uni0327
EndChar
StartChar: ntilde
Encoding: 327 241 108
Width: 477
Flags: MW
HStem: -213 98<132 191> 0 100<427 495 427 427> 411 20<261 261 362 362>
VStem: 12 33 267 228<59.5 98.5>
Fore
261 431 m 1
 362 329 l 1
 413 380 l 1
 362 431 l 1
 261 329 l 1
 210 380 l 1
 261 431 l 1
495 100 m 1
 495 0 l 1
 427 0 l 1
 427 -129 262 -213 178 -213 c 0
 80 -213 12 -154 12 -36 c 1
 19 56 51 112 66 112 c 1
 66 99 45 48 45 -1 c 0
 45 -59 73 -115 191 -115 c 0
 302 -114 401 -55 401 -22 c 2
 401 10 l 1
 395 7 376 1 353 1 c 0
 333 1 313 5 292 18 c 0
 274 29 267 48 267 71 c 0
 267 126 311 198 346 199 c 1
 403 195 416 108 416 100 c 1
 495 100 l 1
335 137 m 1
 324 137 298 117 298 99 c 0
 298 96 299 93 300 91 c 0
 307 80 321 75 335 75 c 0
 354 75 372 82 373 86 c 0
 373 95 357 134 335 137 c 1
EndSplineSet
Ligature: 0 0 'liga' n tildecomb
EndChar
StartChar: edieresis
Encoding: 328 235 109
Width: 604
Flags: MW
HStem: -26 128 567 20<480 480>
VStem: 8 47
Fore
480 587 m 1
 494 214 l 1
 494 187 498 169 510 144 c 0
 523 119 538 102 554 102 c 2
 619 102 l 1
 619 0 l 1
 553 0 l 2
 542 0 497 21 479 51 c 0
 473 62 455 104 455 104 c 1
 453 71 310 -26 177 -26 c 0
 134 -26 95 -16 59 7 c 1
 22 33 8 69 8 106 c 0
 8 182 64 259 71 259 c 1
 71 246 55 195 55 154 c 0
 55 136 58 119 69 110 c 0
 102 81 148 69 198 69 c 0
 313 69 444 129 447 159 c 1
 425 516 l 1
 480 587 l 1
300 390 m 1
 309 383 321 369 321 358 c 0
 321 355 320 353 318 351 c 2
 291 324 l 1
 287 331 276 335 267 336 c 0
 261 336 241 311 241 296 c 0
 243 272 307 278 313 257 c 0
 314 251 316 244 316 239 c 0
 316 213 302 182 270 171 c 0
 259 167 250 166 240 166 c 0
 219 166 202 176 187 202 c 1
 187 198 202 195 221 195 c 0
 248 195 281 202 291 224 c 1
 291 237 232 225 209 248 c 0
 207 250 206 252 206 255 c 0
 206 285 269 390 300 390 c 1
EndSplineSet
Ligature: 0 0 'liga' e uni0308
EndChar
StartChar: igrave
Encoding: 329 236 110
Width: 495
Flags: MW
HStem: -218 106<152.5 162> 570 20<337 337>
VStem: 12 44
Fore
409 125 m 0
 432 107 484 100 510 100 c 1
 510 0 l 1
 460 0 l 2
 436 0 420 8 401 19 c 0
 387 26 376 36 366 47 c 1
 366 -3 357 -211 162 -218 c 1
 45 -218 12 -148 12 -74 c 0
 12 10 53 96 70 96 c 0
 71 95 73 92 73 88 c 0
 73 69 56 22 56 -19 c 0
 56 -38 60 -56 70 -70 c 0
 92 -100 132 -112 173 -112 c 0
 239 -112 310 -82 324 -52 c 1
 287 510 l 1
 337 590 l 1
 361 299 l 1
 366 214 373 152 409 125 c 0
EndSplineSet
Ligature: 0 0 'liga' i gravecomb
EndChar
StartChar: iacute
Encoding: 330 237 111
Width: 347
Flags: MW
HStem: 0 100<313 314 314 361>
VStem: 8 353<0 1.5>
Fore
361 0 m 1
 314 0 l 2
 294 0 280 11 262 18 c 0
 251 22 241 29 232 34 c 1
 232 5 228 -63 181 -63 c 0
 136 -63 117 45 117 48 c 1
 117 48 88 45 74 40 c 0
 62 34 51 25 43 12 c 1
 69 -337 l 1
 44 -399 l 1
 8 -15 l 1
 8 18 49 91 73 117 c 0
 95 140 163 155 165 155 c 1
 165 165 166 174 171 181 c 0
 174 185 180 188 185 189 c 1
 195 159 210 139 236 122 c 0
 261 106 283 100 313 100 c 2
 361 100 l 1
 361 0 l 1
EndSplineSet
Ligature: 0 0 'liga' i acutecomb
EndChar
StartChar: icircumflex
Encoding: 331 238 112
Width: 471
Flags: MW
HStem: -225 99<130 203.5> 0 100<417 484> 275 20<195 195>
VStem: 10 39<-47.5 -38>
Fore
390 0 m 1
 390 -71 346 -225 160 -225 c 0
 44 -225 10 -154 10 -80 c 0
 10 4 52 91 69 91 c 1
 69 77 49 27 49 -21 c 0
 49 -74 75 -126 185 -126 c 0
 222 -126 314 -117 353 -59 c 1
 353 -29 350 -8 342 19 c 0
 332 48 321 66 300 89 c 1
 343 167 l 1
 343 163 354 136 369 121 c 0
 388 102 398 100 417 100 c 2
 484 100 l 1
 484 0 l 1
 390 0 l 1
137 237 m 1
 195 295 l 1
 252 237 l 1
 195 180 l 1
 137 237 l 1
EndSplineSet
Ligature: 0 0 'liga' i uni0302
EndChar
StartChar: egrave
Encoding: 332 232 113
Width: 328
Flags: MW
HStem: 0 133 345 20<182 182>
VStem: 12 338<53 70.5>
Fore
350 100 m 1
 350 0 l 1
 277 0 l 2
 251 0 233 21 218 40 c 0
 203 59 188 100 188 104 c 1
 185 97 162 58 134 45 c 0
 128 43 102 38 75 38 c 0
 48 38 21 43 12 53 c 1
 12 88 25 145 48 177 c 0
 69 204 155 248 163 250 c 1
 155 305 l 1
 182 365 l 1
 182 365 192 259 211 171 c 0
 218 136 239 100 276 100 c 2
 350 100 l 1
174 155 m 1
 166 199 l 1
 154 199 70 151 70 141 c 1
 80 136 93 133 107 133 c 0
 139 133 173 145 174 155 c 1
EndSplineSet
Ligature: 0 0 'liga' e gravecomb
EndChar
StartChar: aring
Encoding: 333 229 115
Width: 542
Flags: MW
HStem: -252 79<164.5 212.5> 0 100<503 562>
VStem: 7 48<-103 -75> 317 245
Fore
562 100 m 1
 562 0 l 1
 479 0 l 2
 469 0 369 -10 369 -19 c 0
 369 -47 494 -36 506 -62 c 0
 510 -70 512 -77 512 -85 c 0
 512 -158 369 -239 258 -250 c 0
 239 -252 221 -252 204 -252 c 0
 77 -252 15 -196 7 -125 c 1
 7 -25 91 73 103 73 c 1
 103 52 55 -16 55 -77 c 0
 55 -129 93 -173 236 -173 c 0
 317 -173 453 -132 453 -110 c 1
 432 -86 325 -108 317 -52 c 1
 317 44 449 100 503 100 c 2
 562 100 l 1
EndSplineSet
Ligature: 0 0 'liga' a uni030A
EndChar
StartChar: eacute
Encoding: 334 233 116
Width: 542
Flags: MW
HStem: -252 79<164.5 212.5> 0 100<503 562>
VStem: 7 48<-103 -75> 317 245
Fore
117 -332 m 1
 158 -291 l 1
 199 -332 l 1
 158 -373 l 1
 117 -332 l 1
221 -332 m 1
 262 -291 l 1
 303 -332 l 1
 262 -373 l 1
 221 -332 l 1
562 100 m 1
 562 0 l 1
 479 0 l 2
 469 0 369 -10 369 -19 c 0
 369 -47 494 -36 506 -62 c 0
 510 -70 512 -77 512 -85 c 0
 512 -158 369 -239 258 -250 c 0
 239 -252 221 -252 204 -252 c 0
 77 -252 15 -196 7 -125 c 1
 7 -25 91 73 103 73 c 1
 103 52 55 -16 55 -77 c 0
 55 -129 93 -173 236 -173 c 0
 317 -173 453 -132 453 -110 c 1
 432 -86 325 -108 317 -52 c 1
 317 44 449 100 503 100 c 2
 562 100 l 1
EndSplineSet
Ligature: 0 0 'liga' e acutecomb
EndChar
StartChar: Atilde
Encoding: 335 195 122
Width: 598
Flags: MW
HStem: 0 100<-21 12> 196 87
VStem: -21 633
Fore
455 196 m 1
 359 192 240 81 240 81 c 1
 240 80 255 78 278 78 c 0
 351 78 506 91 547 148 c 1
 547 169 492 196 455 196 c 1
-21 100 m 1
 25 100 l 2
 40 100 56 100 66 107 c 0
 82 118 96 150 96 150 c 1
 97 143 110 119 122 108 c 0
 144 88 167 81 199 81 c 1
 199 82 407 277 538 283 c 1
 572 283 609 237 612 209 c 1
 612 140 528 12 276 -7 c 0
 263 -8 252 -8 241 -8 c 0
 115 -8 91 55 88 56 c 1
 78 38 66 25 49 15 c 0
 37 8 27 0 12 0 c 2
 -21 0 l 1
 -21 100 l 1
EndSplineSet
Ligature: 0 0 'liga' A tildecomb
EndChar
StartChar: Scaron
Encoding: 336 352 124
Width: 384
Flags: MW
HStem: 0 100<-19 32> 196 89<77 96.5>
VStem: -21 404
Fore
-19 100 m 1
 43 100 l 2
 71 100 89 104 117 111 c 0
 145 119 165 129 189 144 c 1
 185 151 107 196 86 196 c 0
 47 196 27 170 16 170 c 1
 16 199 44 285 110 285 c 0
 155 285 217 222 269 210 c 0
 311 200 339 196 383 196 c 1
 355 102 l 1
 337 102 274 100 247 93 c 0
 202 81 67 0 32 0 c 2
 -21 0 l 1
 -19 100 l 1
159 -206 m 1
 210 -155 l 1
 261 -206 l 1
 210 -257 l 1
 159 -206 l 1
156 -151 m 1
 106 -100 l 1
 156 -49 l 1
 258 -151 l 1
 309 -100 l 1
 258 -49 l 1
 156 -151 l 1
EndSplineSet
Ligature: 0 0 'liga' S uni030C
EndChar
StartChar: c142
Encoding: 337 -1 125
Width: 181
Flags: MW
HStem: 0 100<-21 62> 239 20<139 139>
VStem: 53 73<-217.5 -201.5>
Fore
-21 100 m 1
 115 100 l 2
 123 100 128 111 130 119 c 1
 130 128 114 177 108 180 c 1
 139 259 l 1
 156 235 169 198 169 158 c 0
 169 132 163 106 152 80 c 0
 136 44 93 0 62 0 c 2
 -21 0 l 1
 -21 100 l 1
126 -225 m 0
 125 -240 108 -250 93 -250 c 0
 74 -250 53 -236 53 -199 c 0
 53 -187 56 -171 62 -152 c 0
 81 -86 158 -48 160 -48 c 1
 152 -69 l 1
 133 -78 121 -95 110 -110 c 1
 97 -125 96 -141 96 -165 c 1
 112 -176 126 -178 126 -225 c 0
EndSplineSet
EndChar
StartChar: twosuperior
Encoding: 338 178 129
Width: 302
Flags: MW
HStem: 0 100<-21 63 246 331>
VStem: -21 352<0 100>
Fore
104 -239 m 1
 155 -188 l 1
 206 -239 l 1
 155 -289 l 1
 104 -239 l 1
102 -184 m 1
 51 -133 l 1
 102 -82 l 1
 203 -184 l 1
 254 -133 l 1
 203 -82 l 1
 102 -184 l 1
-21 100 m 1
 74 100 l 2
 89 100 100 102 114 106 c 0
 144 115 151 176 176 176 c 1
 176 169 171 158 171 145 c 0
 171 137 173 129 178 122 c 0
 189 104 219 100 246 100 c 2
 331 100 l 1
 331 0 l 1
 235 0 l 2
 214 0 188 15 170 30 c 0
 158 40 150 49 143 63 c 1
 137 51 126 36 112 25 c 0
 97 12 84 0 63 0 c 2
 -21 0 l 1
 -21 100 l 1
EndSplineSet
EndChar
StartChar: threesuperior
Encoding: 339 179 130
Width: 302
Flags: W
Fore
-21 100 m 1
 74 100 l 2
 89 100 100 102 114 106 c 0
 144 115 151 176 176 176 c 1
 176 169 171 158 171 145 c 0
 171 137 173 129 178 122 c 0
 189 104 219 100 246 100 c 2
 331 100 l 1
 331 0 l 1
 235 0 l 2
 214 0 188 15 170 30 c 0
 158 40 150 49 143 63 c 1
 137 51 126 36 112 25 c 0
 97 12 84 0 63 0 c 2
 -21 0 l 1
 -21 100 l 1
215 333 m 0
 185 333 156 303 155 300 c 0
 155 299 158 298 163 298 c 0
 184 298 238 307 238 320 c 1
 236 329 225 332 215 333 c 0
164 270 m 0
 155 270 148 270 142 270 c 0
 127 270 117 271 103 281 c 0
 94 287 89 292 83 301 c 1
 134 297 l 1
 155 317 l 1
 155 420 l 1
 151 423 147 427 147 432 c 0
 147 439 164 464 166 464 c 1
 166 461 165 457 165 452 c 0
 165 450 166 447 167 445 c 0
 170 441 175 436 180 435 c 1
 171 409 l 1
 167 409 l 1
 167 326 l 1
 167 326 214 361 231 361 c 0
 245 361 259 347 260 338 c 0
 260 314 221 272 164 270 c 0
EndSplineSet
EndChar
StartChar: copyright
Encoding: 340 169 134
Width: 451
Flags: MW
HStem: 254 20
VStem: 58 60<63 97> 171 61<63 97>
Fore
289 274 m 1
 254 225 235 166 232 97 c 1
 232 29 257 -33 292 -81 c 1
 222 -53 171 29 171 97 c 1
 174 166 229 250 289 274 c 1
176 274 m 1
 140 225 121 166 118 97 c 1
 118 29 143 -33 178 -81 c 1
 108 -53 58 29 58 97 c 0
 60 166 115 250 176 274 c 1
EndSplineSet
EndChar
StartChar: brokenbar
Encoding: 341 166 139
Width: 683
Flags: MW
HStem: -25 125 601 20<572 572>
VStem: 595 40
Fore
521 571 m 1
 572 621 l 1
 623 571 l 1
 572 520 l 1
 521 571 l 1
519 516 m 1
 620 414 l 1
 671 465 l 1
 620 516 l 1
 519 414 l 1
 468 465 l 1
 519 516 l 1
523 53 m 1
 497 38 469 21 409 4 c 0
 343 -15 283 -25 229 -25 c 0
 160 -25 103 -8 62 25 c 0
 26 53 14 91 14 126 c 0
 14 196 60 263 74 263 c 1
 74 250 52 217 52 184 c 0
 52 177 53 170 56 163 c 0
 84 99 152 69 262 69 c 1
 392 73 483 106 483 106 c 1
 480 115 471 130 471 156 c 0
 471 165 472 173 473 182 c 0
 491 263 551 329 588 329 c 0
 599 329 608 325 613 316 c 0
 630 288 635 261 635 235 c 0
 635 202 626 171 616 154 c 1
 604 129 586 108 586 108 c 1
 632 100 l 1
 700 100 l 1
 700 0 l 1
 636 0 l 2
 620 0 591 8 572 18 c 0
 551 29 538 37 523 53 c 1
595 178 m 0
 594 210 573 229 553 229 c 0
 547 229 540 228 535 224 c 0
 505 206 495 188 495 174 c 0
 495 145 536 128 538 128 c 1
 538 128 595 156 595 178 c 0
EndSplineSet
EndChar
StartChar: registered
Encoding: 342 174 140
Width: 562
Flags: MW
HStem: 0 84<78 107 270 299 462 491>
VStem: 48 89<32 51.5> 240 89<32 51.5> 432 89<32 51.5>
Fore
477 0 m 0
 447 0 432 21 432 43 c 0
 432 63 447 84 476 84 c 0
 506 84 521 62 521 41 c 0
 521 21 508 0 477 0 c 0
285 0 m 0
 255 0 240 21 240 43 c 0
 240 63 255 84 284 84 c 0
 314 84 329 62 329 41 c 0
 329 21 316 0 285 0 c 0
93 0 m 0
 63 0 48 21 48 43 c 0
 48 63 63 84 92 84 c 0
 122 84 137 62 137 41 c 0
 137 21 123 0 93 0 c 0
EndSplineSet
EndChar
StartChar: c144
Encoding: 343 -1 141
Width: 538
Flags: MW
HStem: -252 79<164.5 212.5> 0 100<503 562>
VStem: 7 48<-103 -75> 317 245
Fore
562 100 m 1
 562 0 l 1
 479 0 l 2
 469 0 369 -10 369 -19 c 0
 369 -47 494 -36 506 -62 c 0
 510 -70 512 -77 512 -85 c 0
 512 -158 369 -239 258 -250 c 0
 239 -252 221 -252 204 -252 c 0
 77 -252 15 -196 7 -125 c 1
 7 -25 91 73 103 73 c 1
 103 52 55 -16 55 -77 c 0
 55 -129 93 -173 236 -173 c 0
 317 -173 453 -132 453 -110 c 1
 432 -86 325 -108 317 -52 c 1
 317 44 449 100 503 100 c 2
 562 100 l 1
176 -475 m 1
 226 -424 l 1
 277 -475 l 1
 226 -525 l 1
 176 -475 l 1
173 -414 m 1
 128 -364 l 1
 173 -313 l 1
 274 -414 l 1
 325 -364 l 1
 274 -313 l 1
 173 -414 l 1
EndSplineSet
EndChar
StartChar: Udieresis
Encoding: 344 220 146
Width: 481
Flags: MW
HStem: -5 20 564 20<422.5 428>
VStem: 215 195<77.5 99>
Fore
295 82 m 1
 376 88 l 1
 376 88 383 89 383 115 c 1
 377 139 361 165 361 165 c 1
 361 165 346 141 337 130 c 0
 322 114 322 111 295 82 c 1
385 299 m 0
 395 377 395 417 395 457 c 1
 374 469 l 1
 374 486 417 584 428 584 c 0
 431 583 431 580 431 576 c 0
 431 567 427 547 427 531 c 0
 428 523 457 501 468 499 c 1
 466 473 l 1
 440 410 l 1
 425 410 l 1
 425 396 417 313 409 265 c 0
 405 240 383 200 383 200 c 1
 383 200 405 163 407 139 c 0
 409 125 410 110 410 88 c 0
 410 67 409 43 401 11 c 0
 399 3 324 -5 270 -5 c 0
 240 -5 215 -3 215 4 c 2
 215 99 l 1
 255 89 l 1
 269 100 287 117 302 134 c 0
 320 155 337 181 344 193 c 1
 325 222 317 233 288 270 c 0
 252 317 167 406 165 407 c 1
 151 395 139 385 119 385 c 1
 84 391 45 439 45 486 c 0
 45 505 52 524 69 539 c 0
 73 543 78 545 85 545 c 0
 133 545 232 428 300 335 c 0
 326 298 366 235 366 235 c 1
 366 235 377 241 385 299 c 0
EndSplineSet
Ligature: 0 0 'liga' U uni0308
EndChar
StartChar: udieresis
Encoding: 345 252 147
Width: 562
Flags: MW
HStem: 0 100<523 582> 385 153 567 20<433 433>
VStem: 370 63<379 396 396 519 519 519>
Fore
433 587 m 1
 433 396 l 2
 433 362 446 257 464 167 c 0
 468 148 488 100 523 100 c 2
 582 100 l 1
 582 0 l 1
 514 0 l 2
 487 0 450 43 443 64 c 0
 405 191 399 342 399 343 c 1
 399 343 387 259 365 143 c 0
 331 -34 137 -43 67 -43 c 1
 99 -30 174 14 229 56 c 0
 267 85 289 111 320 150 c 1
 314 177 316 195 289 239 c 0
 247 311 159 394 141 403 c 1
 130 395 125 385 104 385 c 0
 53 387 12 428 12 481 c 0
 12 492 15 503 18 514 c 0
 23 531 33 538 47 538 c 0
 107 538 235 410 272 348 c 0
 326 257 331 218 335 176 c 1
 339 191 350 233 359 272 c 1
 369 307 370 335 370 373 c 2
 370 519 l 1
 433 587 l 1
EndSplineSet
Ligature: 0 0 'liga' u uni0308
EndChar
StartChar: c157
Encoding: 346 -1 148
Width: 480
Flags: MW
HStem: 40 90<231 254.5> 209 41<66 420> 331 90<231 254.5>
VStem: 198 90<73.5 96.5 364.5 387.5>
Fore
66 250 m 1
 420 250 l 1
 420 209 l 1
 66 209 l 1
 66 250 l 1
243 421 m 0
 266 421 288 399 288 376 c 0
 288 353 266 331 243 331 c 0
 219 331 198 353 198 376 c 0
 198 399 219 421 243 421 c 0
243 130 m 0
 266 130 288 108 288 85 c 0
 288 62 266 40 243 40 c 0
 219 40 198 62 198 85 c 0
 198 108 219 130 243 130 c 0
EndSplineSet
EndChar
StartChar: yacute
Encoding: 347 253 149
Width: 565
Flags: MW
HStem: 0 100<523 582> 385 153 722 20<92.5 100>
VStem: 370 63<379 396 396 519 519 519>
Fore
121 700 m 0
 117 694 112 693 108 693 c 0
 99 693 92 701 81 701 c 0
 74 701 67 698 59 691 c 0
 49 683 47 678 47 672 c 0
 47 656 80 652 88 652 c 2
 160 652 l 1
 139 615 l 1
 112 615 85 615 67 606 c 0
 49 598 34 588 21 576 c 1
 15 586 l 1
 21 595 21 606 26 619 c 1
 26 630 7 650 7 668 c 1
 10 687 85 742 100 742 c 1
 114 739 128 728 128 716 c 0
 128 711 126 705 121 700 c 0
433 587 m 1
 433 396 l 2
 433 362 446 257 464 167 c 0
 468 148 488 100 523 100 c 2
 582 100 l 1
 582 0 l 1
 514 0 l 2
 487 0 450 43 443 64 c 0
 405 191 399 342 399 343 c 1
 399 343 387 259 365 143 c 0
 331 -34 137 -43 67 -43 c 1
 99 -30 174 14 229 56 c 0
 267 85 289 111 320 150 c 1
 314 177 316 195 289 239 c 0
 247 311 159 394 141 403 c 1
 130 395 125 385 104 385 c 0
 53 387 12 428 12 481 c 0
 12 492 15 503 18 514 c 0
 23 531 33 538 47 538 c 0
 107 538 235 410 272 348 c 0
 326 257 331 218 335 176 c 1
 339 191 350 233 359 272 c 1
 369 307 370 335 370 373 c 2
 370 519 l 1
 433 587 l 1
EndSplineSet
Ligature: 0 0 'liga' y acutecomb
EndChar
StartChar: ydieresis
Encoding: 348 255 151
Width: 562
Flags: MW
HStem: 0 100<523 582> 385 153 567 20<433 433>
VStem: 370 63<379 396 396 519 519 519>
Fore
433 587 m 1
 433 396 l 2
 433 362 446 257 464 167 c 0
 468 148 488 100 523 100 c 2
 582 100 l 1
 582 0 l 1
 514 0 l 2
 487 0 450 43 443 64 c 0
 405 191 399 342 399 343 c 1
 399 343 387 259 365 143 c 0
 331 -34 137 -43 67 -43 c 1
 99 -30 174 14 229 56 c 0
 267 85 289 111 320 150 c 1
 314 177 316 195 289 239 c 0
 247 311 159 394 141 403 c 1
 130 395 125 385 104 385 c 0
 53 387 12 428 12 481 c 0
 12 492 15 503 18 514 c 0
 23 531 33 538 47 538 c 0
 107 538 235 410 272 348 c 0
 326 257 331 218 335 176 c 1
 339 191 350 233 359 272 c 1
 369 307 370 335 370 373 c 2
 370 519 l 1
 433 587 l 1
388 -110 m 0
 384 -115 380 -117 376 -117 c 0
 366 -117 359 -108 348 -108 c 0
 342 -108 335 -111 326 -118 c 0
 317 -126 314 -132 314 -137 c 0
 314 -154 347 -158 355 -158 c 2
 428 -158 l 1
 406 -195 l 1
 380 -195 353 -195 335 -203 c 0
 317 -211 302 -221 288 -233 c 1
 283 -224 l 1
 288 -214 288 -203 294 -191 c 1
 294 -180 274 -159 274 -141 c 1
 277 -122 353 -67 368 -67 c 1
 381 -70 395 -81 395 -93 c 0
 395 -99 394 -104 388 -110 c 0
EndSplineSet
Ligature: 0 0 'liga' y uni0308
EndChar
StartChar: c158
Encoding: 349 -1 163
Width: 480
Flags: MW
HStem: 405 20<74 74 409 409>
VStem: 47 389<63 63 398 398>
Fore
214 230 m 1
 47 398 l 1
 74 425 l 1
 241 258 l 1
 409 425 l 1
 436 398 l 1
 269 230 l 1
 436 63 l 1
 409 36 l 1
 241 203 l 1
 74 36 l 1
 47 63 l 1
 214 230 l 1
EndSplineSet
EndChar
StartChar: Thorn
Encoding: 350 222 186
Width: 335
Flags: MW
HStem: 93 47<167.5 192> 234 20<135 144>
VStem: 27 194
Fore
170 200 m 0
 165 195 160 193 155 193 c 0
 144 193 133 203 119 203 c 0
 111 203 103 199 92 191 c 1
 81 181 77 173 77 167 c 0
 77 147 121 140 128 140 c 2
 221 140 l 1
 192 93 l 1
 143 93 119 91 103 84 c 0
 80 74 62 62 44 45 c 1
 37 58 l 1
 45 71 44 85 51 99 c 1
 51 110 27 133 27 162 c 1
 30 185 126 254 144 254 c 1
 162 250 178 237 178 221 c 0
 178 214 176 207 170 200 c 0
EndSplineSet
EndChar
StartChar: Uacute
Encoding: 351 218 187
Width: 258
Flags: MW
HStem: 0 20 680 40<126 162> 736 20<246 255>
VStem: 123 57
Fore
117 529 m 1
 173 605 l 1
 174 431 l 1
 174 384 180 299 180 213 c 0
 180 191 180 169 178 147 c 1
 174 21 130 0 130 0 c 1
 130 0 130 99 123 280 c 0
 118 402 117 529 117 529 c 1
7 657 m 1
 7 668 53 749 53 749 c 1
 67 741 108 720 144 720 c 0
 187 720 237 756 255 756 c 1
 255 739 185 680 139 680 c 0
 103 680 78 686 49 705 c 1
 49 705 26 657 7 657 c 1
EndSplineSet
Ligature: 0 0 'liga' U acutecomb
EndChar
StartChar: Aacute
Encoding: 352 193 188
Width: 252
Flags: MW
HStem: 0 20
VStem: 123 57
Fore
196 774 m 1
 192 768 188 767 184 767 c 0
 174 767 167 775 156 775 c 0
 150 775 143 772 134 765 c 0
 125 757 122 752 122 746 c 0
 122 730 155 726 163 726 c 2
 236 726 l 1
 214 689 l 1
 188 689 160 689 143 680 c 0
 125 672 110 663 96 650 c 1
 91 660 l 1
 96 669 96 680 102 693 c 1
 102 704 82 724 82 742 c 1
 85 761 160 816 176 816 c 1
 189 813 203 802 203 790 c 0
 203 785 202 779 196 774 c 1
117 529 m 1
 173 605 l 1
 174 431 l 1
 174 384 180 299 180 213 c 0
 180 191 180 169 178 147 c 1
 174 21 130 0 130 0 c 1
 130 0 130 99 123 280 c 0
 118 402 117 529 117 529 c 1
EndSplineSet
Ligature: 0 0 'liga' A acutecomb
EndChar
StartChar: Otilde
Encoding: 353 213 189
Width: 329
Flags: MW
HStem: 441 20<233.5 241>
VStem: 171 146<94.5 136>
Fore
262 418 m 0
 258 413 254 412 250 412 c 0
 240 412 233 420 222 420 c 0
 215 420 209 417 200 410 c 0
 191 402 188 396 188 391 c 0
 188 374 221 370 229 370 c 2
 302 370 l 1
 280 333 l 1
 254 333 226 333 209 325 c 0
 191 317 176 307 162 295 c 1
 156 305 l 1
 162 314 162 325 167 337 c 1
 167 348 148 369 148 387 c 1
 151 406 226 461 241 461 c 1
 255 458 269 447 269 435 c 0
 269 429 267 424 262 418 c 0
-25 -115 m 1
 -25 -115 -11 -117 8 -117 c 0
 52 -117 128 -111 184 -75 c 0
 258 -27 285 26 294 43 c 1
 285 92 l 1
 277 81 250 48 218 48 c 0
 213 48 206 49 200 52 c 0
 180 62 171 82 171 107 c 0
 171 165 218 241 250 241 c 1
 292 233 317 174 317 103 c 0
 317 23 287 -70 219 -126 c 0
 193 -147 158 -155 122 -155 c 0
 64 -155 4 -136 -25 -115 c 1
228 169 m 1
 218 169 203 123 203 119 c 1
 213 108 224 104 232 104 c 0
 250 104 263 119 263 119 c 1
 263 137 252 165 228 169 c 1
EndSplineSet
Ligature: 0 0 'liga' O tildecomb
EndChar
StartChar: Ograve
Encoding: 354 210 190
Width: 230
Flags: MW
HStem: 585 20<173 173>
VStem: 123 57
Fore
117 529 m 1
 173 605 l 1
 174 431 l 1
 174 384 180 299 180 213 c 0
 180 191 180 169 178 147 c 1
 174 21 130 0 130 0 c 1
 130 0 130 99 123 280 c 0
 118 402 117 529 117 529 c 1
196 -148 m 1
 192 -154 188 -155 184 -155 c 0
 174 -155 167 -147 156 -147 c 0
 150 -147 143 -150 134 -156 c 1
 125 -165 122 -170 122 -176 c 0
 122 -192 155 -196 163 -196 c 2
 236 -196 l 1
 214 -233 l 1
 188 -233 160 -233 143 -241 c 0
 125 -250 110 -259 96 -272 c 1
 91 -262 l 1
 96 -252 96 -241 102 -229 c 1
 102 -218 82 -198 82 -180 c 1
 85 -160 160 -106 176 -106 c 1
 189 -108 203 -119 203 -132 c 0
 203 -137 202 -143 196 -148 c 1
EndSplineSet
Ligature: 0 0 'liga' O gravecomb
EndChar
StartChar: Ucircumflex
Encoding: 355 219 191
Width: 521
Flags: MW
HStem: -192 99<192 245> 232 92<439 448> 472 20<80.5 88>
VStem: 10 42<-1.5 19>
Fore
468 209 m 1
 461 218 454 232 442 232 c 0
 395 232 310 148 310 123 c 1
 318 70 460 110 483 41 c 0
 486 34 487 27 487 19 c 0
 487 -71 317 -192 173 -192 c 1
 49 -187 12 -107 10 -14 c 0
 10 52 59 147 71 147 c 1
 71 133 52 81 52 29 c 0
 52 -32 78 -92 192 -93 c 0
 302 -93 439 -18 439 -3 c 1
 436 22 285 -18 277 66 c 1
 277 181 403 324 475 324 c 1
 494 320 501 307 501 294 c 0
 501 283 497 270 492 261 c 1
 468 209 l 1
108 450 m 1
 104 444 100 443 96 443 c 0
 86 443 80 451 69 451 c 0
 62 451 55 449 47 442 c 0
 37 433 34 428 34 422 c 0
 34 406 67 402 75 402 c 2
 148 402 l 1
 126 365 l 1
 100 365 73 365 55 357 c 0
 37 348 22 339 8 326 c 1
 3 336 l 1
 8 346 8 357 14 369 c 1
 14 380 -5 401 -5 418 c 0
 -3 438 73 492 88 492 c 1
 102 490 115 479 115 466 c 0
 115 461 114 455 108 450 c 1
EndSplineSet
Ligature: 0 0 'liga' U uni0302
EndChar
StartChar: Adieresis
Encoding: 356 196 194
Width: 233
Flags: MW
HStem: -1 87<112 133> 477 20<51 51 152 152>
VStem: 0 221
Fore
51 497 m 1
 152 395 l 1
 203 446 l 1
 152 497 l 1
 51 395 l 1
 0 446 l 1
 51 497 l 1
84 207 m 1
 84 207 84 252 85 263 c 0
 89 281 102 309 106 316 c 1
 108 306 111 295 117 287 c 0
 133 263 221 243 221 147 c 0
 221 139 219 130 218 121 c 0
 210 59 160 -1 112 -1 c 0
 63 1 49 34 49 74 c 0
 49 133 84 207 84 207 c 1
108 193 m 1
 92 187 81 162 81 136 c 0
 81 123 84 112 89 102 c 0
 95 91 106 86 118 86 c 0
 148 86 189 111 189 126 c 0
 189 133 128 193 108 193 c 1
EndSplineSet
Ligature: 0 0 'liga' A uni0308
EndChar
StartChar: Aring
Encoding: 357 197 226
Width: 513
Flags: MW
HStem: -192 99<192 245> 232 92<439 448>
VStem: 10 42<-1.5 19>
Fore
468 209 m 1
 461 218 454 232 442 232 c 0
 395 232 310 148 310 123 c 1
 318 70 460 110 483 41 c 0
 486 34 487 27 487 19 c 0
 487 -71 317 -192 173 -192 c 1
 49 -187 12 -107 10 -14 c 0
 10 52 59 147 71 147 c 1
 71 133 52 81 52 29 c 0
 52 -32 78 -92 192 -93 c 0
 302 -93 439 -18 439 -3 c 1
 436 22 285 -18 277 66 c 1
 277 181 403 324 475 324 c 1
 494 320 501 307 501 294 c 0
 501 283 497 270 492 261 c 1
 468 209 l 1
EndSplineSet
Ligature: 0 0 'liga' A uni030A
EndChar
StartChar: trademark
Encoding: 358 8482 228
Width: 1
Flags: MW
HStem: 547 20 739 20<137 137>
VStem: -26 163<636 671>
Fore
137 759 m 1
 137 723 l 1
 -26 636 l 1
 -26 674 l 1
 137 759 l 1
-26 586 m 1
 137 671 l 1
 137 632 l 1
 -26 547 l 1
 -26 586 l 1
EndSplineSet
Ligature: 0 1 'liga' T M
EndChar
StartChar: onequarter
Encoding: 359 188 229
Width: 1
Flags: MW
HStem: 578 20
VStem: 25 184
Fore
167 700 m 1
 167 700 176 709 178 717 c 0
 181 726 184 731 184 737 c 0
 184 749 176 754 167 754 c 0
 159 754 151 749 148 741 c 1
 148 711 167 700 167 700 c 1
158 641 m 0
 129 609 47 578 45 578 c 1
 29 608 l 1
 29 608 70 619 70 646 c 0
 70 652 69 658 64 665 c 1
 64 665 37 661 30 652 c 1
 25 674 l 1
 25 674 55 697 77 697 c 0
 81 697 85 697 88 694 c 0
 95 690 95 641 95 639 c 1
 97 639 112 649 121 654 c 0
 129 660 139 668 144 675 c 1
 143 675 115 691 115 722 c 0
 115 738 125 760 156 785 c 1
 169 794 178 797 185 797 c 0
 203 797 209 776 209 756 c 0
 209 745 207 733 204 724 c 0
 202 712 192 690 192 690 c 1
 207 684 l 1
 193 650 l 1
 170 658 l 1
 167 653 165 649 158 641 c 0
EndSplineSet
Ligature: 0 1 'frac' one slash four
Ligature: 0 1 'frac' one fraction four
EndChar
StartChar: degree
Encoding: 360 176 231
Width: 1
Flags: MW
HStem: 565 20 667 20<173 173>
VStem: 10 163
Fore
173 687 m 1
 173 652 l 1
 10 565 l 1
 10 602 l 1
 173 687 l 1
EndSplineSet
EndChar
StartChar: mu
Encoding: 361 181 232
Width: 1
Flags: MW
HStem: 576 20
VStem: 0 180
Fore
122 702 m 1
 122 702 134 715 141 734 c 0
 143 739 144 745 144 749 c 0
 144 763 136 771 126 771 c 0
 117 771 106 763 99 742 c 1
 99 713 122 702 122 702 c 1
178 664 m 1
 159 636 l 1
 126 657 l 1
 112 642 104 634 82 617 c 0
 58 598 14 576 14 576 c 1
 0 602 l 1
 1 602 37 623 55 635 c 0
 74 647 102 675 102 675 c 1
 102 675 69 702 66 716 c 1
 66 764 91 789 111 797 c 0
 121 801 129 802 137 802 c 0
 162 802 180 787 180 764 c 0
 180 759 178 753 177 748 c 0
 167 713 145 686 145 686 c 1
 178 664 l 1
EndSplineSet
EndChar
StartChar: onesuperior
Encoding: 362 185 234
Width: 1
Flags: MW
HStem: 568 20 718 20<152 152>
VStem: -11 166
Fore
121 609 m 0
 102 609 97 613 91 613 c 0
 86 613 82 613 74 609 c 0
 59 602 66 576 33 568 c 1
 -8 568 -11 615 -11 653 c 1
 16 667 l 1
 16 642 19 627 40 627 c 0
 59 627 59 690 59 690 c 1
 88 704 l 1
 88 702 88 661 107 661 c 0
 122 661 126 693 126 724 c 1
 152 738 l 1
 152 738 155 719 155 694 c 0
 155 658 150 610 121 609 c 0
EndSplineSet
EndChar
StartChar: threequarters
Encoding: 363 190 235
Width: 1
Flags: MW
HStem: 578 20 728 20<45.5 64>
VStem: -16 141<646 675.5>
Fore
64 748 m 1
 103 742 125 708 125 643 c 1
 119 597 80 578 45 578 c 0
 18 578 -7 590 -11 610 c 0
 -15 626 -16 639 -16 653 c 0
 -16 720 27 748 64 748 c 1
25 635 m 0
 27 634 40 631 52 631 c 0
 66 631 80 634 84 641 c 0
 86 647 89 656 89 664 c 0
 89 683 78 704 53 705 c 0
 34 705 15 679 15 657 c 0
 15 649 18 641 25 635 c 0
EndSplineSet
Ligature: 0 1 'frac' three slash four
Ligature: 0 1 'frac' three fraction four
EndChar
StartChar: scaron
Encoding: 364 353 238
Width: 431
Flags: MW
HStem: -361 88<328 339> 182 99<326.5 361> 283 20<96.5 168.5>
VStem: 8 39<-137 -76.5>
Fore
30 165 m 1
 30 180 34 303 159 303 c 0
 178 303 199 300 224 294 c 0
 259 284 303 281 339 281 c 0
 383 281 417 285 417 285 c 1
 373 182 l 1
 280 182 78 158 51 -37 c 0
 48 -53 47 -69 47 -84 c 0
 47 -262 219 -273 328 -273 c 0
 343 -273 355 -273 368 -273 c 2
 488 -273 l 1
 488 -288 l 1
 339 -361 l 2
 337 -361 326 -361 310 -361 c 0
 239 -361 55 -350 25 -236 c 0
 14 -195 8 -155 8 -119 c 0
 8 82 154 195 159 198 c 1
 144 210 126 217 108 217 c 0
 102 217 96 215 89 214 c 0
 62 209 30 165 30 165 c 1
225 -96 m 1
 276 -45 l 1
 326 -96 l 1
 276 -147 l 1
 225 -96 l 1
222 -41 m 1
 171 10 l 1
 222 60 l 1
 324 -41 l 1
 374 10 l 1
 324 60 l 1
 222 -41 l 1
EndSplineSet
Ligature: 0 0 'liga' s uni030C
EndChar
StartChar: c173
Encoding: 365 -1 247
Width: 601
Flags: MW
HStem: -221 89<311 586> 23 65<318 347 339 395>
VStem: 108 516
Fore
560 0 m 1
 560 0 525 63 491 67 c 1
 439 67 450 25 395 23 c 0
 373 23 355 23 339 23 c 0
 289 23 254 16 189 -45 c 0
 166 -67 144 -102 144 -118 c 0
 144 -122 145 -125 148 -126 c 0
 156 -132 248 -132 311 -132 c 2
 624 -132 l 1
 586 -221 l 1
 118 -221 l 1
 108 -143 l 1
 108 -64 133 -21 174 22 c 0
 230 81 257 88 379 88 c 0
 451 88 444 148 495 151 c 0
 519 151 560 128 560 89 c 2
 560 0 l 1
EndSplineSet
EndChar
StartChar: c128
Encoding: 366 -1 248
Width: 181
Flags: MW
HStem: 0 100<-21 62> 239 20<139 139>
VStem: -21 190
Fore
-21 100 m 1
 115 100 l 2
 123 100 128 111 130 119 c 1
 130 128 114 177 108 180 c 1
 139 259 l 1
 156 235 169 198 169 158 c 0
 169 132 163 106 152 80 c 0
 136 44 93 0 62 0 c 2
 -21 0 l 1
 -21 100 l 1
EndSplineSet
EndChar
StartChar: c256
Encoding: 367 -1 249
Width: 628
Flags: MW
HStem: 0 100<609 642> 451 20<200 200>
VStem: 15 52<94 96.5>
Fore
143 413 m 1
 200 471 l 1
 258 413 l 1
 200 355 l 1
 143 413 l 1
642 0 m 1
 588 0 l 2
 560 0 539 18 523 40 c 0
 510 56 495 81 492 107 c 1
 473 233 l 1
 462 218 449 206 432 195 c 0
 417 185 405 177 387 171 c 1
 387 111 374 -55 196 -80 c 0
 184 -81 171 -82 159 -82 c 0
 100 -82 47 -62 25 -5 c 0
 18 12 15 32 15 52 c 0
 15 141 71 244 95 244 c 1
 95 225 67 169 67 118 c 0
 67 70 92 26 188 21 c 1
 217 21 313 38 342 78 c 1
 344 89 344 100 344 111 c 0
 344 128 342 143 336 160 c 0
 328 187 317 203 299 222 c 1
 339 306 l 1
 387 258 l 1
 402 258 429 262 447 278 c 0
 468 296 481 339 488 339 c 1
 495 336 498 331 501 325 c 1
 524 171 l 1
 525 158 538 126 560 112 c 0
 575 103 590 100 609 100 c 2
 642 100 l 1
 642 0 l 1
EndSplineSet
EndChar
StartChar: c129
Encoding: 368 -1 250
Width: 317
Flags: MW
HStem: 0 100<-21 63 246 331>
VStem: -21 352<0 100>
Fore
-21 100 m 1
 74 100 l 2
 89 100 100 102 114 106 c 0
 144 115 151 176 176 176 c 1
 176 169 171 158 171 145 c 0
 171 137 173 129 178 122 c 0
 189 104 219 100 246 100 c 2
 331 100 l 1
 331 0 l 1
 235 0 l 2
 214 0 188 15 170 30 c 0
 158 40 150 49 143 63 c 1
 137 51 126 36 112 25 c 0
 97 12 84 0 63 0 c 2
 -21 0 l 1
 -21 100 l 1
EndSplineSet
EndChar
StartChar: c127
Encoding: 369 -1 251
Width: 236
Flags: MW
HStem: 0 100<-21 30 204 250>
VStem: -21 271<0 100>
Fore
-21 100 m 1
 41 100 l 2
 56 100 67 102 81 106 c 0
 111 117 115 181 139 181 c 1
 139 173 139 163 139 152 c 0
 139 141 140 130 145 122 c 0
 156 104 181 100 204 100 c 2
 250 100 l 1
 250 0 l 1
 193 0 l 2
 173 0 155 15 137 30 c 0
 125 40 118 49 110 63 c 1
 104 51 93 36 80 25 c 0
 64 12 51 0 30 0 c 2
 -21 0 l 1
 -21 100 l 1
EndSplineSet
EndChar
StartChar: c160
Encoding: 370 -1 252
Width: 621
Flags: MW
HStem: -15 115 246 20<66.5 74>
VStem: 8 627
Fore
521 77 m 1
 519 62 351 -15 209 -15 c 0
 150 -15 95 -1 56 34 c 1
 21 69 8 106 8 140 c 0
 8 209 59 266 74 266 c 1
 74 252 52 217 52 184 c 0
 52 177 53 170 56 163 c 0
 85 95 204 80 274 80 c 0
 466 82 540 182 545 188 c 1
 545 182 550 150 560 129 c 0
 567 115 582 100 595 100 c 2
 635 100 l 1
 635 0 l 1
 598 0 l 2
 582 0 557 12 542 30 c 0
 531 44 523 66 521 77 c 1
EndSplineSet
EndChar
StartChar: c141
Encoding: 371 -1 253
Width: 621
Flags: MW
HStem: -10 90<239 274> 300 20<564 564>
VStem: 8 605
Fore
74 266 m 1
 74 252 52 217 52 184 c 0
 52 177 53 170 56 163 c 0
 85 95 204 80 274 80 c 0
 466 82 557 133 573 141 c 1
 573 147 565 173 557 187 c 0
 550 199 540 209 529 217 c 1
 564 320 l 1
 568 313 613 274 613 204 c 0
 613 171 604 132 575 85 c 0
 543 34 373 -10 233 -10 c 0
 156 -10 89 3 56 34 c 1
 21 69 8 106 8 140 c 0
 8 209 59 266 74 266 c 1
EndSplineSet
EndChar
